<svg xmlns="http://www.w3.org/2000/svg" width="240" height="160" viewBox="0 0 192 128"><g transform="translate(488.8 -717.9)"><g fill-rule="evenodd"><path d="M-413.7 801.3v25l20.8 11.5 21-11.6v-25l-21-11.4z" fill="#862b1f"/><path d="M-393 789.8v46l-20.7-11.6v-23z" fill="#e45141"/><path d="M-393 789.8v46l21-11.6v-23z" fill="#c74639"/><path d="M-372 810l-12-7.8-8 2.7-10.6 20.6 14.6 7.4 16-8.8z" fill="#9f392d"/></g><path d="M-396.2 799.7h-1c-1.6.5-3.2 1.2-4.3 2.4-.4.7 0 1.4.7 1.7 2 1 4 1 6 1.6-2.8-.2-5.4-.3-8-.2-1.5 0-2.8 1.4-2.6 2.8 0 2-.4 4.3 1 5.8.2 3.3 0 6.6 0 9.8 0 1 1 1.6 1.8 2.2h9.7V802l-.3-.8c-.7-1-1.8-1.5-3-1.5zm-.6 2c.3-.2.5 0 .8 0 .2 0 .4.3.5.5.2.3.3.5.3.8 0 .3.2.6.3.8-.6 0-1.3 0-2-.2-.3 0-.6 0-1-.2l-.8-.4c0-.3 0-.5.2-.6 0-.2.3-.3.5-.4.3-.2.8-.4 1.2-.4z" fill="#f0fb92"/><path d="M-390 799.7c-1.4.2-2.2 1.3-3 2.3v11.5h-6.5s6.6.7 6.6 5v7c3.2 0 6.2.2 9.3 0 1 0 2-1 2-2v-10c1.5 0 1.2-3.7 1-5.7 0-2-.5-2.6-1.8-2.7-2.7 0-5.4 0-8 .3 1.6-.4 3.2-.6 4.7-1.2 1 0 1.7-.8 2-1.8-1.8-1.4-4-2.7-6.3-2.5zm1.3 2h.8l.8.6.4.7c-.6.3-1.2.5-2 .6l-2 .3.4-1.4.3-.6s.2-.3.5-.4h.8z" fill="#d1da7f"/><g fill-rule="evenodd"><path d="M-478 737.3V762l21 11.7 20.7-11.6v-24.7l-20.8-11.6z" fill="#22594f"/><path d="M-457 725.7v46l-21-11.6v-22.7z" fill="#428c7d"/><path d="M-457 725.7v46l20.7-11.6v-22.7z" fill="#3a7a6d"/><path d="M-436.3 748.8l-24.4-10.7-1.2.3-.6-.6-1 10.8 6.5 11.8 10 5.8 10.7-6z" fill="#2e6157"/></g><path d="M-466 738.8c.7-1.2 2.3-1 3.4-1l1 8.2-1.3 1c0 1 .5 1.8 1 2.6 1.2 2.2 2.7 4.3 4.5 6l.4.5v4.3c-4-2-7-5.7-8.8-9.6-1.3-3.8-2-8.2 0-12z" fill="#fdd631"/><path d="M-462 737.7c.5 0 1 .2 1.3.4.5 2 .7 4.2.8 6.3 0 .7-.6 1-1 1.6l-1-8.3z" fill="#fed72f"/><path d="M-454.7 755c1.3-1.4 3 0 4.3.6 1.2.7 3.3 1.2 3 3-2.4-1.2-4.8-2.5-7.3-3.6z" fill="#d9b82b"/><path d="M-457 756.2c.6 0 1.3-.4 2-.7l7.3 3.7c-.5 1-.8 2.6-2.2 2.8-2.3.2-4.6-.7-6.8-1.5l-.3-.2V756v.2z" fill="#ddba2b"/><g fill-rule="evenodd"><path d="M-413.7 737.3V762l20.8 11.7 21-11.6v-24.7l-21-11.6z" fill="#8a7407"/><path d="M-393 725.7v46l-20.7-11.6v-22.7z" fill="#f0c610"/><path d="M-393 725.7v46l21-11.6v-22.7z" fill="#d1ac0e"/><path d="M-372 743.6l-11-4.5-13.5 6-9.2 15.4 17.7 8.5 16-9z" fill="#a7890b"/></g><path d="M-387 740.5c.3-.7.2-1.6 1.2-1.6h2c1.2 0 1.2.5 1.6 1.6h2.2c.8 0 1.2.5 1.2 1v16c0 1.7-1 3.2-2.7 3.2H-393v-4.5c1.2.7 3 1.5 5 1.4 3.4-.3 6.4-3.6 6.2-7.2 0-3.5-3-6.6-6.4-7-1.7 0-3.3.6-4.8 1.4v-4.4z" fill="#c9403a"/><path d="M-407.3 743.3c0-1.5 1.3-2.7 2.7-2.7h11.6v4.3c-1.4.8-2.2 2-2.6 3.6-1 2.8.2 6 2.6 7.7V761h-12.5c-1 0-1.8-1-1.8-3v-14.7z" fill="#e74a43"/><path d="M-403.3 743.4c1.2-.4 2.4.8 2 2-.2 1.2-2 1.6-2.7.6-.8-.8-.3-2.3.7-2.6z" fill="#fefdfd"/><path d="M-390 748.3c1.7-1 3.8.8 3.4 2.7-.2 1.8-2.6 2.7-4 1.6-1.5-1-1.2-3.7.6-4.3z" fill="#d0d97e"/><g fill-rule="evenodd"><path d="M-349.6 737.3V762l21 11.7L-308 762v-24.7l-20.7-11.6z" fill="#22594f"/><path d="M-328.7 725.7v46l-20.8-11.6v-22.7z" fill="#428c7d"/><path d="M-328.7 725.7v46L-308 760v-22.7z" fill="#3a7a6d"/><path d="M-308 741l-16.6-5.7-9.4 29.2 10.2 4.4 16-9z" fill="#2e6157"/></g><circle cx="-328.8" cy="750" r="15.3" fill="#9bcc5f" fill-rule="evenodd"/><path d="M-313.5 750c0 8.4-6.8 15.3-15.3 15.3v-30.6c8.5 0 15.3 6.8 15.3 15.3z" fill="#87b153" fill-rule="evenodd"/><path d="M-339 751.6c0-1.3 1.8-2.3 2.8-1.4l4.6 4.4 3-3v5c-1 .8-1.6 1.7-2.5 2.2-1 .4-1.8-.3-2.4-1l-4.4-4.3c-.5-.6-1.2-1-1-2z" fill="#fefefe"/><path d="M-322.2 745c.6-.4 1.2-1 2-1.2 1 0 2 .8 2 1.7 0 .8-.8 1.4-1.2 2l-9.4 9.2v-5c.2 0 .3-.2.4-.3 2-2 4.2-4 6.2-6.3z" fill="#ddd"/><g fill-rule="evenodd"><path d="M-349.6 801.3v25l21 11.5 20.7-11.6v-25l-20.7-11.4z" fill="#8a7407"/><path d="M-328.7 789.8v46l-20.8-11.6v-23z" fill="#f0c610"/><path d="M-328.7 789.8v46l20.8-11.6v-23z" fill="#d1ac0e"/><path d="M-308 805l-10.8-3.4-17.6 6.2-1.2 18 13.8 7.2 16-8.8z" fill="#a7890b"/></g><path d="M-342 805.8c0-2.3 2.2-4.3 4.5-4.3h8.7v7.5c-.2 0-.6 0-.8.2-1.8.7-1 3.3 1 3.2h.3c-.2 0-.3.2-.4.3v6.7c-1 0-2.2 0-2.7.5l-6.2 6v-6.5c-1.2 0-2.2-.5-3-1-.6-.6-.8-1-1.3-2.4-.2-1 0-2.6 0-3.8v-6.4z" fill="#6e4d44"/><path d="M-328.8 801.5h9c1.3 0 2.4.3 3.3 1 .8 1 1 2 1 2.6 0 .6 0 8.5.2 10.6 0 3.4-2.8 3.8-4.7 3.8h-8.8v-7h.5c.5-.5 1-1 1-1.8 0-1-1-1-1.5-1.6z" fill="#60433b"/><path d="M-335.4 809.2c1.2-.7 3 .4 2.5 1.8 0 1.2-1.7 1.8-2.6 1-1-.8-.7-2.2.2-2.8z" fill="#efc510"/><path d="M-329.6 809.2l1-.2c.5 0 1.4.5 1.4 1.7 0 1-.6 1.4-1 1.6h-.5v-3h-1zM-324 809c1.2-.3 2.6.7 2.3 2-.2 1.3-2.2 1.8-3 .7-.7-1-.2-2.2.8-2.6z" fill="#cfaa0e"/><path d="M-328.7 812.4c-1.8 0-2.7-2.5-1-3.2l1 .2v3z" fill="#eec410"/><g><g fill-rule="evenodd"><path d="M-478 801.3v25l21 11.5 20.7-11.6v-25L-457 790z" fill="#5d0e48"/><path d="M-457 789.8v46l-21-11.6v-23z" fill="#942d74"/><path d="M-457 789.8v46l20.7-11.6v-23z" fill="#812765"/><path d="M-436.3 804L-458 799l-1 1.8-8-1.5-.4 3.6-.2 7.8 6 2.3v8.5l-.6 3.7-.7 3.7 10.8 4 16-8.8z" fill="#68225a"/></g><path d="M-468.7 800.5c.4-.5 1-1.5 1.8-1 1.2.5.7 2 .8 3h3.3v-3.3h5l.2 9.2h.6l.2 5.2h-.8c-.2 5.2 0 10.3 0 15.4h-5c-.2-4.8 0-9.5 0-14 0-.6-.2-1-.3-1.5-1-1.2-.8-3-.6-3.8 0-.4.3-1.4 1-1.5v-.4h-3.5c0 1.2 0 2.7-1 3-1 .4-2.6-2.2-3.8-3.5-.6-.8-1.7-1.7-1-2.8.8-1.4 2-2.6 3-4z" fill="#edc211"/><path d="M-455 806c.3-.8 1.7-1 2.5-.6 2 1 4 2 6.2 2.8 1.4.7 3.6 1.4 4 2.2.6.8 0 1.7-1 2-2.5 1.3-5.2 2.4-8 3.7-.8.5-2 1-3 .5-1-.6-.7-2-.8-3h-2.5c.3-2 .3-3.4.3-5h2c0-1 0-1.6.2-2.4z" fill="#cfa90f"/></g></g></svg>