<svg xmlns="http://www.w3.org/2000/svg" width="700" height="700" viewBox="0 0 560 560"><g fill-rule="evenodd"><path d="M350.3 367v49.7l41.6 23 41.5-23V367L392 343.8z" fill="#51757a"/><path d="M392 343.8v92l-41.7-23V367z" fill="#89c0c7"/><path d="M392 343.8v92l41.5-23V367z" fill="#77a7ad"/><path d="M433.5 375.2l-16-4-32.8 2-13.6-1.7-5.4 12.4 42 4H383l-12-2.2-5.5 12.4 26.4 2-7.3 1.6-13.8-1.6-5.7 12.4 36.5 17.7 31.7-17.6z" fill="#60868a"/></g><g fill-rule="evenodd"><path d="M462.3 367v49.6l41.6 23 41.4-23V367L504 344z" fill="#587a38"/><path d="M504 344v91.7l-41.6-23V367z" fill="#9bcc5f"/><path d="M504 344v91.7l41.4-23V367z" fill="#87b153"/><path d="M545.4 372.7l-33-11-23.8 57.7 25 10.8 31.8-17.6z" fill="#6c8e42"/></g><g fill-rule="evenodd"><path d="M126.4 367v49.5l41.5 23 41.4-23V367L168 343.7z" fill="#587a38"/><path d="M168 343.8v91.8l-41.5-23v-45.7z" fill="#9bcc5f"/><path d="M168 343.8v91.8l41.4-23v-45.7z" fill="#87b153"/><path d="M209.4 375.4L178.2 365l-25.7 50 29.5 12.7 27.4-15.2z" fill="#6c8e42"/></g><g fill-rule="evenodd"><path d="M238.6 367v49.3l41.5 23 41.5-23V367L280 343.7z" fill="#22594f"/><path d="M280 343.8v91.6l-41.3-23v-45.5z" fill="#428c7d"/><path d="M280 343.8v91.6l41.5-23v-45.5z" fill="#3a7a6d"/><path d="M321.5 375.3l-26-7.8-15.4 49.4 17.3 8.8 24.2-13.5z" fill="#2e6157"/></g><g fill-rule="evenodd"><path d="M462.3 31v49.7l41.6 23 41.5-23V31L504 8z" fill="#862b1f"/><path d="M504 8v91.8l-41.7-23V31z" fill="#e45141"/><path d="M504 8v91.8l41.5-23V31z" fill="#c74639"/><path d="M545.5 48.5L522 32.8 506 38l-21.5 41.5 29.3 14.8 31.7-17.6z" fill="#9f392d"/></g><g fill-rule="evenodd"><path d="M462.3 143v49.7l41.6 23 41.5-23V143L504 120z" fill="#862b1f"/><path d="M504 120v91.8l-41.7-23V143z" fill="#e45141"/><path d="M504 120v91.8l41.5-23V143z" fill="#c74639"/><path d="M545.5 152.2l-30.8-13.6-19.4 3-10 50.6 28.5 14 31.7-17.5z" fill="#9f392d"/></g><g fill-rule="evenodd"><path d="M125.7 143v49.7l41.6 23 41.6-23V143l-41.7-23z" fill="#862b1f"/><path d="M167.3 120v91.8l-41.6-23V143z" fill="#e45141"/><path d="M167.3 120v91.8l41.6-23V143z" fill="#c74639"/><path d="M209 158.3L168 147l-14.6 2.2-4 2.4-3 14.3-11.6 15.7 42.4 24.6 31.7-17.6z" fill="#9f392d"/></g><g fill-rule="evenodd"><path d="M14.2 255v50l41.6 23 41.6-23v-50L56 232z" fill="#862b1f"/><path d="M55.8 232v92l-41.5-23.3V255z" fill="#e45141"/><path d="M55.8 232v92l41.6-23.3V255z" fill="#c74639"/><path d="M97.5 258.6L65 244.4s-33-1.4-40 20.4c-7 22 14.6 40.4 14.6 40.4l26.3 13.2 31.7-17.7z" fill="#9f392d"/></g><g fill-rule="evenodd"><path d="M239.5 255v50l41.6 23 41.7-23v-50L281 232z" fill="#862b1f"/><path d="M281 232v92l-41.5-23.3V255z" fill="#e45141"/><path d="M281 232v92l41.7-23.3V255z" fill="#c74639"/><path d="M322.7 263.3l-14.2-8.7-55.5 5.9 21.1 26.8 6 6-18.6 12.5 29.6 12.6 31.7-17.7z" fill="#9f392d"/></g><g fill-rule="evenodd"><path d="M13.7 143v50l41.7 23L97 193l.2-50-41.8-23z" fill="#8a7407"/><path d="M55.4 120v92l-41.6-23.2V143z" fill="#f0c610"/><path d="M55.4 120v92L97 188.8l.2-45.7z" fill="#d1ac0e"/><path d="M97 155.8l-21.8-9-26.8 12-18.6 30.6 35.5 17L97 189z" fill="#a7890b"/></g><g fill-rule="evenodd"><path d="M239 143v50l41.7 23 41.7-23v-50l-41.7-23z" fill="#8a7407"/><path d="M280.7 120v92L239 188.8V143z" fill="#f0c610"/><path d="M280.7 120v92l41.7-23.2V143z" fill="#d1ac0e"/><path d="M322.4 152.6L300 144l-38 6-2.4 41.7 31 14.8 31.8-17.7z" fill="#a7890b"/></g><g fill-rule="evenodd"><path d="M126.2 255v50l41.7 23 41.6-23v-50L168 232z" fill="#8a7407"/><path d="M168 232v92l-41.7-23.2V255z" fill="#f0c610"/><path d="M168 232v92l41.6-23.2V255z" fill="#d1ac0e"/><path d="M209.6 270l-22.7-8-38.51056 28.93651L160.9 293.2l-19.7 4.4 43.2 17.2 25-14z" fill="#a7890b"/></g><g fill-rule="evenodd"><path d="M463 255v50l41.6 23 41.7-23v-50l-41.7-23z" fill="#8a7407"/><path d="M504.6 232v92L463 300.8V255z" fill="#f0c610"/><path d="M504.6 232v92l41.7-23.2V255z" fill="#d1ac0e"/><path d="M546.3 262.5l-21.7-6.8-35.4 12.3-3 36.3 28.3 14.2 31.8-17.7z" fill="#a7890b"/></g><g fill-rule="evenodd"><path d="M14.5 366.6v49.6L56 439.4l41.6-23.2v-49.6l-41.5-23z" fill="#5d0e48"/><path d="M56 343.5v92L14.6 412v-45.6z" fill="#942d74"/><path d="M56 343.5v92L97.7 412v-45.6z" fill="#812765"/><path d="M97.7 371.6l-43-9.3L52 366l-15.4-3-1 7.2-.5 15.2 12.4 4.7L47 407l-1 7.5-1.4 7.4L66 430l31.5-18z" fill="#68225a"/></g><g fill-rule="evenodd"><path d="M13.6 479v50l41.7 23L97 529v-50l-41.7-23z" fill="#8a7407"/><path d="M55.3 456v92l-41.6-23v-46z" fill="#f0c610"/><path d="M55.3 456v92L97 525v-46z" fill="#d1ac0e"/><path d="M97 488l-29.5-13-21 58.2 18.7 9.4L97 525z" fill="#a7890b"/></g><g fill-rule="evenodd"><path d="M126.6 479v49.7l41.8 23.2 41.7-23.3V479l-41.6-23.3z" fill="#124b70"/><path d="M168.4 455.7V548l-41.7-23.3V479z" fill="#2a7fb8"/><path d="M168.4 455.7V548l41.7-23.3V479z" fill="#256ea0"/><path d="M210 495.2L153.4 479l-7.2 15.2 41.3 43.2 22.8-12.7z" fill="#1e5980"/></g><g fill-rule="evenodd"><path d="M350.6 479v49.7l41.8 23.2 41.7-23.3V479l-41.6-23.3z" fill="#124b70"/><path d="M392.4 455.7V548l-41.7-23.3V479z" fill="#2a7fb8"/><path d="M392.4 455.7V548l41.7-23.3V479z" fill="#256ea0"/><path d="M434 484l-27.3-8.3-11.7 2-26 4 .8 30.5 19.7 21.5 14.2 8 30.4-17z" fill="#1e5980"/></g><g fill-rule="evenodd"><path d="M351 255.3v49.5l41.5 23 41.4-23v-49.5l-41.5-23z" fill="#22594f"/><path d="M392.5 232.3v91.5l-41.4-23v-45.5z" fill="#428c7d"/><path d="M392.5 232.3v91.5l41.4-23v-45.5z" fill="#3a7a6d"/><path d="M434 276l-42-17.7-19.7 38 33.2 20.3 28.4-15.8z" fill="#2e6157"/></g><g fill-rule="evenodd"><path d="M351.2 142.8v49.5l41.4 23 41.4-23v-49.5l-41.4-23z" fill="#22594f"/><path d="M392.6 119.8v91.5l-41.4-23v-45.5z" fill="#428c7d"/><path d="M392.6 119.8v91.5l41.4-23v-45.5z" fill="#3a7a6d"/><path d="M434 150l-33-11.2-18.8 58.3 20.3 9 31.5-17.7z" fill="#2e6157"/></g><g fill-rule="evenodd"><path d="M350.6 31v49.4l41.5 23 41.5-23V31L392.2 7.7z" fill="#22594f"/><path d="M392 7.8v91.6l-41.3-23V31z" fill="#428c7d"/><path d="M392 7.8v91.6l41.5-23V31z" fill="#3a7a6d"/><path d="M433.5 53.7l-52.4-22-2 21.5 12.5 23.2L412 88.2l21.5-11.8z" fill="#2e6157"/></g><g fill-rule="evenodd"><path d="M238.5 31v49.6l41.5 23 41.4-23V31L280 8z" fill="#22594f"/><path d="M280 8v91.7l-41.4-23V31z" fill="#428c7d"/><path d="M280 8v91.7l41.4-23V31z" fill="#3a7a6d"/><path d="M321.4 51.4L298 43l-30-11.7-3.5 29 15 18.7 20 9.8 22-12.2z" fill="#2e6157"/></g><g fill-rule="evenodd"><path d="M126.4 31v49.5l41.5 23 41.4-23V31L168 7.7z" fill="#587a38"/><path d="M168 7.8v91.8l-41.5-23V30.8z" fill="#9bcc5f"/><path d="M168 7.8v91.8l41.4-23V30.8z" fill="#87b153"/><path d="M209.4 42.6L168 26.3l-10.8 46.2-16 4.8L178 94l31.6-17.5z" fill="#6c8e42"/></g><g fill-rule="evenodd"><path d="M238.4 479v49.5l41.5 23 41.4-23V479L280 455.7z" fill="#587a38"/><path d="M280 455.8v91.7l-41.5-23V479z" fill="#9bcc5f"/><path d="M280 455.8v91.7l41.4-23V479z" fill="#87b153"/><path d="M321.4 487.8l-37.7-12-3.8 57 13 7.5 28.4-15.8z" fill="#6c8e42"/></g><path d="M14.3 31v49.7l41.6 23 41.5-23V31L56 7.8z" fill="#51757a" fill-rule="evenodd"/><path d="M56 7.8v92l-41.7-23V31z" fill="#89c0c7" fill-rule="evenodd"/><path d="M56 7.8v92l41.5-23V31z" fill="#77a7ad" fill-rule="evenodd"/><path d="M497.4 27.7c-.7 0-1.5 0-2.2.3-3 .8-6.2 2-8.3 4.5-1 1.3 0 2.7 1.3 3.2 3.6 2 7.8 2.3 11.7 3.2-5.3-.5-10.7-.7-16-.5-3 0-5.3 2.7-5 5.5 0 4-1 8.5 2.2 11.6v19.6c0 2 2 3.2 3.3 4.3H504V32.3l-1-1.6c-1.3-1.8-3.4-3-5.6-3zm-1.3 3.7c.7 0 1.3 0 1.7.3.5.2.8.6 1 1l.8 1.6.4 1.6c-1.4 0-2.8-.2-4-.4-.8 0-1.4-.3-2-.5-.7 0-1.3-.4-2-.8 0-.4.3-.8.6-1.2.2-.3.6-.5 1-.7.8-.5 1.7-.7 2.5-1z" fill="#f0fb92"/><path d="M509.6 27.8c-2.6.3-4.2 2.6-5.6 4.5v23h-13.2s13.2 1.4 13.2 10v14.2h18.4c2 0 4-2 4-4.2v-20c3-.2 2.3-7.4 2.2-11.3 0-4-1.2-5.2-3.8-5.4-5.4-.3-10.7 0-16 .3 3-.8 6.4-1.2 9.4-2.4 2-.5 3.4-1.8 3.8-3.8-3.4-3-7.8-5.5-12.4-5zm2.7 3.7c.6 0 1.2.2 1.7.5.5.2 1 .5 1.3 1 .4.3.7.7 1 1.3-1.3.5-2.6 1-4 1.2-1.2.3-2.6.5-4 .6l.7-2.5c0-.4.3-.8.6-1l1-1h1.7z" fill="#d1da7f"/><path d="M143.4 40.4c8-4.6 16-9.6 24-14h.6v17c-1 0-1.7.2-2.4.4-1 1-1.8 2-1.7 3.5 0 7.2-.2 14.5 0 21.7-.2 2.3 2 3.4 4 3.5h.5c-.3 1.5-.5 3-.6 4.7-9 0-18-.2-26.7 0l-1.4-1c0-1.5-.2-3 .5-4.4 1.8-.3 3.6-.3 5.4-.3V44c-1.7-.8-3.7-.4-5.5-.6.6-1.4 1.6-2.4 3-3z" fill="#408a7b"/><path d="M168 26.3c3 1.3 5.6 3 8.3 4.7 6.5 4 13.3 7.3 19.4 11.7-2 .6-3.8 1-5.7 1.3.2 9 0 18.3 0 27.4 2 .3 4-.2 5.8 1 .5 1.7.7 5.2-2.2 4.8H168c0-1.6.2-3.2.5-4.8 2 0 3.7-1.4 3.6-3.5 0-7.5.2-15 0-22.5 0-2.2-2.2-3-4-3V26.2z" fill="#38786b"/><path d="M155.4 43.7c2.3-.6 5.7 0 5.8 3V69c0 4.6-8.2 4.6-8 0-.2-7.2 0-14.4 0-21.7-.3-1.6.7-3.2 2.2-3.6z" fill="#fcde30"/><path d="M165.6 43.8l2.3-.4c1.8 0 4 1 4 3 .2 7.6 0 15 0 22.5.2 2-1.6 3.4-3.5 3.4h-.5V44.2c-.6 0-1.8 0-2.4-.2z" fill="#dbc02a"/><path d="M177 43.7c1.7-.2 3.8-.6 5 .8 1.2 1 1 3 1 4.5-.2 7 0 13.8-.2 20.8-.6 4-8 3.3-8-.8V47.4c-.2-1.6.8-3.2 2.3-3.7z" fill="#dcc12a"/><path d="M164 47.3c-.2-1.4.7-2.5 1.6-3.5l2.4.3v28.5c-2 0-4.2-1.2-4-3.5-.2-7.2 0-14.5 0-21.7z" fill="#fbdd30"/><path d="M259.2 37.4c.7-3.4 4-5.8 7.2-6.6 2.3-.2 3.3 2 4.4 3.5 1 2 2.6 4 3 6.5-.4 2.8-3.6 3.6-5 5.6-2.5 3-1.3 7 0 10.3 2.3 5 5.6 10.2 11.2 11.7 0 3.5.2 7-.5 10.6-7.3-4.4-12.3-11.7-16-19-3.7-7-6.4-14.8-4.3-22.6z" fill="#f2c40f"/><path d="M280 44c3-1 6.2-.7 8.3 2 1 5-4 7.2-7 10.2 2.7.3 5.7-.6 8 1.3-3 2.7-7.3 1-10.7 1.4l-1-1.6c.7-1.6 2-3 3.3-4.2 1.6-1.7 4.7-3.2 4.4-6-.8-1.6-2.6-2-4-1L280 49l-1.4.3c-.2-.4-.8-1-1-1.5.5-1.4 1.2-2.8 2.4-4z" fill="#e5e3e3"/><path d="M298 43c-2.5 1.5-3.8 4.2-5.6 6.4-1 1.6-2.7 3-3 5 1.5 2.2 4.8 1 7.2 1.3.3 1.2-.3 3.7 1.7 3.5 1.3-.6 1-2 1.2-3.3 1.2-.5 2-1 2.2-2.5l-2.3-.4v-8.8L298 43zm-1.4 4.4v5.8h-4c1-2 2.6-4 4-5.8z" fill="#ddd"/><path d="M280 68.4c3-.3 6.2-3.6 9-1.5 2.2 2.4 3.7 5.3 5 8.2.7 2.6-2 4.2-4 5.2-3.3 1.7-7.2.2-10.4-1.3.6-3.5.4-7 .4-10.6z" fill="#d3aa0d"/><path d="M374.7 34c1.2-2.5 4.2-2 6.4-2.2.7 5.5 1.6 11 2 16.5l-2.5 2c0 2 1 3.5 1.8 5 2.4 4.5 5.4 8.7 9 12.3l1 1c-.2 2.6-.4 5.2-.8 7.8-7.6-4-13.3-11-16.7-18.7-2.6-7.6-3.7-16.4 0-23.8z" fill="#fdd631"/><path d="M382.5 31.8l2.5.7c1 4 1.4 8.2 1.5 12.4 0 1.2-1.3 2-2 3-.7-5.4-1.2-10.8-2-16.2z" fill="#fed72f"/><path d="M397 66c2.5-2.6 6 .2 8.5 1.3 2.4 1.4 6.5 2.4 6 6-5-2.3-9.7-5-14.6-7.2z" fill="#d9b82b"/><path d="M392.3 68.5c1.4.2 2.6-.7 3.8-1.3 5 2.4 10 4.8 14.8 7.3-1 2-1.5 5.3-4.3 5.6-4.8.5-9.5-1-14-3-.2 0-.7-.4-1-.6.4-2.6.6-5.2.8-8z" fill="#ddba2b"/><path d="M490.6 141.8c2.7-4.7 8-7.3 13.4-7 0 1.8 0 3.6-.2 5.4l-2 1c-3 .8-5.8 2.8-6.5 6-.6 4 0 8-.2 12h9V172c-1.8.8-4.3 1.8-4.4 4.2-.4 2 1.2 3.4 2.2 5l-1.4 5.6 3.5.6v5h-18.6v-32.8c1 0 2.2-.2 3.2-.4.3-5.7-1.2-12 2-17.2z" fill="#f2c40f"/><path d="M504 134.8c1 0 2.2 0 3.3.2 4.8.6 8.7 4 11 8.2 1.7 5 1 10.6 1 16 1 0 2.2 0 3.3.2v32.8H504v-5l-3.6-.6h7.2l-1.4-5.7c1.2-1.7 3-3.6 2-5.8-.5-2-2.6-2.6-4.2-3.4v-12.5h9c-.2-4 .3-8-.3-12-1-4-5-6.4-9-6h-2l2-1 .3-5.5z" fill="#d3aa0d"/><path d="M67.6 149.6c1-1.5.7-3.4 2.7-3.3h4.3c2.2 0 2 1.3 3 3.4H82c1.5 0 2.3 1 2.3 2.2v32c0 3.2-2 6.2-5.3 6.2l-23 .2v-9.2c2.2 1.5 6 3 9.6 2.7 7-.6 13-7.3 12.7-14.4 0-7-6-13.2-12.7-13.8-3.5-.5-6.7 1-9.7 2.5v-8.6z" fill="#c9403a"/><path d="M27.3 155c0-2.8 2.6-5.3 5.4-5.2 7.8-.2 15.5 0 23.3 0v8.5c-3 1.8-4.5 4.5-5.3 7.5-1.8 5.6.4 12 5.2 15.4v9.2H30.8c-2 0-3.6-1.5-3.5-5.6V155z" fill="#e74a43"/><path d="M35.3 155.4c2.3-.8 4.8 1.5 4 3.8-.4 2.5-4 3.4-5.5 1.4-1.5-1.7-.6-4.6 1.5-5.2z" fill="#fefdfd"/><path d="M61.8 165c3.4-1.6 7.7 1.8 7 5.5-.5 3.6-5.2 5.5-8 3.2-3-2-2.5-7.4 1-8.6z" fill="#d0d97e"/><path d="M256 148c0-1.4.5-4 3.6-3.8H280v6h-18v35.3h18v6.4h-21c-1 0-2.8-1.4-3-3v-41z" fill="#ec341c"/><path d="M280 144h20c1.6 0 3.8 1.8 3.8 3.7v41.6c0 1.6-1.2 2.7-3 2.5-7 .2-14 0-20.8 0v-6.3h17.5v-35.3c-5.8-.2-11.7 0-17.5 0v-6z" fill="#ce2d18"/><path d="M286.3 157.4c2.6-1.6 6 1.8 4.3 4.4-3.2 4.5-7 8.5-10.4 13 0-3.2-.2-6.4-.6-9.6l.6-.7c2-2.3 3.8-5 6-7z" fill="#ddd"/><path d="M269 168c0-2 3-4 4.5-2.5l3.3 3.2c1-1.2 2-2.3 2.8-3.5.4 3.2.6 6.4.6 9.6l-.6 1c-.4.4-1 1.5-2.8 1.3-1.7-.2-4-3-5.3-4.5-1.4-1.4-2.8-2.5-2.6-4.5z" fill="#f9f9f9"/><g transform="scale(.8)"><circle cx="489.7" cy="210.1" r="38.1" fill="#9bcc5f" fill-rule="evenodd"/><path d="M527.8 210c0 21-17 38.2-38 38.2V172c21 0 38 17 38 38z" fill="#87b153" fill-rule="evenodd"/><path d="M464.4 214c0-3.2 4.3-5.6 6.8-3.3 4 3.4 7.4 7.6 11.4 11l7.2-7.3.5 12-.5.5c-2 1.7-3.6 3.8-5.8 5-2.3 1-4.3-.6-5.8-2l-11-11c-1.3-1.5-3-3-2.8-5z" fill="#fefefe"/><path d="M506 198c1.5-1.2 3-3 5-3.3 2.3 0 4.6 2 4.6 4.3.2 2-1.5 3.4-2.7 4.8l-23.3 23v-12.4l.8-.7L506 198z" fill="#ddd"/></g><path d="M160.3 147c-3.4 0-6.6.3-9.4 2.2-5 4-5.3 10.5-5.7 16-2.6 0-5-.2-7.6.4-1.2 1-1.4 2.5-2 3.8-1 3.3-2.5 6.4-3.4 9.8.2 1.3 1.5 1.8 2.5 2.5 2.5-.2 5-.2 7.6-.2.4-4.5 4.2-8.6 9-8 4 .4 6.5 4.2 7 8h9.6v-14.3c-1.2 0-2.4-.3-3.6-.4v-17l3.6-.2V147c-2.5.2-5 0-7.7 0zm-4.3 2.5l5.8.2v17h-13.5c.3-5-.5-10.6 2.7-15 1.3-1.6 3-2.2 5-2.2z" fill="#edc211"/><path d="M168 147c3.7.6 7.3 2 10 4.4 3 4.2 5.7 8.8 7 13.8 3 .2 6 0 9 0 1.7 0 3.4.2 5 .6 1.5 4.7 3.6 9 5.5 13.6-2.4 3.6-7.3 1.6-10.8 2-.6-3.5-2.7-7-6.5-7.7-4.8-1.2-9.3 3-9.4 7.7H168v-14.2c-1.2 0-2.4-.3-3.6-.4h18.2c-.7-5-3.2-9.2-6-13-2-3-5.2-4.2-8.6-4.2V147z" fill="#cfa90f"/><path d="M147.5 176.4c4.8-2.6 11 2.5 9.3 7.7-1 4.7-7.2 6.6-10.7 3.5-3.6-2.8-2.8-9.3 1.5-11z" fill="#333"/><path d="M182.7 176.4c4.8-2.6 11 2.5 9.3 7.7-1 4.7-7.3 6.7-10.7 3.5-3.7-3-3-9.3 1.4-11z" fill="#2c2c2c"/><path d="M27.4 259.5c5.8-10 17-16.4 28.6-16.5v3.3l-4 .7c-12.4 1.6-23 11.8-25 24-1.8 9.3 1.3 19.3 8 26 5 5.2 12 8.2 19.3 8.8.4 0 1.2.4 1.6.6v3c-5.8 0-11.4-1.6-16.6-4.2-3.5-2.5-7-5-9.6-8.6-8.3-10.4-9.3-25.8-2.4-37z" fill="#ecc011"/><path d="M56 243c10 0 19.6 4.8 26 12.5 5 6.7 8 15.2 7 23.6-.8 10.5-6.8 20.2-15.7 25.5-5 3.3-11.2 4.8-17.3 5v-3l-1.7-.7h1.5c14.7.4 28.3-11.8 29.6-26.5 1.6-13-7-26.5-19.3-30.8-3.2-1.2-6.6-1.7-10-1.7-1.4 0-2.8 0-4 .2l4-.7V243z" fill="#cea70f"/><path d="M55.7 257c-.5-2.8-1-6 .3-8.8.6 2.8 1.5 6.4-.3 9z" fill="#f9f9f9"/><path d="M280 254.6l-27.65-.05c.002 10.8856-2.4135 16.87868 8.85 20.85.94118 10.53511 6.33761 13.05578 14.5 15.9v2.4c-1.5 0-2.7147-.31412-4.5.4-1.7853.71412-1.5 3.6-1 5.4-3 0-6.476-.608-9.2.3-2.724.908-2 5 .4 6H280v-20l-2.5-.7c-5-1-9.3334-3.24432-9.5-8.9-.1666-5.65568-.2-10.98464-.2-15.1l12.2-.1zm-18.7 6.4v7.8c-4.36464-1.16593-4.17148-5.05581-4.2-7.8h4.3z" fill="#f0fb92"/><path d="M304 254.6h-24v6.4h11.5c0 4.4.0135 7.12155 0 13.3-.0135 6.17845-4.25701 11.66085-14 10.8l2.5.7v20h17.625c2.8-.6 3.1851-5.29712.375-6.1s-6-.2-9-.3c.30434-1.09892 1-3 0-4.3-1.7-2-4.6-1-6.8-1.2v-2.5c8.2-1 14.6-8 15.7-16 3.2-1 6.5-2.7 8.4-5.7 2.8-4 2-10.4 2-15zm-1.6 6.4c.27652 3.60703-1.52608 6.15642-4.4 7.8V261z" fill="#d1da7f"/><path d="M388 258.5c1.2-.8 2.7-1 4-.2v42c-5.8 0-11.6-.7-17-2.6-2-1-4.4-2-5.3-4-.3-3 0-5.8 0-8.7l-14.2-9.2c10.7-6 21.7-11.4 32.5-17.3z" fill="#f0c610"/><path d="M392 258.3c12 6 24.4 11.3 36.3 17.5-3.4 2-7.4 4-10.7 6.4 0 .8-.2 7 0 8.2.5 1 1.7 3.7.3 5-.7-.7-.7-.7-2-.8-.3-1.3-.5-2.8 1-4.3v-7.8c-1 .5-2.2 1.2-3 2-1.4 3.5 1.5 8.7-2.3 11.3-4.5 3-10.2 3.7-15.6 4.3-1.3.2-2.6.2-4 .3v-42z" fill="#d1ac0e"/><path d="M70 269.2c1.2-.6 2 0 2.4 1-5 2-10 3.2-14.8 5 .8.8 1.7 1.6 2.7 2 6 3 12.2 6 18.2 9.2l-1 1.6-18.6-9.3c-1-.5-2-.7-3-.8 0-2-.4-4 1.5-5 4.3-1 8.3-2.7 12.6-3.8z" fill="#e0e6e7"/><path d="M477.3 264c.3-4.5 4.5-8.5 9-8.5H504v15c-.5.2-1.3 0-1.7.3-3.5 1.4-1.8 6.7 1.8 6.4l.8-.2c-.3.2-.5.7-.8 1v13c-2 0-4.4-.2-5.4 1-4 4-8 8.2-12.3 12v-12.8c-2.4 0-4.4-1-5.8-2-1.4-1-2-1.7-2.8-4.7-.7-2.5-.5-5.4-.5-8V264z" fill="#6e4d44"/><path d="M504 255.4h17.7c3 0 5 .5 6.7 2.3 1.8 1.7 2.4 4 2.4 5v21c0 6.7-5.5 7.5-9.2 7.5H504v-13.8l.8-.4c1-.8 2.4-2 2.2-3.4 0-1.8-2-2-3-3z" fill="#60433b"/><path d="M490.7 271c2.3-1.6 5.7.7 5 3.4-.3 2.4-3.7 3.6-5.4 1.8-1.7-1.3-1.5-4.2.4-5.3z" fill="#efc510"/><path d="M502.3 270.8c.4-.2.5-.3 1.8-.3 1.4 0 3 1 3 3.2.2 2.3-1.2 3-2.2 3.3l-.7.2v-6l-1.7-.4zm11.4-.2c2.3-1 5 1.3 4.4 3.8-.2 2.7-4.3 3.7-5.8 1.4-1.4-1.7-.5-4.5 1.5-5.2z" fill="#cfaa0e"/><path d="M504 277.2c-3.5.3-5.2-5-1.7-6.4.4 0 1.3.4 1.7.5v6z" fill="#eec410"/><path d="M55.2 277.7c-2.6-.7-2-4.7.6-4.5l1.7-.2c-2 1-1.6 3-1.6 5l-.8-.3zM29 275.6c2.5 0 5.2-.4 7.7.4-2 2-5.3.7-8 1 .2-.4.2-1 .3-1.4zm46.4 0H83c0 .3-.4 1-.5 1.3-2.3 0-4.8.4-7-.3v-1zM138 262c10-.2 20 0 30 0v29.5h-15.2c-7.7069.20098-13.97085-5.66457-14.4-12.3-.2-5.7 0-11.5-.2-17.2z" fill="#f9f9f9"/><path d="M187 262h-19v29.5c4 0 8.5.5 12.2-1.7 2.6-1.4 4.4-3.8 5.8-6.3 3.4.5 7.3-.3 9.6-3 2.6-3 3.16931-7.31504 1.3-10.7-1.86931-3.38496-6-5-10-4.8v-3zm5.8 12.3c.0789 3.66425-2.90947 4.3-5.9 4.3V270c3.09933-.27822 5.8211.63575 5.9 4.3z" fill="#dedede"/><path d="M138 293.2h30c0 1.6 1.8 3.3 1.7 5h-24c-3-.3-7.8 0-7.7-5z" fill="#ec341c"/><path d="M168 293.2h19c0 2.5-.8 5-9 5h-10z" fill="#ce2d17"/><path d="M56 304c-1.4-3-1-6.3 0-9.2 1 3 .8 6 0 9z" fill="#f9f9f9"/><path d="M280.4 374c3.2-4 8-7 13.2-6.7 5 0 9.3 3 12.2 6.6 2.4 4 3.7 8.7 2.8 13.3-1 6-5.4 10.2-9.4 14.3-6 5.5-12.3 10.8-19 15.3l-.3-.3-.2-42 .6-.7z" fill="#ddba2b"/><path d="M255.7 372.5c3.4-3.8 9-5.7 14-4.6 4 .6 7.7 3.4 10 6.8l.4 42c-7.6-5.3-15.4-11.3-22-18-2-2.2-4.2-4.5-5.5-7.3-2.6-6.3-1.4-14 3.2-19z" fill="#fdd631"/><g><path d="M33 365c.8-1 2-3 3.5-2.2 2.2 1 1.2 4 1.5 6 2 .2 4.3.2 6.5.2v-6.7h10v18.3H56l.3 10.4c-.6 0-1.4 0-1.5.4-.4 10 0 20.3-.2 30.4h-10c-.2-9.5 0-18.8 0-28.2 0-1-.2-2-.4-2.8-2-2.3-1.5-6.2-1-7.6 0-.7.6-2.6 1.7-3v-.7h-7c0 2.4.4 5.4-1.6 6-2 1-5.3-4.5-7.7-7-1-1.6-3.3-3.4-2-5.5 1.7-3 4.2-5.4 6.2-8z" fill="#edc211"/><path d="M60.3 376.2c.7-2 3.3-2.3 5-1.4 4.2 1.7 8.2 3.8 12.3 5.6 3 1.2 7.3 2.7 8.3 4.3 1 1.6-.5 3.3-2 4-5.4 2.6-10.8 4.8-16 7.3-2 1-4.3 2-6.4 1-2-1.3-1.3-4-1.6-6h-4.6c.5-4 .5-7 .5-10.3h4c0-1.5 0-3 .3-4.5z" fill="#cfa90f"/></g><g><path d="M504.4 361c20.8 0 31.6 15 31.5 30.8 0 15.8-10.5 31-31.4 30.8-21 0-31.2-12.7-31-29.8 0-17.2 10-32 30.8-31.8z" fill="#408a7b"/><path d="M503 367.4c-3.5 0-6.6 3.4-6.5 7 0 1.8 1 3.3 1.8 4.7-6.2 1.8-10.8 7.8-10.7 14.3-1 .2-1.2 0-1.5 0 .3-1.3-1-3-1.8-3.2-1.4-.6-2.8 0-3 1.2 0 1.6 1.8 2.7 4 3-1.5 1.5-3.7 0-4 .4 0 .2 1 1 2 1 1.2 0 2.3-1 2.7-1.5h1.7c.2 1.3 1 2.5 1.6 3.6 0 3-.5 5.7 0 8.5.6 2 2.8 1.5 4.3 1.3 1.6-1 1.7-3 2.2-4.5 4.7 2 9.7 1.6 14.5.4.6 1.5 1 3.2 2.5 4 1.8.4 4.2.7 5.4-1 .2-1.6-1-3.2-1.5-4.7 2.6 0 6-1.7 6.8-2.5 1-.7 1.7-1.3 2.2-2.3 0-.3-1 .5-1.3 0-.4-.6.4-.4 1.2-.4h3.5c.6-2.3.6-4.6.4-7 0-.5-1.3-.6-1.5.4-.8 0-1.6-.3-2-.5-.3-3.3-4-5.8-7.6-6 .3-1.3 1-2.8-.2-3.7-2.4-1-4.5 1.2-6 2.6l-4.2-2.3c1-1.6 2.5-2.8 2.6-5.7 0-3-3.6-7-7.5-6.6zm-19.3 23.4c.4.2 1 .7 1.2 1 .3.7.3 1.2.3 1.6l-1-.2c-.4 0-.8-.3-1.2-.5l-.7-1v-.4c0-.2 0-.4.2-.6.3-.2.7-.2 1.2 0z" fill="#f2c40f"/><path d="M500 371.2c2-2.6 6.4-2 7.7 1 1.8 3.2-2.6 7.4-6 6.4-3.3-1-4-5.3-1.7-7.4z" fill="#3c8776"/><path d="M501.6 370.2c1.8 0 5.4-.2 5 2.6 0 1-1 2-3.7 2l-.2.6h2c0 .3 0 .8-.3.8h-1.8v2.2l-1.5-.2c0-3.2.2-5 .4-8z" fill="#e0e1c4"/><path d="M503 371.4c3.5-.4 3.3 2.7 0 2.7v-2.6z" fill="#5d9987"/><path d="M503.7 381.7c2.4 0 6.4 1 5.7 2.3-.7 1.4-2.8-.4-5.4-.4-2.5 0-5.4 1.8-6 .4-.6-1.3 3.2-2.3 5.7-2.3z" fill="#32847f"/><path d="M521.8 389c1.4 0 1.2 2-.2 2-1.3 0-1.2-2.2.2-2z" fill="#428c7d"/></g><g><path d="M363.6 373c0-2 5-1.5 7.5-1.5v12.3h-5.4c-1.2 0-2-.6-2-2.2z" fill="#333"/><path d="M372.6 371.5c6.5-.3 13 0 19.3-.2v12.5h-19.2c0-4 0-8.2-.2-12.3z" fill="#e74a43"/><path d="M392 371.3h25.6c1.2-.2 2 .5 2.7 1.4 0 3.2.3 6.4 0 9.7-.4 1.5-2.2 1.4-3.4 1.4h-25v-12.5z" fill="#c9403a"/><path d="M363.7 387.8c0-1.6 1.8-2 3-2h4.2v12.4h-5.5c-1 0-1.8-.5-1.8-2.2z" fill="#333"/><path d="M372.8 385.8H392v12.4h-19.2c-.2-4 0-8.3 0-12.4z" fill="#e74a43"/><path d="M392 385.8h24.8c1.2 0 3-.3 3.4 1.4.3 3.2.3 6.4 0 9.6 0 1.3-1.6 1.4-2.5 1.4H392v-12.4z" fill="#c9403a"/><path d="M363.5 402c0-2 1.6-1.6 3-1.7h4.4v12.3h-5.7c-.7 0-1.6-.6-1.6-2.2z" fill="#333"/><path d="M372.8 400.2H392v12.5h-19.2v-12.5z" fill="#e74a43"/><path d="M392 400.2h24.8c1.2 0 3-.2 3.4 1.5.3 3.4.4 7 0 10.2-1.2 1-2.8.6-4.2.7h-24v-12.5z" fill="#c9403a"/></g><g><path d="M153.5 365c4 0 8.2.8 10.6 4.3.7-1.8 2.2-2.69116 3.9-2.99116l.2.79116-.2 52.1c-5.4-.2-10.5-2.2-15.5-4.2-2.4-1.6-5.2-3-6.3-6-1.6-3.8-.7-8.2.5-12 2.5-7.3 6.7-14 11.2-20.3-1-3.2-2.3-6.2-4-9-.3-1-1.4-2-.5-2.8z" fill="#408a7b"/><path d="M171.2 368.7c2.4-1 4.7-2.4 7-3.6.7 1.8 1.6 3.6 2 5.4.2 2.4-1.3 4.5-2.3 6.6 7.6 5 11.6 14 12.6 23 .3 4.5-.2 10-4 13-5.5 3.8-11.9 5.8-18.5 6.1l.2-52.1c1 .6 1.8 1.6 3 1.7z" fill="#38786b"/><path d="M168.13768 383.33527l-.0258 6.70964s-2.00969.0997-2.21191 1.40509c-.20222 1.30532 2.19741 2.37376 2.19741 2.37376l-.0188 4.8999c-3-1.2-7.1786-2.82366-6.8786-6.72366 0-3 2.8-4.5 5.3-5.4l-.12623-3.2347c.72482-.0131 1.04297-.0201 1.76393-.03z" fill="#eec510"/><path d="M168.13768 383.33527l1.36866-.005.69366 3.26986 4.3 1.2-1 3.4c-2-.5-3.38812-1.15509-5.38812-1.15509z" fill="#cfab0d"/><path d="M173 396.5c2.5 2 2.2 6.4-.3 8.2-1 .8-2.25858 1.80104-4.09497 1.97678l-.56743 2.71698-.00035-6.67687c.32668-.0389 1.66165-.15479 1.98775-1.61689.24705-1.10763-.86356-1.87079-1.9464-2.37634l.0188-4.8999c1.66494.91181 3.402 1.56038 4.9026 2.67624z" fill="#d0ab0e"/><path d="M161.6 401.2s2.90428 1.20718 4 1.4 2.43725.11689 2.43725.11689l.00035 6.67682L165.8 409.2v-2.7l-5.3-1.6 1-3.8z" fill="#efc510"/></g><g><path d="M280 481.49829V513.1c-9.76637-.0384-16.22324-7.4928-16.23168-16.00315-.008-8.51034 7.17268-15.62333 16.23168-15.59856z" fill="#f0c610"/><path d="M257.8 500c-1.6-11 6.8-22.2 17.7-24l4.3 1.2v3.3l1 1h-.8c-10.61218.41808-16.01204 7.98783-16.22204 16.14962-.21001 8.16178 8.7097 14.11214 12.5347 15.06214L279.8 514.9l.2 15.3-1.6 1.8c-5-3-8.6-8-12-12.8-3.8-5.8-7.5-12-8.6-19z" fill="#333"/><path d="M280 481.5c7.13137-.0828 12.85 4.075 15.15 9.775 2.3 5 1.16957 11.53544-2.53043 16.03544-3 3.6-6.29322 5.54814-12.61957 5.78956z" fill="#d1ac0e"/><path d="M275.5 476c1.5-.4 3-.5 4.5-.6 6.7 0 12.8 3.2 17.4 8 3 4.3 5.3 9.5 5 15-.5 7.5-4.4 14.3-8.3 20.5-3.7 5.3-7.7 11.3-14 14l-1.7-.9 1.575-1.825-.1875-15.2625-3.47484-2.20074c2.19679.29859 4.62579.61079 7.70359-.16739 3.0778-.77818 5.60916-1.70257 8.78375-5.44437 3.7-4.4 4.6-10.8 2.3-16-2.4-5.6-8.2-9.4-14.3-9.6l-1-1-.0159-3.27813z" fill="#2c2c2c"/></g><g><path d="M372 477.2c6.4-2.2 13.2-3.2 20-3.2v6l-4 .7c-5 .5-10 1.2-14.6 3-2 1.3-1.5 4-1.6 6 .2 6.3-.2 12.7.2 19 .3 4 3.3 6.8 6 9.3 3.7 3.7 7.6 7.3 12.4 9.3l1.5.8v5.6h-2.5c-2.8-.4-5.2-2-7.6-3.3-4.4-3.5-8.6-7-12.3-11.2-3-3.2-4.4-7.5-4.2-11.8v-20.8c-.2-4 2.7-8 6.5-9.2z" fill="#fec06e"/><path d="M392 474c2 0 3.8 0 5.7.2 5 .6 10 1.5 14.5 3.2 2 .7 3.5 2.5 5 4 1.3 3.4 1 7 1 10.6v16.8c0 5-2.7 9.5-6.3 12.7-5.8 5.3-11.7 12-20 12.6-1 0-1.7 0-2.5-.3h2.5V528c-.4 0-1.2-.5-1.6-.7 2 .2 4.3 0 6-1.3 4.8-2.8 8.6-7 12.4-10.8 2-2 3-5 3-8v-20c0-1.6-.6-3.3-2.2-3.8-7-2.4-14.4-3-21.7-2.7l4-.6v-6z" fill="#dda760"/><path d="M386.7 482.2v-.2h5.3c5.7 0 11.5.8 17 2.6 1 .2 1.4 1.5 1.3 2.5v21c0 2.8-1.2 5.3-3.2 7-3.5 3.7-7 7.5-11.5 10-1.5 1-3.3 1-5 1l1.6-.4c0-1.3-.2-2.6-.4-4l.4.2c4-1.5 7-5 10-7.7 1.7-1.7 4-3.3 4-6 .3-6.6 0-13.2.2-19.8-4.6-1.2-9.4-2-14.2-2h-3.3c1 0 2.2-.3 3.3-.6l-.2-2.8c-1.6.2-1.5 0-3 0l-2-.6z" fill="#dca760"/><path d="M374 485.2c3.8-2 9.7-3 12.5-3 1.4-.3 4-.3 5.5-.2v4.2h-3.3c-3.7.4-7.3 1-11 2v17.4c0 2 0 4 1.5 5.5 3.8 4 7.6 8 12.4 10.7l.5 4-1.5.3c-4.4-2-7.8-5.3-11.2-8.5-2.2-2.3-5-4.4-5.5-7.7-.3-4 0-8.2 0-12.2s-.6-8.4.3-12.4z" fill="#fdc06e"/><path d="M392.4 499c1.4-1.7 2.6-3.6 4.4-4.7 3-1.4 6 2.4 4 5l-8.6 10.4c0-3.2 0-6.4-.7-9.5.3-.5.6-1 1-1.2z" fill="#ddd"/><path d="M384 505.8c-2.2-1.8-1-5.5 1.7-5.6 1.7-.4 3 1.2 4 2 .5-.4 1.4-1.5 1.8-2 .7 3 .6 6.3.7 9.5l-.5.5c-3.5 1.7-5.8-2.3-7.8-4.4z" fill="#fff"/></g><g><path d="M35 481.3c5-5 11.6-7.8 18.5-8.6 10.5-1 22.5 5 27.7 11.8 5.2 7 6.4 12.5 6.2 19.5 0 8.4-2.3 16-8.8 22-6.5 6.3-15.7 8.6-23.4 9-7.7 0-16.7-5.2-20.8-8.8-5.8-5.4-8.5-12.7-9-20.6-.5-9 3-18 9.5-24.3z" fill="#6e4d44"/><path d="M48.5 486.4c0-3.7 3-7 6.7-7 3.8-.3 7.3 3.2 7 7 .2 2-1 3.7-2 5.3l4 2.4c1.5-1.4 4-3.7 6.3-2.7 0 1.3-.5 2.3-.4 3.6 4.7.6 6.4 2.2 7.8 5.3 0 .4.5 1.7 1 1.7.2 0 1 .4 1.2 0 0-.2 1-.2 1 0 .3.3.4.6.3 1 .2 2 0 4.4-.5 6.5-2 .8-3.7-.3-5 1-2 1.8-4.5 3-7 3 .5 1.6 1.5 3 1.4 4.8-1.2 1.6-3.6 1.4-5.4 1-1.4-1-2-2.6-2.5-4-4.8 1-9.8 1.4-14.4-.4-.7 1.4-.8 3.4-2.4 4.4-1.5 0-3.7.5-4.4-1.3-.5-2.7.3-5.5 0-8.3-.3-.7-1.5-2.5-1.5-3.7l-1.7.2c-.8 2.2-3.5 2.7-4.4.8 1.4.5 2.8.4 3.3-1-1.6.2-3.7-.6-3.8-2.8 0-2.3 4.8-1 4.7 2 .5.2 1 .2 1.7-.4-1-6.7 5-12 10.6-13.7-.8-1.4-1.8-3-1.8-4.6z" fill="#f2c40f"/><path d="M53.2 482.2c3.3-2.2 8 1.4 6.8 5-.6 3-4.5 5-7 3-3-1.6-3-6.5.2-8z" fill="#6b493e"/><path d="M53.5 482.3c1.7 0 4.6-.5 5 1.7.7 2-1.5 3-3.2 3v.5H57v1c-1 .2-2 1-2.8 1.8l-1.3-1.7V486c.4-1.2.5-2.5.5-3.7z" fill="#e6ddc0"/><path d="M55.4 483.5c1-.8 2.2 1.2 1.2 2-1.3 1-2.4-1.3-1.2-2z" fill="#60433b"/><path d="M53 494c2-.7 4.4-.6 6.4.2.8.4 3 1.7 1.3 2.5-2-.2-3.5-1.4-5.5-1-1.6 0-3 1.2-4.7 1-1.2-1.6 1.4-2.5 2.5-2.8z" fill="#644345"/><path d="M73.2 500.2c1-.6 2.3 1 1 2-1.3.7-2-1.4-1-2z" fill="#6e4d44"/><path d="M34.3 503c.8-.8 3 1 2.7 2.3-1.4.4-3.6-1.6-2.7-2.3z" fill="#a98745"/></g><g><path d="M149.7 479.4c2.6-1 5.6-.3 7.5 1.7l10.5 10.5.3.3-.2 3c-3.6-3.7-7-7.3-10.7-10.8l-1.7 1.8c4.2 4.3 8.5 8.4 12.6 12.7l.2.3c0 .6-.3 1.8-.5 2.4l-14-14c-.7 1-1.6 1.8-2.4 2.6l16.7 16.7.2.3c0 .6-.3 1.8-.5 2.4l-18-18c-.2.8-2 1.7-1.2 2.5l18.7 18.7 1 1.2c0 .4-.6 1.4-1 2-7.5-7.8-15.3-15.4-22.8-23.2-4-4.8.6-11 5.3-13z" fill="#e74a43"/><path d="M168 491.8c6.2 6.4 12.8 12.4 18.7 19 1 4 2.6 7.7 4 11.6l-4.3 4.3c-4-1.4-7.7-3-11.7-4-2.3-2-4.4-4.2-6.5-6.3l-1-1c.4-.4 1-1.4 1-1.8l7.3 7 2-1.6-8.6-8.6-1.3-1.2.5-2.4 10.6 10.6 2.6-2.4-13.3-13.4-.3-.4.5-2.4 14.7 14.6 1.7-1.7c-5.4-5.6-11-11-16.5-16.6l-.4-.3.2-3z" fill="#c9403a"/><path d="M191 523.4c.8 1.7 1.5 3.7 2 5.6-1.8-.6-3.7-1.2-5.5-2l3.4-3.6z" fill="#bd413e"/></g><g><path d="M97.5 44.7l-25-16.4-4.6 3.2-2.4-.4-31.8 22.5-4 .6 1.8 18 34 22.4 32-17.7z" fill="#60868a" fill-rule="evenodd"/><path d="M68 30c.4-1.4 2.5-2.2 4.3-1.7 1.7.3 2.3 2 3 3.4 3 10.8 6.5 21.4 9.7 32 1 2.7-1.8 5.7-4.4 4.7-2-.5-2.4-2.6-3-4.2-2.3-8-5-16.2-7.3-24.3-1-3.3-2.8-8.7-2.4-10z" fill="#ddd"/><path d="M56 37.4l9.6-6.4c.2 1.7.5 3.5 1 5l9 29c.3 1.8 1.3 3.2 2.4 4.5-7.5 0-15 .8-22.3 1H52c1.3-.6 2.5-1.4 3.6-2.2V44c0-2-.2-4-.8-6 .3 0 .8-.4 1-.6z" fill="#2c2c2c"/><path d="M33 52.3L54.8 38c.6 2 1 4 1 6-.3 8.2-.2 16.2-.2 24.3-1 .8-2.3 1.6-3.5 2.3-4.7.5-9.6.6-14.5.7-1.7-6-3.8-12-5.5-18.3l1-.7z" fill="#333"/><path d="M26.6 56.6c-.4-1.5 2.2-2.5 3.6-2.8l5.5 17.8c-1.5.6-4 1.2-4.2.3z" fill="#fefefe"/><path d="M44.5 72h4l.2 3c2.4.2 4.7.2 7 .2V79H48c-3.2-1-3.8-4.3-3.7-7.2z" fill="#fcfdfd"/><path d="M64 72h4c0 2.5.4 5.5-2 6.7-2.6.7-8.5.5-10 .6h-7.8c2.5 0 5-.2 7.4-.4 0-1.3 0-2.6.2-3.8l8-.2c0-1 0-1.8.2-3z" fill="#dcdcdd"/></g></svg>