<?xml version="1.0" encoding="UTF-8" standalone="no"?>
<svg
   xmlns:dc="http://purl.org/dc/elements/1.1/"
   xmlns:cc="http://creativecommons.org/ns#"
   xmlns:rdf="http://www.w3.org/1999/02/22-rdf-syntax-ns#"
   xmlns:svg="http://www.w3.org/2000/svg"
   xmlns="http://www.w3.org/2000/svg"
   xmlns:sodipodi="http://sodipodi.sourceforge.net/DTD/sodipodi-0.dtd"
   xmlns:inkscape="http://www.inkscape.org/namespaces/inkscape"
   width="240"
   height="160"
   viewBox="0 0 192 128"
   version="1.1"
   id="svg2"
   inkscape:version="0.91 r13725"
   sodipodi:docname="spritesheet_60.svg">
  <metadata
     id="metadata594">
    <rdf:RDF>
      <cc:Work
         rdf:about="">
        <dc:format>image/svg+xml</dc:format>
        <dc:type
           rdf:resource="http://purl.org/dc/dcmitype/StillImage" />
        <dc:title></dc:title>
      </cc:Work>
    </rdf:RDF>
  </metadata>
  <defs
     id="defs592" />
  <sodipodi:namedview
     pagecolor="#ffffff"
     bordercolor="#666666"
     borderopacity="1"
     objecttolerance="10"
     gridtolerance="10"
     guidetolerance="10"
     inkscape:pageopacity="0"
     inkscape:pageshadow="2"
     inkscape:window-width="1920"
     inkscape:window-height="1017"
     id="namedview590"
     showgrid="false"
     inkscape:object-nodes="true"
     showguides="true"
     inkscape:snap-intersection-paths="true"
     inkscape:snap-bbox="true"
     inkscape:object-paths="true"
     inkscape:zoom="1"
     inkscape:cx="-147.22882"
     inkscape:cy="266.27405"
     inkscape:window-x="-8"
     inkscape:window-y="-8"
     inkscape:window-maximized="1"
     inkscape:current-layer="layer3"
     units="px"
     fit-margin-top="0"
     fit-margin-left="0"
     fit-margin-right="0"
     fit-margin-bottom="0"
     inkscape:guide-bbox="true" />
  <g
     inkscape:groupmode="layer"
     id="layer3"
     inkscape:label="distrib 1"
     style="display:inline"
     transform="translate(488.7522,-717.94684)">
    <g
       transform="matrix(0.40009619,0,0,0.40009619,-644.95124,785.83243)"
       id="g8344">
      <g
         transform="matrix(0.99982464,0,0,0.99982464,257.8045,-736.13428)"
         id="g7097">
        <path
           sodipodi:nodetypes="ccccccc"
           inkscape:connector-curvature="0"
           style="opacity:1;fill:#862b1f;fill-opacity:1;fill-rule:evenodd;stroke:none;stroke-width:0.1;stroke-miterlimit:4;stroke-dasharray:none;stroke-opacity:1"
           d="m 298.06934,598.85332 0.0713,62.12324 51.97657,28.92969 51.97461,-28.92969 0.0688,-62.12324 -52.04562,-28.93847 z"
           transform="translate(22.047245,176.18111)"
           id="path7099" />
        <path
           style="opacity:1;fill:#e45141;fill-opacity:1;fill-rule:evenodd;stroke:none;stroke-width:0.1;stroke-miterlimit:4;stroke-dasharray:none;stroke-opacity:1"
           d="m 372.16362,746.09517 0,114.97378 -51.97504,-28.929 -0.072,-57.10552 z"
           id="path7101"
           inkscape:connector-curvature="0"
           sodipodi:nodetypes="ccccc" />
        <path
           sodipodi:nodetypes="ccccc"
           inkscape:connector-curvature="0"
           id="path7103"
           d="m 372.16078,746.09517 0,114.97378 51.97504,-28.929 0.072,-57.10552 z"
           style="opacity:1;fill:#c74639;fill-opacity:1;fill-rule:evenodd;stroke:none;stroke-width:0.1;stroke-miterlimit:4;stroke-dasharray:none;stroke-opacity:1" />
        <path
           sodipodi:nodetypes="ccccccc"
           style="opacity:1;fill:#9f392d;fill-opacity:1;fill-rule:evenodd;stroke:none;stroke-width:1px;stroke-linecap:butt;stroke-linejoin:miter;stroke-opacity:1"
           d="m 424.17164,796.94175 -29.44732,-19.67112 -20.02904,6.55342 -26.81845,51.8162 36.62667,18.55882 39.63232,-22.05912 z"
           id="path7105"
           inkscape:connector-curvature="0" />
      </g>
      <path
         id="path26-6"
         d="m 621.775,34.6375 c -0.92016,-0.03828 -1.855,0.06969 -2.775,0.342187 -3.8,1.01 -7.80938,2.57 -10.40938,5.65 -1.22,1.56 0.23969,3.340626 1.72969,3.990626 4.55,2.36 9.74907,2.819374 14.68907,3.959374 -6.67,-0.44 -13.35969,-0.659687 -20.02969,-0.429687 -3.56,-0.11 -6.64,3.32 -6.25,6.85 0.08,4.91 -1.11031,10.600625 2.77969,14.440625 0.13,8.17 -0.10876,16.348751 0.0812,24.518751 -0.23,2.63 2.24969,4.01 4.02969,5.4 8.13,0.1 16.25907,0.01128 24.38907,0.03128 -0.05,-19.659999 -0.11876,-39.310937 -0.0187,-58.960937 C 629.72062,39.919687 629.18,38.91 628.9,38.4 c -1.7325,-2.22 -4.36453,-3.647656 -7.125,-3.7625 z m -1.65469,4.653125 c 0.81251,-0.125 1.47953,0.01156 2.03282,0.325 0.55328,0.313437 0.99281,0.803125 1.34843,1.384375 0.35562,0.58125 0.62734,1.254375 0.84688,1.932813 0.21953,0.678437 0.38625,1.362187 0.53125,1.967187 -1.665,-0.03 -3.36687,-0.108125 -5.01563,-0.403125 -0.82437,-0.1475 -1.63578,-0.349062 -2.42188,-0.626562 -0.78608,-0.2775 -1.54687,-0.629688 -2.27187,-1.079688 0.0125,-0.595 0.20938,-1.08375 0.52813,-1.4875 0.31874,-0.40375 0.75874,-0.722812 1.25625,-0.982812 0.995,-0.52 2.22062,-0.799688 3.16562,-1.029688 z"
         style="display:inline;fill:#f0fb92"
         inkscape:connector-curvature="0" />
      <path
         sodipodi:nodetypes="scccccccczcccccssscscsscss"
         inkscape:connector-curvature="0"
         id="path28-5"
         d="m 637,34.770313 c -3.27,0.38 -5.25938,3.199374 -7.00938,5.659374 l 0.005,28.740235 -16.49532,0.140234 c 0,0 16.52036,1.570212 16.50468,12.440236 l 0.005,17.640232 c 7.65,-0.07 15.31,0.149688 22.95,-0.07032 2.72,0.01 5.11125,-2.510624 4.93125,-5.240624 0.13,-8.26 0.0897,-16.530001 0.22969,-24.800001 3.6,-0.45 2.73014,-9.379072 2.67031,-14.289062 -0.0598,-4.909991 -1.56093,-6.510312 -4.81093,-6.770312 -6.69,-0.34 -13.40907,-0.129688 -20.08907,0.370312 3.98,-0.87 8.06938,-1.4 11.90938,-2.85 2.33,-0.66 4.15937,-2.300625 4.65937,-4.740625 -4.26,-3.64 -9.64937,-6.849687 -15.45937,-6.229687 z m 3.42969,4.621874 c 0.69906,0.07797 1.39469,0.261563 2.03593,0.548438 0.64125,0.286875 1.22844,0.676406 1.71251,1.165625 0.48405,0.489219 0.86469,1.079063 1.09218,1.764063 -1.555,0.68 -3.16844,1.177812 -4.81093,1.545312 -1.64251,0.3675 -3.31407,0.604062 -4.98907,0.764062 0.195,-1.04 0.35656,-2.225312 0.75156,-3.270312 0.19751,-0.5225 0.45313,-1.009688 0.8,-1.426562 0.34688,-0.416875 0.78595,-0.763126 1.34844,-1.003126 0.65751,-0.1375 1.36031,-0.165469 2.05938,-0.0875 z"
         style="display:inline;fill:#d1da7f" />
    </g>
    <g
       transform="matrix(0.40177678,0,0,0.40177678,-654.04588,721.77115)"
       id="g8320">
      <g
         id="g7277"
         transform="matrix(0.99564248,0,0,0.99564248,119.58834,-733.06719)">
        <path
           id="path7279"
           transform="translate(22.047245,176.18111)"
           d="m 298.06934,598.85332 0.0713,62.12324 51.97657,28.92969 51.97461,-28.92969 0.0688,-62.12324 -52.04562,-28.93847 z"
           style="opacity:1;fill:#22594f;fill-opacity:1;fill-rule:evenodd;stroke:none;stroke-width:0.1;stroke-miterlimit:4;stroke-dasharray:none;stroke-opacity:1"
           inkscape:connector-curvature="0"
           sodipodi:nodetypes="ccccccc" />
        <path
           sodipodi:nodetypes="ccccc"
           inkscape:connector-curvature="0"
           id="path7281"
           d="m 372.16362,746.09517 0,114.97378 -51.97504,-28.929 -0.072,-57.10552 z"
           style="opacity:1;fill:#428c7d;fill-opacity:1;fill-rule:evenodd;stroke:none;stroke-width:0.1;stroke-miterlimit:4;stroke-dasharray:none;stroke-opacity:1" />
        <path
           style="opacity:1;fill:#3a7a6d;fill-opacity:1;fill-rule:evenodd;stroke:none;stroke-width:0.1;stroke-miterlimit:4;stroke-dasharray:none;stroke-opacity:1"
           d="m 372.16078,746.09517 0,114.97378 51.97504,-28.929 0.072,-57.10552 z"
           id="path7283"
           inkscape:connector-curvature="0"
           sodipodi:nodetypes="ccccc" />
        <path
           inkscape:connector-curvature="0"
           id="path7285"
           d="m 424.17164,803.73117 -60.95727,-26.70809 -2.87127,0.66636 -1.93968,-1.52006 -2.74,26.92066 16.49735,29.52732 25.09831,14.45064 26.87674,-14.92805 z"
           style="opacity:1;fill:#2e6157;fill-opacity:1;fill-rule:evenodd;stroke:none;stroke-width:1px;stroke-linecap:butt;stroke-linejoin:miter;stroke-opacity:1"
           sodipodi:nodetypes="ccccccccc" />
      </g>
      <path
         id="path42-9"
         d="m 468.33,42.33 c 1.49,-2.98 5.34,-2.36 8.1,-2.61 0.71,6.89 1.82,13.74 2.38,20.65 -1.08,0.82 -2.19,1.61 -3.13,2.58 -0.08,2.27 1.17,4.29 2.14,6.25 3.1,5.54 6.77,10.81 11.33,15.25 l 0.98025,0.966661 0,10.506836 C 480.60025,90.973497 472.75,81.83 468.56,72.07 465.22,62.62 463.91,51.66 468.33,42.33 Z"
         style="display:inline;fill:#fdd631"
         inkscape:connector-curvature="0"
         sodipodi:nodetypes="cccccccccc" />
      <path
         id="path46-7"
         d="m 478.17,39.77 c 1.02,0.22 2.04,0.49 3.05,0.8 1.26,5.06 1.81,10.29 1.9,15.5 0.13,1.67 -1.56,2.67 -2.35,3.91 -1.08,-6.7 -1.7,-13.47 -2.6,-20.21 z"
         style="display:inline;fill:#fed72f"
         inkscape:connector-curvature="0" />
      <path
         id="path84-5"
         d="m 496.15,82.59 c 3.24,-3.34 7.45,0.22 10.76,1.55 2.97,1.77 8.15,2.99 7.58,7.4 -6.23,-2.74 -12.19,-6.04 -18.34,-8.95 z"
         style="display:inline;fill:#d9b82b"
         inkscape:connector-curvature="0" />
      <path
         id="path88-1"
         d="m 490.39,85.587776 c 1.63773,0.205536 3.21,-0.817776 4.68,-1.617776 6.18,3.01 12.34,6.06 18.49,9.14 -1.25,2.6 -1.99,6.6 -5.47,6.96 -6,0.54 -11.71645,-1.596718 -17.18551,-3.70072 -0.27794,-0.106927 -0.77424,-0.445783 -0.77424,-0.445783 l 0,-10.506836 c 0,0 0.15687,0.158204 0.25975,0.171115 z"
         style="display:inline;fill:#ddba2b"
         inkscape:connector-curvature="0"
         sodipodi:nodetypes="acccacca" />
    </g>
    <g
       id="g7157"
       transform="matrix(0.40002603,0,0,0.40002603,-541.80463,427.24177)">
      <path
         id="path7159"
         transform="translate(22.047245,176.18111)"
         d="m 298.06934,598.85332 0.0713,62.12324 51.97657,28.92969 51.97461,-28.92969 0.0688,-62.12324 -52.04562,-28.93847 z"
         style="opacity:1;fill:#8a7407;fill-opacity:1;fill-rule:evenodd;stroke:none;stroke-width:0.1;stroke-miterlimit:4;stroke-dasharray:none;stroke-opacity:1"
         inkscape:connector-curvature="0"
         sodipodi:nodetypes="ccccccc" />
      <path
         sodipodi:nodetypes="ccccc"
         inkscape:connector-curvature="0"
         id="path7161"
         d="m 372.16362,746.09517 0,114.97378 -51.97504,-28.929 -0.072,-57.10552 z"
         style="opacity:1;fill:#f0c610;fill-opacity:1;fill-rule:evenodd;stroke:none;stroke-width:0.1;stroke-miterlimit:4;stroke-dasharray:none;stroke-opacity:1" />
      <path
         style="opacity:1;fill:#d1ac0e;fill-opacity:1;fill-rule:evenodd;stroke:none;stroke-width:0.1;stroke-miterlimit:4;stroke-dasharray:none;stroke-opacity:1"
         d="m 372.16078,746.09517 0,114.97378 51.97504,-28.929 0.072,-57.10552 z"
         id="path7163"
         inkscape:connector-curvature="0"
         sodipodi:nodetypes="ccccc" />
      <path
         inkscape:connector-curvature="0"
         id="path7165"
         d="m 424.18774,790.95738 -27.37938,-11.42086 -33.47901,15.09648 -23.10028,38.24903 44.27443,21.31704 39.63232,-22.05912 z"
         style="opacity:1;fill:#a7890b;fill-opacity:1;fill-rule:evenodd;stroke:none;stroke-width:1px;stroke-linecap:butt;stroke-linejoin:miter;stroke-opacity:1"
         sodipodi:nodetypes="ccccccc" />
    </g>
    <path
       inkscape:connector-curvature="0"
       style="display:inline;fill:#c9403a"
       d="m -387.14062,740.5263 c 0.4511,-0.71857 0.31624,-1.66591 1.33821,-1.65393 0.57287,-0.004 1.40086,-8e-4 2.14596,0.004 1.10613,0.007 1.04833,0.6534 1.42574,1.68663 l 2.24147,4e-4 c 0.78214,2e-4 1.17691,0.53222 1.19145,1.13949 l 0.009,16.01303 c 0.0252,1.57626 -1.04501,3.09446 -2.6618,3.08648 l -11.51407,0.0673 -0.0431,-4.55267 c 1.16231,0.72256 3.13059,1.4891 4.86556,1.33905 3.55294,-0.23953 6.52704,-3.59287 6.32344,-7.14981 0.0559,-3.48908 -2.9222,-6.57894 -6.35538,-6.87036 -1.70462,-0.24352 -3.32939,0.46308 -4.80646,1.23355 l 0.0199,-4.27951 z"
       id="path170-1"
       sodipodi:nodetypes="ccscsccccccccccc" />
    <path
       inkscape:connector-curvature="0"
       style="display:inline;fill:#e74a43"
       d="m -407.2567,743.3008 c -0.0758,-1.45311 1.27747,-2.72659 2.70663,-2.69066 3.86433,-0.0599 7.72866,0.012 11.589,-0.0199 l -0.0199,4.27951 c -1.44531,0.92768 -2.21161,2.23955 -2.61082,3.76852 -0.90221,2.78248 0.22755,5.98811 2.59485,7.67676 l 0,0.2036 c 0.0319,1.44912 0.0479,2.89824 0.0319,4.35136 -4.17571,0.0599 -8.35142,0.0319 -12.53113,0.012 -0.99593,-0.012 -1.80555,-0.76117 -1.75651,-2.75852 -0.0439,-4.9382 -0.0319,-9.88439 -0.004,-14.82259 z"
       id="path178-9"
       sodipodi:nodetypes="ccccccccccc" />
    <path
       inkscape:connector-curvature="0"
       style="display:inline;fill:#fefdfd"
       d="m -403.27261,743.43253 c 1.13775,-0.38324 2.37529,0.74652 2.06391,1.9162 -0.27944,1.21759 -2.05193,1.67668 -2.81841,0.65072 -0.75849,-0.82237 -0.30739,-2.26751 0.7545,-2.56692 z"
       id="path194-7" />
    <path
       inkscape:connector-curvature="0"
       style="display:inline;fill:#d0d97e"
       d="m -390.03089,748.26295 c 1.70063,-0.84233 3.8284,0.8583 3.42121,2.69865 -0.17565,1.78845 -2.55493,2.74255 -3.93219,1.59682 -1.54494,-1.02596 -1.23755,-3.66871 0.51098,-4.29547 z"
       id="path204-8" />
    <g
       id="g7265"
       transform="matrix(0.40002603,0,0,0.40002603,-477.61119,427.24178)">
      <path
         id="path7267"
         transform="translate(22.047245,176.18111)"
         d="m 298.06934,598.85332 0.0713,62.12324 51.97657,28.92969 51.97461,-28.92969 0.0688,-62.12324 -52.04562,-28.93847 z"
         style="opacity:1;fill:#22594f;fill-opacity:1;fill-rule:evenodd;stroke:none;stroke-width:0.1;stroke-miterlimit:4;stroke-dasharray:none;stroke-opacity:1"
         inkscape:connector-curvature="0"
         sodipodi:nodetypes="ccccccc" />
      <path
         sodipodi:nodetypes="ccccc"
         inkscape:connector-curvature="0"
         id="path7269"
         d="m 372.16362,746.09517 0,114.97378 -51.97504,-28.929 -0.072,-57.10552 z"
         style="opacity:1;fill:#428c7d;fill-opacity:1;fill-rule:evenodd;stroke:none;stroke-width:0.1;stroke-miterlimit:4;stroke-dasharray:none;stroke-opacity:1" />
      <path
         style="opacity:1;fill:#3a7a6d;fill-opacity:1;fill-rule:evenodd;stroke:none;stroke-width:0.1;stroke-miterlimit:4;stroke-dasharray:none;stroke-opacity:1"
         d="m 372.16078,746.09517 0,114.97378 51.97504,-28.929 0.072,-57.10552 z"
         id="path7271"
         inkscape:connector-curvature="0"
         sodipodi:nodetypes="ccccc" />
      <path
         inkscape:connector-curvature="0"
         id="path7273"
         d="m 424.17164,784.12961 -41.55016,-14.09754 -23.52558,73.16746 25.4076,10.99954 39.63232,-22.05912 z"
         style="opacity:1;fill:#2e6157;fill-opacity:1;fill-rule:evenodd;stroke:none;stroke-width:1px;stroke-linecap:butt;stroke-linejoin:miter;stroke-opacity:1"
         sodipodi:nodetypes="cccccc" />
    </g>
    <circle
       style="opacity:1;fill:#9bcc5f;fill-opacity:1;fill-rule:evenodd;stroke:none;stroke-width:0.1;stroke-miterlimit:4;stroke-dasharray:none;stroke-opacity:1"
       id="path6855"
       cx="-328.75992"
       cy="749.95911"
       r="15.307926" />
    <path
       style="opacity:1;fill:#87b153;fill-opacity:1;fill-rule:evenodd;stroke:none;stroke-width:0.1;stroke-miterlimit:4;stroke-dasharray:none;stroke-opacity:1"
       d="m -313.45192,749.95912 c 0,8.45433 -6.85359,15.30793 -15.30793,15.30793 l 0,-30.61586 c 8.45433,0 15.30793,6.8536 15.30793,15.30793 z"
       id="circle6857"
       inkscape:connector-curvature="0"
       sodipodi:nodetypes="sccs" />
    <path
       inkscape:connector-curvature="0"
       style="display:inline;fill:#fefefe"
       d="m -338.92257,751.55761 c -0.0482,-1.30577 1.73568,-2.25799 2.7361,-1.3339 1.6272,1.36202 2.96913,3.03342 4.57624,4.41955 0.95221,-0.99239 1.92451,-1.96469 2.89681,-2.94101 0.0603,1.59907 0.10848,3.19814 0.1808,4.80123 l -0.2049,0.20893 c -0.73927,0.72721 -1.41426,1.55487 -2.32227,2.0812 -0.91204,0.42588 -1.7397,-0.28526 -2.34236,-0.88391 -1.47854,-1.47854 -2.94101,-2.96511 -4.4316,-4.42356 -0.49017,-0.55044 -1.18122,-1.10891 -1.08882,-1.92853 z"
       id="path210-7" />
    <path
       inkscape:connector-curvature="0"
       style="display:inline;fill:#dddddd"
       d="m -322.17651,745.14927 c 0.57856,-0.53436 1.14105,-1.20533 1.96067,-1.34997 0.93614,-0.004 1.86826,0.75132 1.8763,1.72764 0.0603,0.80757 -0.61472,1.36202 -1.09685,1.90442 -3.04949,3.00529 -6.28567,6.2696 -9.31908,9.29498 l 0.0421,-5.02409 c 0.0683,-0.0723 0.21294,-0.21294 0.28125,-0.28526 2.08924,-2.08121 4.18651,-4.16241 6.25566,-6.26772 z"
       id="path198-1"
       sodipodi:nodetypes="cccccccc" />
    <g
       transform="matrix(0.40002604,0,0,0.40002604,-477.6112,491.30791)"
       id="g7193">
      <path
         sodipodi:nodetypes="ccccccc"
         inkscape:connector-curvature="0"
         style="opacity:1;fill:#8a7407;fill-opacity:1;fill-rule:evenodd;stroke:none;stroke-width:0.1;stroke-miterlimit:4;stroke-dasharray:none;stroke-opacity:1"
         d="m 298.06934,598.85332 0.0713,62.12324 51.97657,28.92969 51.97461,-28.92969 0.0688,-62.12324 -52.04562,-28.93847 z"
         transform="translate(22.047245,176.18111)"
         id="path7195" />
      <path
         style="opacity:1;fill:#f0c610;fill-opacity:1;fill-rule:evenodd;stroke:none;stroke-width:0.1;stroke-miterlimit:4;stroke-dasharray:none;stroke-opacity:1"
         d="m 372.16362,746.09517 0,114.97378 -51.97504,-28.929 -0.072,-57.10552 z"
         id="path7197"
         inkscape:connector-curvature="0"
         sodipodi:nodetypes="ccccc" />
      <path
         sodipodi:nodetypes="ccccc"
         inkscape:connector-curvature="0"
         id="path7199"
         d="m 372.16078,746.09517 0,114.97378 51.97504,-28.929 0.072,-57.10552 z"
         style="opacity:1;fill:#d1ac0e;fill-opacity:1;fill-rule:evenodd;stroke:none;stroke-width:0.1;stroke-miterlimit:4;stroke-dasharray:none;stroke-opacity:1" />
      <path
         sodipodi:nodetypes="ccccccc"
         style="opacity:1;fill:#a7890b;fill-opacity:1;fill-rule:evenodd;stroke:none;stroke-width:1px;stroke-linecap:butt;stroke-linejoin:miter;stroke-opacity:1"
         d="m 424.19619,784.25533 -27.11486,-8.48125 -44.18417,15.37833 -2.80153,45.29836 34.40787,17.7483 39.63232,-22.05912 z"
         id="path7201"
         inkscape:connector-curvature="0" />
    </g>
    <path
       inkscape:connector-curvature="0"
       style="display:inline;fill:#6e4d44"
       d="m -342.07893,805.7979 c 0.16367,-2.25951 2.24354,-4.25955 4.531,-4.25156 2.9222,-0.0519 5.85239,0.008 8.77858,-0.016 l -0.0118,7.51465 c -0.20758,0.0998 -0.61493,0.0423 -0.82651,0.14215 -1.74853,0.67866 -0.89422,3.35734 0.89423,3.1777 l 0.37525,-0.0758 c -0.13972,0.10778 -0.25701,0.32735 -0.39673,0.43913 l -0.0224,6.63084 c -0.94167,0.005 -2.17017,-0.0855 -2.68667,0.49901 -2.0639,1.99204 -4.00405,4.11583 -6.11985,6.05198 -0.0719,-2.13975 -0.0239,-4.28349 -0.0679,-6.42325 -1.14151,-0.0283 -2.16739,-0.50609 -2.86187,-1.04232 -0.69449,-0.53622 -0.91064,-0.84194 -1.38969,-2.30304 -0.36328,-1.28145 -0.25519,-2.69404 -0.24352,-3.94018 l 0.0479,-6.40329 z"
       id="path286-8"
       sodipodi:nodetypes="cccccccccccczcccc" />
    <path
       inkscape:connector-curvature="0"
       style="display:inline;fill:#60433b"
       d="m -328.76935,801.53037 8.85443,0.016 c 1.42118,-0.0559 2.49064,0.23437 3.36503,1.09255 0.87439,0.85817 1.16684,1.96122 1.16646,2.47239 -3.8e-4,0.51117 0.006,8.37493 0.0358,10.50705 0.0246,3.3529 -2.77484,3.74066 -4.61519,3.74066 l -8.79456,0 -0.009,-6.85227 c 0.13972,-0.11178 0.28865,-0.1099 0.42837,-0.2177 0.53893,-0.41518 1.16569,-0.94612 1.06189,-1.7126 0.0319,-0.90221 -0.93002,-1.03239 -1.50488,-1.5314 z"
       id="path288-8"
       sodipodi:nodetypes="cczzcccccccc" />
    <path
       inkscape:connector-curvature="0"
       style="display:inline;fill:#efc510"
       d="m -335.36426,809.24706 c 1.14972,-0.74253 2.81841,0.39521 2.48307,1.74054 -0.18363,1.21359 -1.85232,1.78845 -2.72659,0.91019 -0.85031,-0.68264 -0.7026,-2.12777 0.24352,-2.65073 z"
       id="path316-2" />
    <path
       inkscape:connector-curvature="0"
       style="display:inline;fill:#cfaa0e"
       d="m -329.60769,809.18717 c 0.21158,-0.0998 0.25836,-0.13022 0.9056,-0.14215 0.64724,-0.0119 1.48462,0.4568 1.50486,1.61048 0.0202,1.15367 -0.64949,1.43977 -1.14098,1.63352 l -0.37525,0.0758 c 0,-0.98205 0.012,-1.9641 -0.0359,-2.94216 -0.21557,-0.0559 -0.64272,-0.17565 -0.8583,-0.23554 z"
       id="path318-0"
       sodipodi:nodetypes="czzcccc" />
    <path
       inkscape:connector-curvature="0"
       style="display:inline;fill:#cfaa0e"
       d="m -323.91498,809.11132 c 1.14572,-0.44711 2.48706,0.63075 2.19564,1.85233 -0.14372,1.37727 -2.18766,1.84833 -2.93817,0.7066 -0.70261,-0.84233 -0.26348,-2.20762 0.74253,-2.55893 z"
       id="path320-3" />
    <path
       inkscape:connector-curvature="0"
       style="display:inline;fill:#eec410"
       d="m -328.71346,812.36487 c -1.78845,0.17964 -2.64276,-2.49904 -0.89423,-3.1777 0.21558,0.0599 0.64273,0.17965 0.8583,0.23554 0.0479,0.97806 0.0359,1.96011 0.0359,2.94216 z"
       id="path322-9" />
    <g
       transform="matrix(0.40042864,0,0,0.40042864,-485.19012,617.84863)"
       id="g8333">
      <g
         transform="matrix(0.99899456,0,0,0.99899456,-301.69658,-316.01317)"
         id="g7205">
        <path
           sodipodi:nodetypes="ccccccc"
           inkscape:connector-curvature="0"
           style="opacity:1;fill:#5d0e48;fill-opacity:1;fill-rule:evenodd;stroke:none;stroke-width:0.1;stroke-miterlimit:4;stroke-dasharray:none;stroke-opacity:1"
           d="m 298.06934,598.85332 0.0713,62.12324 51.97657,28.92969 51.97461,-28.92969 0.0688,-62.12324 -52.04562,-28.93847 z"
           transform="translate(22.047245,176.18111)"
           id="path7207" />
        <path
           style="opacity:1;fill:#942d74;fill-opacity:1;fill-rule:evenodd;stroke:none;stroke-width:0.1;stroke-miterlimit:4;stroke-dasharray:none;stroke-opacity:1"
           d="m 372.16362,746.09517 0,114.97378 -51.97504,-28.929 -0.072,-57.10552 z"
           id="path7209"
           inkscape:connector-curvature="0"
           sodipodi:nodetypes="ccccc" />
        <path
           sodipodi:nodetypes="ccccc"
           inkscape:connector-curvature="0"
           id="path7211"
           d="m 372.16078,746.09517 0,114.97378 51.97504,-28.929 0.072,-57.10552 z"
           style="opacity:1;fill:#812765;fill-opacity:1;fill-rule:evenodd;stroke:none;stroke-width:0.1;stroke-miterlimit:4;stroke-dasharray:none;stroke-opacity:1" />
        <path
           sodipodi:nodetypes="ccccccccccccc"
           style="opacity:1;fill:#68225a;fill-opacity:1;fill-rule:evenodd;stroke:none;stroke-width:1px;stroke-linecap:butt;stroke-linejoin:miter;stroke-opacity:1"
           d="m 424.19991,781.30866 -53.86097,-11.67165 -3.16318,4.48952 -19.36099,-3.77041 -1.37986,9.14581 -0.49738,19.10375 15.39235,5.89138 -0.36036,20.90603 -1.56157,9.29434 -1.56157,9.29435 26.65712,10.20729 39.63232,-22.05912 z"
           id="path7213"
           inkscape:connector-curvature="0" />
      </g>
      <path
         sodipodi:nodetypes="ccccccccccccccsccczccc"
         id="path388-0"
         d="m 41.12,456.09 c 1.14,-1.23 2.45,-3.65 4.47,-2.62 2.77,1.43 1.59,5.1 1.89,7.61 2.7,0.12 5.4,0.16 8.1,0.16 0.03,-2.81 0.07,-5.62 0.19,-8.42 4.16,-0.11 8.33,-0.11 12.5,0.03 l 0.02,22.9 1.56,0.07 0.47,12.93 c -0.746015,0.0173 -1.698626,-0.17196 -1.82,0.47 -0.55,12.5 0.17,25.45 -0.21,37.98 -4.17,0.1 -8.34,0.16 -12.5,-0.07 -0.34,-11.71 -0.1,-23.42 -0.11,-35.12 -0.02,-1.18 -0.15,-2.33 -0.45,-3.45 -2.54,-2.91 -1.86965,-7.81965 -1.367868,-9.54147 0.250891,-0.86091 0.902123,-3.27646 2.305618,-3.71078 L 56.17,474.39 c -2.87,-0.12 -5.74,-0.15 -8.62,-0.15 0.09,3.15 0.474236,6.86902 -2.001472,7.80289 C 43.07282,482.97676 38.82,476.31 35.88,473.09 c -1.44,-1.95 -4.13,-4.22 -2.65,-6.88 2.33,-3.59 5.38,-6.65 7.89,-10.12 z"
         style="display:inline;fill:#edc211"
         inkscape:connector-curvature="0" />
      <path
         sodipodi:nodetypes="ccczcccccccc"
         id="path426-7"
         d="m 75.34,470.24 c 0.92,-2.42 4.18,-2.87 6.28,-1.8 5.21,2.18 10.26,4.75 15.43,7.02 3.56,1.59 9.02159,3.45534 10.34,5.43 1.31841,1.97466 -0.49,4.15 -2.56,4.91 -6.52,3.28 -13.3,6.05 -19.86,9.24 -2.42,1.13 -5.4,2.61 -7.97,1.03 -2.65,-1.43 -1.62,-4.86 -1.95,-7.29 -2.04,0.01 -3.74,-0.07 -5.78,-0.03 0.56,-4.92 0.55,-8.61 0.58,-12.93 1.74,0.06 3.48,0.04 5.23,0.04 0.04,-1.88 -0.03,-3.77 0.26,-5.62 z"
         style="display:inline;fill:#cfa90f"
         inkscape:connector-curvature="0" />
    </g>
  </g>
</svg>
