<svg xmlns="http://www.w3.org/2000/svg" xmlns:xlink="http://www.w3.org/1999/xlink" width="326.9" height="73" viewBox="-6 -4 315.77706 78.918912"><g id="a" fill-rule="evenodd" stroke-width=".3"><path d="M634.3 532.7L623 543.4 634 545z" fill="#fcf9f0" stroke="#fcf9f0" transform="matrix(1 0 0 1.0088 -463.204 -526.47)"/><path d="M634.3 532.7l-.5 12.2 11.2-.6z" fill="#fefcf0" stroke="#fefef2" transform="matrix(1 0 0 1.0088 -463.204 -526.47)"/><path d="M623 543.4l-1.3 9 12-7.5z" fill="#f9f5ea" stroke="#f9f5ea" transform="matrix(1 0 0 1.0088 -463.204 -526.47)"/><path d="M633.8 545l-12 7.4 12.8.2z" fill="#f9f5e9" stroke="#f9f5e9" transform="matrix(1 0 0 1.0088 -463.204 -526.47)"/><path d="M633.8 545l.8 7.6 10.4-8.2z" fill-opacity="0" stroke="#fff8ed" transform="matrix(1 0 0 1.0088 -463.204 -526.47)"/><path d="M621.7 552.4l2.7 7.8 10.2-7.6z" fill="#e7dfd4" stroke="#e7dfd4" transform="matrix(1 0 0 1.0088 -463.204 -526.47)"/><path d="M653 527l-18.7 5.7 21.3.3z" fill="#f7f9f6" stroke="#f7f9f6" transform="matrix(1 0 0 1.0088 -463.204 -526.47)"/><path d="M634.3 532.7l10.7 11.7 10.6-11.4z" fill="#fffff6" stroke="#fffff6" transform="matrix(1 0 0 1.0088 -463.204 -526.47)"/><path d="M634.6 552.6l-10.2 7.6 21 3.3z" fill="#e4ddd1" stroke="#e4ddd1" transform="matrix(1 0 0 1.0088 -463.204 -526.47)"/><path d="M645 544.4l-10.4 8.2 10.6.4z" fill="#f9f2e6" stroke="#f9f2e6" transform="matrix(1 0 0 1.0088 -463.204 -526.47)"/><path d="M645.5 563.5l-21-3.3L635 567z" fill="#ded7cb" stroke="#ded7cb" transform="matrix(1 0 0 1.0088 -463.204 -526.47)"/><path d="M635 570.8l-10.6-10.6L635 567z" fill="#b0aba5" stroke="#b0aba5" transform="matrix(1 0 0 1.0088 -463.204 -526.47)"/><path d="M645 544.4l8 9-7.8-.4z" fill="#fff8ec" stroke="#fff8ec" transform="matrix(1 0 0 1.0088 -463.204 -526.47)"/><path d="M645 544.4l8 9 1.4-11z" fill="#fefaed" stroke="#fefaed" transform="matrix(1 0 0 1.0088 -463.204 -526.47)"/><path d="M662.7 542l-9.6 11.3 1.4-10.8z" fill="#fdf9ed" stroke="#fdf9ed" transform="matrix(1 0 0 1.0088 -463.204 -526.47)"/><path d="M645 544.4l10.6-11.4-1.2 9.5z" fill="#fffef5" stroke="#fffff6" transform="matrix(1 0 0 1.0088 -463.204 -526.47)"/><path d="M662.7 542l-7-9-1.3 9.5z" fill-opacity="0" stroke="#000" stroke-opacity="0" transform="matrix(1 0 0 1.0088 -463.204 -526.47)"/><path d="M662.7 542l-7-9 18-.5z" fill="#fffff7" stroke="#fffff7" transform="matrix(1 0 0 1.0088 -463.204 -526.47)"/><path d="M662.7 542h12.5l-1.5-9.5z" fill="#fffff4" stroke="#fffff4" transform="matrix(1 0 0 1.0088 -463.204 -526.47)"/><path d="M689.3 532.7l-14 9.3-1.6-9.5z" fill="#fffff6" stroke="#fcfcf5" transform="matrix(1 0 0 1.0088 -463.204 -526.47)"/><path d="M689.3 532.7l-14 9.3h17.5z" fill="#fffff7" stroke="#fffff7" transform="matrix(1 0 0 1.0088 -463.204 -526.47)"/><path d="M662.7 542l-9.6 11.3 18-1z" fill="#fcf4e8" stroke="#fcf4e8" transform="matrix(1 0 0 1.0088 -463.204 -526.47)"/><path d="M662.7 542h12.5l-4.2 10.3z" fill="#fcf4e9" stroke="#fcf4e9" transform="matrix(1 0 0 1.0088 -463.204 -526.47)"/><path d="M693 552.5L675 542l-4.2 10.3z" fill="#fcf5e9" stroke="#fcf5e9" transform="matrix(1 0 0 1.0088 -463.204 -526.47)"/><path d="M693 552.5L675 542h17.6z" fill="#fbf3e7" stroke="#fbf3e7" transform="matrix(1 0 0 1.0088 -463.204 -526.47)"/><path d="M645.5 563.5l7.6-10.2 18-1z" fill="#eae3d7" stroke="#eae3d7" transform="matrix(1 0 0 1.0088 -463.204 -526.47)"/><path d="M645.5 563.5l19 .5 6.5-11.7z" fill="#e7dfd5" stroke="#e7dfd5" transform="matrix(1 0 0 1.0088 -463.204 -526.47)"/><path d="M693 552.5L664.3 564l6.6-11.7z" fill="#e9e1d6" stroke="#e9e1d6" transform="matrix(1 0 0 1.0088 -463.204 -526.47)"/><path d="M693 552.5L664.3 564l25 .4z" fill="#eae2d6" stroke="#eae2d6" transform="matrix(1 0 0 1.0088 -463.204 -526.47)"/><path d="M645.5 563.5l6 7.7L635 567z" fill="#cec7bb" stroke="#cec7bb" transform="matrix(1 0 0 1.0088 -463.204 -526.47)"/><path d="M645.5 563.5l6 7.7 13-7.2z" fill="#d3cbbf" stroke="#d3cbbf" transform="matrix(1 0 0 1.0088 -463.204 -526.47)"/><path d="M671.4 572.5l-19.8-1.3 12.8-7.2z" fill="#c6bfb3" stroke="#c6bfb3" transform="matrix(1 0 0 1.0088 -463.204 -526.47)"/><path d="M671.4 572.5l18-8-25-.5z" fill="#cec7bb" stroke="#cec7bb" transform="matrix(1 0 0 1.0088 -463.204 -526.47)"/><path d="M635 570.8l16.6.4L635 567z" fill="#a69d98" stroke="#a69d98" transform="matrix(1 0 0 1.0088 -463.204 -526.47)"/><path d="M635 570.8l16.6.4-3 3.4z" fill="#a59c95" stroke="#a59c95" transform="matrix(1 0 0 1.0088 -463.204 -526.47)"/><path d="M671.4 572.5l-19.8-1.3-3 3.4z" fill="#a19891" stroke="#a19891" transform="matrix(1 0 0 1.0088 -463.204 -526.47)"/><path d="M671.4 572.5l-6 5-17-3z" fill="#a09891" stroke="#a09891" transform="matrix(1 0 0 1.0088 -463.204 -526.47)"/><path d="M671.4 572.5l-6 5 25.4.2z" fill="#989085" stroke="#989085" transform="matrix(1 0 0 1.0088 -463.204 -526.47)"/><path d="M671.4 572.5l34 .5-14.6 4.7z" fill="#9b938a" stroke="#9b938a" transform="matrix(1 0 0 1.0088 -463.204 -526.47)"/><path d="M671.4 572.5l34 .5-16-8.6z" fill="#cbc4b8" stroke="#cbc4b8" transform="matrix(1 0 0 1.0088 -463.204 -526.47)"/><path d="M715.2 564.5l-10 8.5-15.8-8.6z" fill="#d9d2c6" stroke="#d9d2c6" transform="matrix(1 0 0 1.0088 -463.204 -526.47)"/><path d="M715.2 564.5l10.5-12.5-36.3 12.4z" fill="#f0e8dd" stroke="#f0e8dd" transform="matrix(1 0 0 1.0088 -463.204 -526.47)"/><path d="M693 552.5l32.7-.5-36.3 12.4z" fill="#ece4d9" stroke="#ece4d9" transform="matrix(1 0 0 1.0088 -463.204 -526.47)"/><path d="M693 552.5l32.7-.5-33-10z" fill="#f9f2e6" stroke="#f9f2e6" transform="matrix(1 0 0 1.0088 -463.204 -526.47)"/><path d="M729.3 542.3l-3.6 9.7-33-10z" fill="#faf3e7" stroke="#faf3e7" transform="matrix(1 0 0 1.0088 -463.204 -526.47)"/><path d="M729.3 542.3l-40-9.6 3.5 9.4z" fill="#fffef3" stroke="#fcfcf5" transform="matrix(1 0 0 1.0088 -463.204 -526.47)"/><path d="M729.3 542.3l-40-9.6 39.3 1z" fill="#fffdf6" stroke="#fffdf6" transform="matrix(1 0 0 1.0088 -463.204 -526.47)"/><path d="M653 527l2.6 6 18-.5z" fill="#fdfef8" stroke="#fdfef8" transform="matrix(1 0 0 1.0088 -463.204 -526.47)"/><path d="M653 527l18.7-2.8 2 8.3z" fill="#fafbf7" stroke="#fafbf7" transform="matrix(1 0 0 1.0088 -463.204 -526.47)"/><path d="M689.3 532.7l-17.6-8.5 2 8.3z" fill="#fcfcf5" stroke="#fcfcf5" transform="matrix(1 0 0 1.0088 -463.204 -526.47)"/><path d="M689.3 532.7l-17.6-8.5h22z" fill="#fafbf7" stroke="#fafbf7" transform="matrix(1 0 0 1.0088 -463.204 -526.47)"/><path d="M689.3 532.7l39.3 1-35-9.5z" fill="#fcfcf5" stroke="#fcfcf5" transform="matrix(1 0 0 1.0088 -463.204 -526.47)"/><path d="M712.7 525l16 8.6-35-9.4z" fill="#f6f9f5" stroke="#f6f9f5" transform="matrix(1 0 0 1.0088 -463.204 -526.47)"/><path d="M712.7 525l16 8.6 7-5.6z" fill="#f6f8f4" stroke="#f6f8f4" transform="matrix(1 0 0 1.0088 -463.204 -526.47)"/><path d="M758 536.8l-29.4-3.2 7-5.6z" fill="#fafcf6" stroke="#fafcf6" transform="matrix(1 0 0 1.0088 -463.204 -526.47)"/><path d="M758 536.8l8.8-2.4-17.6-4z" fill="none" fill-opacity=".4" stroke="#b3b3b3" transform="matrix(1 0 0 1.0088 -463.204 -526.47)"/><path d="M729.3 542.3l28.8-5.5-29.4-3.2z" fill="#fffdf5" stroke="#fffdf5" transform="matrix(1 0 0 1.0088 -463.204 -526.47)"/><path d="M729.3 542.3l28.8-5.5v5.7z" fill="#fffdf1" stroke="#fffdf1" transform="matrix(1 0 0 1.0088 -463.204 -526.47)"/><path d="M775.6 542.5l-17.5-5.7v5.7z" fill="#fefbf0" stroke="#fefbf0" transform="matrix(1 0 0 1.0088 -463.204 -526.47)"/><path d="M775.6 542.5l-17.5-5.7 19.5 2z" fill="#f6f5f0" stroke="#f6f5f0" transform="matrix(1 0 0 1.0088 -463.204 -526.47)"/><path d="M775.6 542.5h9.2l-7.3-3.7z" fill="#f4f0e5" stroke="#f4f0e5" transform="matrix(1 0 0 1.0088 -463.204 -526.47)"/><path d="M775.6 542.5h9.2l4 3.7z" fill="#f0f1ec" stroke="#f0f1ec" transform="matrix(1 0 0 1.0088 -463.204 -526.47)"/><path d="M775.6 542.5l-4.2 4.8 17.3-1z" fill="#f4f0e5" stroke="#f4f0e5" transform="matrix(1 0 0 1.0088 -463.204 -526.47)"/><path d="M791 551l-19.6-3.7 17.3-1z" fill="#f0eee6" stroke="#f0eee6" transform="matrix(1 0 0 1.0088 -463.204 -526.47)"/><path d="M791 551l-19.6-3.7-2 3.8z" fill="#e8e3d8" stroke="#e8e3d8" transform="matrix(1 0 0 1.0088 -463.204 -526.47)"/><path d="M791 551l-8.7.7-13-.6z" fill="#f1eee7" stroke="#f1eee7" transform="matrix(1 0 0 1.0088 -463.204 -526.47)"/><path d="M766.5 558.7l23-2L768 553z" fill="none" fill-opacity=".4" stroke="#b3b3b3" transform="matrix(1 0 0 1.0088 -463.204 -526.47)"/><path d="M766.5 558.7l23-2-2 2.8z" fill="#a6a29e" stroke="#a6a29e" transform="matrix(1 0 0 1.0088 -463.204 -526.47)"/><path d="M780 563.6l-8.6.2 16.2-4.3z" fill="#9f9892" stroke="#9f9892" transform="matrix(1 0 0 1.0088 -463.204 -526.47)"/><path d="M780 563.6l-8.6.2 2.5 2.6z" fill="#9b938d" stroke="#9b938d" transform="matrix(1 0 0 1.0088 -463.204 -526.47)"/><path d="M767.5 569.3l4-5.5 2.4 2.6z" fill="#98908a" stroke="#98908a" transform="matrix(1 0 0 1.0088 -463.204 -526.47)"/><path d="M767.5 569.3l4-5.5-15.2 4.3z" fill="#999188" stroke="#999188" transform="matrix(1 0 0 1.0088 -463.204 -526.47)"/><path d="M767.5 569.3l-18.8 5 7.6-6.2z" fill="#908878" stroke="#908878" transform="matrix(1 0 0 1.0088 -463.204 -526.47)"/><path d="M743.8 569.7l5 4.6 7.5-6.2z" fill="#9b9288" stroke="#9b9288" transform="matrix(1 0 0 1.0088 -463.204 -526.47)"/><path d="M743.8 569.7l5 4.6L725 578z" fill="#979083" stroke="#979083" transform="matrix(1 0 0 1.0088 -463.204 -526.47)"/><path d="M743.8 569.7l-20.6 2 2 6.2z" fill="#a09791" stroke="#a09791" transform="matrix(1 0 0 1.0088 -463.204 -526.47)"/><path d="M709.2 579.3l14-7.7 2 6.3z" fill="#9c9489" stroke="#9c9489" transform="matrix(1 0 0 1.0088 -463.204 -526.47)"/><path d="M709.2 579.3l14-7.7-18 1.4z" fill="#a09890" stroke="#000" stroke-opacity="0" transform="matrix(1 0 0 1.0088 -463.204 -526.47)"/><path d="M709.2 579.3l-18.4-1.6 14.5-4.7z" fill="#8f8576" stroke="#8f8576" transform="matrix(1 0 0 1.0088 -463.204 -526.47)"/><path d="M709.2 579.3l-18.4-1.6-5.4 1.4z" fill="#7d674f" stroke="#7d674f" transform="matrix(1 0 0 1.0088 -463.204 -526.47)"/><path d="M667.7 579l23-1.3-5.3 1.4z" fill="#61513d" stroke="#61513d" transform="matrix(1 0 0 1.0088 -463.204 -526.47)"/><path d="M667.7 579l23-1.3h-25.2z" fill="#7c7155" stroke="#7c7155" transform="matrix(1 0 0 1.0088 -463.204 -526.47)"/><path d="M667.7 579l-15.6-2.3 13.5 1z" fill="#757562" stroke="#757562" transform="matrix(1 0 0 1.0088 -463.204 -526.47)"/><path d="M648.5 574.6l3.6 2 13.5 1z" fill="#8c8579" stroke="#8c8579" transform="matrix(1 0 0 1.0088 -463.204 -526.47)"/><path d="M648.5 574.6l3.6 2-17-5.8z" fill="#928a81" stroke="#928a81" transform="matrix(1 0 0 1.0088 -463.204 -526.47)"/><path d="M715.2 564.5l-10 8.5 18-1.4z" fill="#cfc7bb" stroke="#cfc7bb" transform="matrix(1 0 0 1.0088 -463.204 -526.47)"/><path d="M715.2 564.5l17.3-1.4-9.3 8.6z" fill="#cec5bb" stroke="#cec5bb" transform="matrix(1 0 0 1.0088 -463.204 -526.47)"/><path d="M743.8 569.7l-11.3-6.6-9.3 8.6z" fill="#cac1b8" stroke="#cac1b8" transform="matrix(1 0 0 1.0088 -463.204 -526.47)"/><path d="M743.8 569.7l-11.3-6.6 23.8 5z" fill="#cfc7bc" stroke="#cfc7bc" transform="matrix(1 0 0 1.0088 -463.204 -526.47)"/><path d="M756.2 562l-23.7 1 23.8 5z" fill="#cdc6ba" stroke="#cdc6ba" transform="matrix(1 0 0 1.0088 -463.204 -526.47)"/><path d="M715.2 564.5l10.5-12.5 6.8 11z" fill="#ebe4d8" stroke="#ebe4d8" transform="matrix(1 0 0 1.0088 -463.204 -526.47)"/><path d="M749.3 553.2l-23.6-1.2 6.8 11z" fill="#ede5d9" stroke="#ede5d9" transform="matrix(1 0 0 1.0088 -463.204 -526.47)"/><path d="M749.3 553.2l-23.6-1.2 3.6-9.7z" fill="#f9f4e7" stroke="#f9f4e7" transform="matrix(1 0 0 1.0088 -463.204 -526.47)"/><path d="M749.3 553.2l8.7-10.7-28.7-.2z" fill="#f8f3e7" stroke="#f8f3e7" transform="matrix(1 0 0 1.0088 -463.204 -526.47)"/><path d="M749.3 553.2l8.7-10.7 2.7 10z" fill="#f8f4e7" stroke="#f8f4e7" transform="matrix(1 0 0 1.0088 -463.204 -526.47)"/><path d="M771.4 547.3l-13.4-4.8 2.7 10z" fill="#f5eee3" stroke="#f5eee3" transform="matrix(1 0 0 1.0088 -463.204 -526.47)"/><path d="M771.4 547.3l-13.4-4.8h17.6z" fill="#f7efe6" stroke="#f7efe6" transform="matrix(1 0 0 1.0088 -463.204 -526.47)"/><path d="M771.4 547.3l-2 3.8-8.7 1.4z" fill="#e6dfd4" stroke="#e6dfd4" transform="matrix(1 0 0 1.0088 -463.204 -526.47)"/><path d="M768.6 552.4l.8-1.3-8.7 1.4z" fill="none" fill-opacity="0" stroke="#b3b3b3" stroke-opacity="0" transform="matrix(1 0 0 1.0088 -463.204 -526.47)"/><path d="M749.3 553.2l7 8.7-23.8 1z" fill="#ded7cb" stroke="#ded7cb" transform="matrix(1 0 0 1.0088 -463.204 -526.47)"/><path d="M749.3 553.2l7 8.7 4.4-9.6z" fill="#ded6cb" stroke="#ded6cb" transform="matrix(1 0 0 1.0088 -463.204 -526.47)"/><path d="M766.5 558.7l-10.3 3.2 4.5-9.6z" fill="#d3ccbe" stroke="#d3ccbe" transform="matrix(1 0 0 1.0088 -463.204 -526.47)"/><path d="M766.5 558.7l-10.3 3.2v6z" fill="#d2cabf" stroke="#d2cabf" transform="matrix(1 0 0 1.0088 -463.204 -526.47)"/><path d="M766.5 558.7l5 5-15.2 4.4z" fill="#cfc7bb" stroke="#cfc7bb" transform="matrix(1 0 0 1.0088 -463.204 -526.47)"/><path d="M766.5 558.7l5 5 16-4.2z" fill="#b8b4af" stroke="#b8b4af" transform="matrix(1 0 0 1.0088 -463.204 -526.47)"/><path d="M791 551l-8.7.7 2.7.6z" fill="#e9f1e5" stroke="#e9f1e5" transform="matrix(1 0 0 1.0088 -463.204 -526.47)"/><path d="M791 551l.6 1.4H785z" fill="#f0efe6" stroke="#f0efe6" transform="matrix(1 0 0 1.0088 -463.204 -526.47)"/><path d="M790.6 554.3l1-2H785z" fill="#d7dcd8" stroke="#d7dcd8" transform="matrix(1 0 0 1.0088 -463.204 -526.47)"/><path d="M790.6 554.3l-1 2.5-4.6-4.5z" fill="#dddbd8" stroke="#dddbd8" transform="matrix(1 0 0 1.0088 -463.204 -526.47)"/><path d="M779 553l10.5 3.8-4.5-4.5z" fill="#e5e4da" stroke="#e5e4da" transform="matrix(1 0 0 1.0088 -463.204 -526.47)"/><path d="M779 553l10.5 3.8L774 553z" fill="#b0aba7" stroke="#b0aba7" transform="matrix(1 0 0 1.0088 -463.204 -526.47)"/><path d="M782.3 551.7l-13-.6 9.7 2z" fill="#fcac46" stroke="#fcac46" transform="matrix(1 0 0 1.0088 -463.204 -526.47)"/><path d="M782.3 551.7l2.7.6-6 .6z" fill="#eba03e" stroke="#eba03e" transform="matrix(1 0 0 1.0088 -463.204 -526.47)"/><path d="M768 553l21.5 3.8L774 553z" fill="#9e9993" stroke="#9e9993" transform="matrix(1 0 0 1.0088 -463.204 -526.47)"/><path d="M766.5 558.7l1.6-5.7-7.3-.6z" fill="#aea59f" stroke="#aea59f" transform="matrix(1 0 0 1.0088 -463.204 -526.47)"/><path d="M768.6 552.4l5.4.6h5z" fill="#a5722a" stroke="#a5722a" transform="matrix(1 0 0 1.0088 -463.204 -526.47)"/><path d="M766.5 558.7l1.6-5.7 21 3.7z" fill="#ada9a3" stroke="#ada9a3" transform="matrix(1 0 0 1.0088 -463.204 -526.47)"/><path d="M768.6 552.4l5.4.6h-6z" fill="#976b42" stroke="#976b42" transform="matrix(1 0 0 1.0088 -463.204 -526.47)"/><path d="M768.6 552.4h-8l7.5.6z" fill="#966f33" stroke="#966f33" transform="matrix(1 0 0 1.0088 -463.204 -526.47)"/><path d="M768.6 552.4l.8-1.3 9.6 2z" fill="#fdab3f" stroke="#fdab3f" transform="matrix(1 0 0 1.0088 -463.204 -526.47)"/><path d="M767.5 569.3l-18.8 5 8.2 7.7z" fill="#cc7817" stroke="#cc7817" transform="matrix(1 0 0 1.0088 -463.204 -526.47)"/><path d="M767.5 569.3l4 12.8h-14.6z" fill="#e38918" stroke="#e38918" transform="matrix(1 0 0 1.0088 -463.204 -526.47)"/><path d="M767.5 569.3l4 12.8-1.5-12.7z" fill="#c77b24" stroke="#c77b24" transform="matrix(1 0 0 1.0088 -463.204 -526.47)"/><path d="M768.6 552.4l.8-1.3-8.7 1.4z" fill="#f4aa48" stroke="#f4aa48" transform="matrix(1 0 0 1.0088 -463.204 -526.47)"/><path d="M757 522.4l9.8 12-17.6-4z" fill="#ed9626" stroke="#ed9626" transform="matrix(1 0 0 1.0088 -463.204 -526.47)"/><path d="M758 536.8l-8.8-6.4-13.5-2.4z" fill="#f7f7f1" stroke="#f7f7f1" transform="matrix(1 0 0 1.0088 -463.204 -526.47)"/><path d="M757 522.4l9.8 12 5.3-12z" fill="#f39c2d" stroke="#f39c2d" transform="matrix(1 0 0 1.0088 -463.204 -526.47)"/><path d="M769.8 535.7l-3-1.3 5.3-12z" fill="#ed9328" stroke="#ed9328" transform="matrix(1 0 0 1.0088 -463.204 -526.47)"/><path d="M758 536.8l8.8-2.4 10.7 4.4z" fill="#f3f2ed" stroke="#f3f2ed" transform="matrix(1 0 0 1.0088 -463.204 -526.47)"/><path d="M645.5 563.5l7.6-10.2-7.8-.3z" fill="#eae2d6" stroke="#eae2d6" transform="matrix(1 0 0 1.0088 -463.204 -526.47)"/><path d="M645.5 563.5l-11-11 10.7.5z" fill="#eae2d7" stroke="#eae2d7" transform="matrix(1 0 0 1.0088 -463.204 -526.47)"/><path d="M758 536.8l8.8-2.4-17.6-4z" fill="#fcfaf1" stroke="#fcfaf1" transform="matrix(1 0 0 1.0088 -463.204 -526.47)"/><path d="M667.7 579l.3 2.5 17.4-2.4z" fill="#c67321" stroke="#c67321" transform="matrix(1 0 0 1.0088 -463.204 -526.47)"/><path d="M686 582l-18-.5 17.4-2.4z" fill="#c06f24" stroke="#c06f24" transform="matrix(1 0 0 1.0088 -463.204 -526.47)"/><path d="M686 582l16.4-2.8h-17z" fill="#b36728" stroke="#b36728" transform="matrix(1 0 0 1.0088 -463.204 -526.47)"/><path d="M686 582l16.4-2.8-6.3 2.6z" fill="#c27223" stroke="#c27223" transform="matrix(1 0 0 1.0088 -463.204 -526.47)"/><path d="M695.7 584.3l6.7-5-6.3 2.5z" fill="#c37422" stroke="#c37422" transform="matrix(1 0 0 1.0088 -463.204 -526.47)"/><path d="M695.7 584.3l6.7-5-1 7.2z" fill="#c06e20" stroke="#c06e20" transform="matrix(1 0 0 1.0088 -463.204 -526.47)"/><path d="M695.7 584.3l4 6.4 1.6-4.2z" fill="#ca7722" stroke="#ca7722" transform="matrix(1 0 0 1.0088 -463.204 -526.47)"/><path d="M695.7 584.3l4 6.4-4.6.6z" fill="#d98a2b" stroke="#d98a2b" transform="matrix(1 0 0 1.0088 -463.204 -526.47)"/><path d="M695.7 584.3l-10 7.3 9.4-.3z" fill="#e48c23" stroke="#e48c23" transform="matrix(1 0 0 1.0088 -463.204 -526.47)"/><path d="M695.7 584.3l-10 7.3-1.8-7.2z" fill="#dd8627" stroke="#dd8627" transform="matrix(1 0 0 1.0088 -463.204 -526.47)"/><path d="M674 584.4l11.7 7.2-1.8-7.2z" fill="#e58923" stroke="#e58923" transform="matrix(1 0 0 1.0088 -463.204 -526.47)"/><path d="M674 584.4l11.7 7.2-13.6-.4z" fill="#f29626" stroke="#f29626" transform="matrix(1 0 0 1.0088 -463.204 -526.47)"/><path d="M674 584.4l-5 6.2 3 .6z" fill="#e79128" stroke="#e79128" transform="matrix(1 0 0 1.0088 -463.204 -526.47)"/><path d="M674 584.4l-5 6.2-.7-4.7z" fill="#ee9226" stroke="#ee9226" transform="matrix(1 0 0 1.0088 -463.204 -526.47)"/><path d="M674 584.4l-6-3 .3 4.5z" fill-opacity="0" stroke="#1c1c19" transform="matrix(1 0 0 1.0088 -463.204 -526.47)"/><path d="M674 584.4l-6-3 18 .6z" fill="#473b2f" stroke="#4d4d4d" transform="matrix(1 0 0 1.0088 -463.204 -526.47)"/><path d="M674 584.4h21.7L686 582z" fill="#3a3129" stroke="#4d4d4d" transform="matrix(1 0 0 1.0088 -463.204 -526.47)"/><path d="M696 581.8l-.3 2.5-9.6-2.3z" fill="#2e2620" stroke="#4d4d4d" transform="matrix(1 0 0 1.0088 -463.204 -526.47)"/><path d="M662.7 542l-7-9-1.3 9.5z" fill="#fffff7" stroke="#fffff7" transform="matrix(1 0 0 1.0088 -463.204 -526.47)"/><path d="M645 544.4l-10.4 8.2-.8-7.7z" fill="#f9f2e6" stroke="#f9f2e6" transform="matrix(1 0 0 1.0088 -463.204 -526.47)"/></g><defs><path d="M0 0c0 2-6 3-12.7 3-6.6 0-20-6.2-30.4-6.2-10.6 0-32.6 7.5-48.3 7.5C-107 4.3-125.8-3-136-3c-10.2.2-31 6.3-36 6.2-5 0-10.7-1-10.7-2.7 0-1.7 4.7-2.8 10.7-2.7 6 0 26.6 6.2 35.8 6.2 9.2 0 27.2-7.4 44.4-7.3 17 0 39.4 6.8 48.8 6.8 9.4 0 23.7-6.2 30-6.3 6.5 0 13 1 13 2.8z" id="b"/></defs><animateMotion xlink:href="#a" begin="3s" dur="26s" fill="freeze" repeatCount="indefinite"><mpath xlink:href="#b"/></animateMotion></svg>