<svg baseProfile="full" xmlns="http://www.w3.org/2000/svg" xmlns:xlink="http://www.w3.org/1999/xlink" width="1142" height="537" viewBox="0 0 1142 537"><defs><g id="a"><path d="M306.6 151.2l-5.8-28.3 41 13-35.2 15.2" fill="#ce7b8f" fill-rule="evenodd" stroke="#ce7b8f" stroke-width=".3"/><path d="M306.6 151.2l-37 42-1.8-53.6 33-16.7 5.8 28.2" fill="#b97080" fill-rule="evenodd" stroke="#b97080" stroke-width=".3"/><g stroke-width=".2" fill-rule="evenodd"><path d="M450 480.8l-38.4 5.5 17.7-28 20.7 22.5" fill="#f69493" stroke="#f69493" transform="matrix(.947 0 0 1.1872 -81.46 -245.687)"/><path d="M429.3 458.2l19.5-6 1.2 28.6-20.7-22.6" fill="#fed2cd" stroke="#000" stroke-opacity="0" transform="matrix(.947 0 0 1.1872 -81.46 -245.687)"/><path d="M429.3 458.2l-7.4-24.4 27-9.6-.2 28z" fill="#b97080" stroke="#000" stroke-opacity="0" transform="matrix(.947 0 0 1.1872 -81.46 -245.687)"/><path d="M372.5 403.3l.8 28 45.5-32.2z" fill="#c67f92" stroke="#c67f92" stroke-width=".5" transform="matrix(.947 0 0 1.1872 -81.46 -245.687)"/><path d="M417 379.5l31-10 1 54.7-32-44.7" fill="#c08d98" stroke="#c08d98" transform="matrix(.947 0 0 1.1872 -81.46 -245.687)"/><path d="M417 379.5l-7.3-45.2 38.2 35z" fill="#fecbd3" stroke="#fecbd3" transform="matrix(.947 0 0 1.1872 -81.46 -245.687)"/><path d="M409.7 334.3l37.3-13 1 48z" fill="#b97080" stroke="#b97080" transform="matrix(.947 0 0 1.1872 -81.46 -245.687)"/><path d="M370.7 369.6l46.4 10-7.3-45.3z" fill="#e0a3c5" stroke="#e0a3c5" transform="matrix(.947 0 0 1.1872 -81.46 -245.687)"/><path d="M418.8 399l3 34.8-48.5-2.6z" fill="#e57f8a" stroke="#e57f8a" transform="matrix(.947 0 0 1.1872 -81.46 -245.687)"/><path d="M370.7 369.6l1.8 33.7 46.3-4.2-1.7-19.5z" fill="#ce7b8f" stroke="#ce7b8f" transform="matrix(.947 0 0 1.1872 -81.46 -245.687)"/><path d="M422 433.8l-5-54.3 32 44.7z" fill="#f2bdc1" stroke="#f2bdc1" transform="matrix(.947 0 0 1.1872 -81.46 -245.687)"/><path d="M422 433.8l-47.7 34.8-1-37.4 48.6 2.6-10.4 52.5 17.7-28-7.4-24.5" fill="#ab4967" stroke="#ab4967" transform="matrix(.947 0 0 1.1872 -81.46 -245.687)"/><path d="M411.6 486.3l-36-1.8-1.3-16L422 434z" fill="#f59293" stroke="#f59293" transform="matrix(.947 0 0 1.1872 -81.46 -245.687)"/></g><g stroke-width=".4" fill-rule="evenodd"><path d="M538.7 214.7L522 229l35.3 1z" fill="#5f422a" stroke="#5f422a" transform="matrix(.5892 0 0 .6893 -66.543 27.938)"/><path d="M522 229l35.3 1-35.3-1 12.4 18.2 23-17.2z" fill="#919475" stroke="#919475" transform="matrix(.5892 0 0 .6893 -66.543 27.938)"/><path d="M522 229l-21.6 17.3 34 1-12.4-18.4" fill="#766f4d" stroke="#766f4d" transform="matrix(.5892 0 0 .6893 -66.543 27.938)"/><path d="M484.7 259.2H527l-26.6-13z" fill="#766f4d" stroke="#766f4d" transform="matrix(.5892 0 0 .6893 -66.543 27.938)"/><path d="M534.4 247.2l-7.3 12-26.6-13z" fill="#92a073" stroke="#92a073" transform="matrix(.5892 0 0 .6893 -66.543 27.938)"/><path d="M488.6 293l53.8-34 .8 35z" fill="#80a31e" stroke="#80a31e" transform="matrix(.5892 0 0 .6893 -66.543 27.938)"/><path d="M488.6 293l.3-33.8h53.4z" fill="#94b867" stroke="#94b867" transform="matrix(.5892 0 0 .6893 -66.543 27.938)"/><path d="M542.4 259l49 35H543z" fill="#d5e891" stroke="#d5e891" transform="matrix(.5892 0 0 .6893 -66.543 27.938)"/><path d="M591.3 294l-49-35h48.4l.6 35" fill="#cdde8a" stroke="#cdde8a" transform="matrix(.5892 0 0 .6893 -66.543 27.938)"/><path d="M527 259l33.7.2-26.3-12z" fill="#8a8f64" stroke="#8a8f64" transform="matrix(.5892 0 0 .6893 -66.543 27.938)"/><path d="M488.6 293l.3 40 54.2-39z" fill="#89b922" stroke="#89b922" transform="matrix(.5892 0 0 .6893 -66.543 27.938)"/><path d="M591.3 294l-.6 39.8-47.5-39.8z" fill="#bfdd87" stroke="#bfdd87" transform="matrix(.5892 0 0 .6893 -66.543 27.938)"/><path d="M543.2 294L489 333l55.2-1.2z" fill="#83a021" stroke="#83a021" transform="matrix(.5892 0 0 .6893 -66.543 27.938)"/><path d="M544.2 331.8l46.5 2-47.5-39.8z" fill="#9dc445" stroke="#9dc445" transform="matrix(.5892 0 0 .6893 -66.543 27.938)"/><path d="M544.2 331.8L489 381.3l52.7.4z" fill="#447d23" stroke="#447d23" transform="matrix(.5892 0 0 .6893 -66.543 27.938)"/><path d="M489 333l55.2-1.2-55.3 49.5z" fill="#83b62f" stroke="#83b62f" transform="matrix(.5892 0 0 .6893 -66.543 27.938)"/><path d="M544.2 331.8l46.5 2 .6 48.7z" fill="#d9e9be" stroke="#d9e9be" transform="matrix(.5892 0 0 .6893 -66.543 27.938)"/><path d="M544.2 331.8l-2.5 50 49.6.7z" fill="#c8de89" stroke="#c8de89" transform="matrix(.5892 0 0 .6893 -66.543 27.938)"/><path d="M489 381.3l-.3 58.3 40.7-18.6 12.3-39.3z" fill="#2e5324" stroke="#2e5324" transform="matrix(.5892 0 0 .6893 -66.543 27.938)"/><path d="M541.7 381.7l9 57.4-62 .6 40.7-18.6z" fill="#30700d" stroke="#30700d" transform="matrix(.5892 0 0 .6893 -66.543 27.938)"/><path d="M541.7 381.7l49.6.8-1 57.4z" fill="#9fb94f" stroke="#9fb94f" transform="matrix(.5892 0 0 .6893 -66.543 27.938)"/><path d="M541.7 381.7l48.6 58.2-39.7-1z" fill="#c5eb9d" stroke="#c5eb9d" transform="matrix(.5892 0 0 .6893 -66.543 27.938)"/><path d="M574.4 206l-6.6 10.3 14.4.6-7.8-11" fill="#5d432a" stroke="#5d432a" transform="matrix(.5892 0 0 .6893 -66.543 27.938)"/><path d="M582.2 217l6.2 12-17-1z" fill="#77624e" stroke="#77624e" transform="matrix(.5892 0 0 .6893 -66.543 27.938)"/><path d="M571.4 228l-10.3.6 6.8-12.3z" fill="#502d16" stroke="#5d432a" transform="matrix(.5892 0 0 .6893 -66.543 27.938)"/><path d="M571.4 228l-3.6-11.7 14.4.6z" fill="#5f462e" stroke="#5f462e" transform="matrix(.5892 0 0 .6893 -66.543 27.938)"/><path d="M588.4 229l4 8.5-10-3z" fill="#816e5b" stroke="#816e5b" transform="matrix(.5892 0 0 .6893 -66.543 27.938)"/><path d="M582.5 234.4l6-5.5-17-1z" fill="#60472e" stroke="#60472e" transform="matrix(.5892 0 0 .6893 -66.543 27.938)"/><path d="M582.5 234.4h-14l3-6.4z" fill="#654b2c" stroke="#654b2c" transform="matrix(.5892 0 0 .6893 -66.543 27.938)"/><path d="M571.4 228l-10.3.6 7.6 5.8z" fill="#5d432a" stroke="#5d432a" transform="matrix(.5892 0 0 .6893 -66.543 27.938)"/><path d="M568.6 234.4l-10.3 1.4 2.8-7.2z" fill="#520" stroke="#5b4128" transform="matrix(.5892 0 0 .6893 -66.543 27.938)"/><path d="M592.5 237.5L591 240l-8.5-5.6 10 3" fill="#c49e40" stroke="#c49e40" transform="matrix(.5892 0 0 .6893 -66.543 27.938)"/><path d="M582.5 234.4l-5 3.7 13.4 2z" fill="#bea44c" stroke="#bea44c" transform="matrix(.5892 0 0 .6893 -66.543 27.938)"/><path d="M582.5 234.4h-14l9 3.7z" fill="#b2913d" stroke="#b2913d" transform="matrix(.5892 0 0 .6893 -66.543 27.938)"/><path d="M577.5 238l-9.4-.3.6-3.3z" fill="#c5a242" stroke="#c5a242" transform="matrix(.5892 0 0 .6893 -66.543 27.938)"/><path d="M568.6 234.4l-.5 3.3-7.7 1-2-3 10.3-1.3" fill="#b1903b" stroke="#b1903b" transform="matrix(.5892 0 0 .6893 -66.543 27.938)"/><path d="M591 240l-.3 19-13.2-21 13.4 2" fill="#cfdd8e" stroke="#9bc095" transform="matrix(.5892 0 0 .6893 -66.543 27.938)"/><path d="M560.7 259.2l30-.3-13.2-21z" fill="#94b867" stroke="#94b867" transform="matrix(.5892 0 0 .6893 -66.543 27.938)"/><path d="M568 237.7l-7.7 1 .4 20.5 16.8-21z" fill="#98a978" stroke="#98a978" transform="matrix(.5892 0 0 .6893 -66.543 27.938)"/><path d="M577.8 246.7l20 13-37-.5z" fill="#5f432b" stroke="#5f432b" transform="matrix(.5892 0 0 .6893 -66.543 27.938)"/><path d="M534.4 247.2l43.4-.5-17 12.5z" fill="#77694e" stroke="#77694e" transform="matrix(.5892 0 0 .6893 -66.543 27.938)"/><path d="M557.3 230l20.5 16.7-43.4.5z" fill="#92a073" stroke="#92a073" transform="matrix(.5892 0 0 .6893 -66.543 27.938)"/></g><path d="M269.2 220l-.4 16.8-11.4.4.4-17.6zM246.2 220.3L246 237l-11.5.6.3-17.7z" fill="#447d23" fill-rule="evenodd" stroke="#447d23" stroke-width=".3"/><path d="M270.7 257.5l-.3 16.8-11.4.4.3-17.6z" fill="#83a021" fill-rule="evenodd" stroke="#83a021" stroke-width=".3"/><path d="M244.7 257l-.3 16.7-11.4.4.3-17.5z" fill="#2e5324" fill-rule="evenodd" stroke="#2e5324" stroke-width=".3"/><path d="M375.2 130l-3.3 2.6 15 13.4z" fill="#dedede" fill-rule="evenodd" stroke="#dedede" stroke-width=".3"/><path d="M375.2 130l11.3 2.2.4 13.8z" fill="#eeecef" fill-rule="evenodd" stroke="#eeecef" stroke-width=".3"/><path d="M386.5 132.2l16.7 16L387 146l-.5-13.8z" fill="#eae9ea" fill-rule="evenodd" stroke="#eae9ea" stroke-width=".3"/><path d="M386.5 132.2l11.7-6.7 5 22.6z" fill="#e2e1e0" fill-rule="evenodd" stroke="#e2e1e0" stroke-width=".3"/><path d="M398.2 125.5l7 3.4 5.5 2-7.5 17z" fill="#d4d0d1" fill-rule="evenodd" stroke="#d4d0d1" stroke-width=".3"/><path d="M410.3 120.5l23.3 8.4-23 2z" fill="#e3ebec" fill-rule="evenodd" stroke="#e3ebec" stroke-width=".3"/><path d="M410.7 131l17.5 6.2 5.4-8.3z" fill="#c6c4c5" fill-rule="evenodd" stroke="#c6c4c5" stroke-width=".3"/><path d="M410.7 131l-7.5 17 25-10.8z" fill="#dadbdd" fill-rule="evenodd" stroke="#dadbdd" stroke-width=".3"/><path d="M403.2 148l27-6.2-2-4.6z" fill="#eaeaec" fill-rule="evenodd" stroke="#eaeaec" stroke-width=".3"/><path d="M430.3 141.8l15.4 1.2-12-14-5.5 8.2z" fill="#ddd9dd" fill-rule="evenodd" stroke="#ddd9dd" stroke-width=".3"/><path d="M433.6 129l20.5 1.5-8.3 12.5-12-14z" fill="#ebebeb" fill-rule="evenodd" stroke="#ebebeb" stroke-width=".3"/><path d="M433.6 129l20.5 1.5-28.7-23.3-15 13.3z" fill="#f4f5f5" fill-rule="evenodd" stroke="#f4f5f5" stroke-width=".3"/><path d="M425.3 107.2l-7-7-2.6 2.8-2-.4-3.4 18z" fill="#fcfcfc" fill-rule="evenodd" stroke="#fcfcfc" stroke-width=".3"/><path d="M413.6 102.6l-6.3 9.6-2.5 2 5.5 6.3z" fill="#e9eaea" fill-rule="evenodd" stroke="#e9eaea" stroke-width=".3"/><path d="M404.8 114.2h-8l-4 3.4 5.4 8 12-5-5.4-6.4z" fill="#e2e9eb" fill-rule="evenodd" stroke="#e2e9eb" stroke-width=".3"/><path d="M392.7 117.6L375.2 130l11.3 2.2 11.7-6.7z" fill="#f6f7f6" fill-rule="evenodd" stroke="#f6f7f6" stroke-width=".3"/><path d="M398.2 125.5l12-5 .5 10.4-5.5-2z" fill="#d8d3d7" fill-rule="evenodd" stroke="#d8d3d7" stroke-width=".3"/><g stroke-width=".6" fill-rule="evenodd"><path d="M-257.6 110.8l-19.2 40.6h39z" fill="#585b60" stroke="#000" stroke-opacity="0" transform="matrix(.3687 0 0 .403 271.096 97.112)"/><path d="M-276.8 151.4l-17.8 33.2h17z" fill="#686b6f" stroke="#686b6f" transform="matrix(.3687 0 0 .403 271.096 97.112)"/><path d="M-276.8 151.4h39l-14 32.7z" fill="#686e75" stroke="#686e75" transform="matrix(.3687 0 0 .403 271.096 97.112)"/><path d="M-237.7 151.4l18 34-32.2-1.3z" fill="#62656a" stroke="#62656a" transform="matrix(.3687 0 0 .403 271.096 97.112)"/><path d="M-294.6 184.6l4.5 4.8 12.5-4.8z" fill="#8fc3b7" stroke="#8fc3b7" transform="matrix(.3687 0 0 .403 271.096 97.112)"/><path d="M-224.4 189.4l.2 50.3-35.7.2z" fill="#585b60" stroke="#585b60" transform="matrix(.3687 0 0 .403 271.096 97.112)"/><path d="M-290 189.4l31-1.3-18.5-3.4z" fill="#7b8ea5" stroke="#7b8ea5" transform="matrix(.3687 0 0 .403 271.096 97.112)"/><path d="M-267.8 205l-42.8 35 86.4-.3zM-181.7 206l-86-1 37.5-39.3z" fill="#585b60" stroke="#585b60" transform="matrix(.3687 0 0 .403 271.096 97.112)"/><path d="M-259 188l34.6 1.4-27.5-5.3z" fill="#ebf4fb" stroke="#ebf4fb" transform="matrix(.3687 0 0 .403 271.096 97.112)"/><path d="M-219.6 185.3l-4.8 4-27.5-5.2z" fill="#fff" stroke="#fff" transform="matrix(.3687 0 0 .403 271.096 97.112)"/><path d="M-224.2 239.7l42.5-33.8-86-1z" fill="#62666c" stroke="#62666c" transform="matrix(.3687 0 0 .403 271.096 97.112)"/><path d="M-259 188l34.6 1.4L-260 240z" fill="#9be0ca" stroke="#9be0ca" transform="matrix(.3687 0 0 .403 271.096 97.112)"/><path d="M-259 188l-18.5-3.4 25.6-.5z" fill="#c1c9cf" stroke="#c1c9cf" transform="matrix(.3687 0 0 .403 271.096 97.112)"/><path d="M-290.5 239.8h-9l.3 46.3z" fill="#1d6d6e" stroke="#1d6d6e" transform="matrix(.3687 0 0 .403 271.096 97.112)"/><path d="M-290.5 239.8h30.6l-39.2 46.3z" fill="#8bc4b6" stroke="#8bc4b6" transform="matrix(.3687 0 0 .403 271.096 97.112)"/><path d="M-299.2 286l-.6 53.6 79.6-.5-10.7-59.7-68.2 6.8" fill="#357a78" stroke="#347776" transform="matrix(.3687 0 0 .403 271.096 97.112)"/><path d="M-290 189.4l31-1.3-1 52z" fill="#4ba790" stroke="#4ba790" transform="matrix(.3687 0 0 .403 271.096 97.112)"/><path d="M-299.2 286l68.3-6.7 25.7-39.7-54.6.3z" fill="#37b19c" stroke="#37b19c" transform="matrix(.3687 0 0 .403 271.096 97.112)"/><path d="M-203 136l29.7 32.3-57-2.6zM-173.3 168.3l34 37-42.4.6z" fill="#5f6268" stroke="#5f6268" transform="matrix(.3687 0 0 .403 271.096 97.112)"/><path d="M-173.3 168.3l-57-2.6 48.6 40.2z" fill="#6a7379" stroke="#6a7379" transform="matrix(.3687 0 0 .403 271.096 97.112)"/><path d="M-181.7 206l13 33.4-55.5.3z" fill="#5f6268" stroke="#5f6268" transform="matrix(.3687 0 0 .403 271.096 97.112)"/><path d="M-181.7 206l42.3-.6-29.2 34z" fill="#61656a" stroke="#61656a" transform="matrix(.3687 0 0 .403 271.096 97.112)"/><path d="M-139.4 205.4l28.7 33.4-58 .6z" fill="#585b60" stroke="#585b60" transform="matrix(.3687 0 0 .403 271.096 97.112)"/><path d="M-148 341.3l-8.8-55.5-74-6.5 10.6 59.8z" fill="#70b4a4" stroke="#70b4a4" transform="matrix(.3687 0 0 .403 271.096 97.112)"/><path d="M-299.8 339.6v61.8h55.7l23.8-62.3z" fill="#4ba790" stroke="#4e9496" transform="matrix(.3687 0 0 .403 271.096 97.112)"/><path d="M-148 341.3l24.5 59.6-120.6.4 23.8-62.3h13.5" fill="#6bc7b6" stroke="#6bc7b6" transform="matrix(.3687 0 0 .403 271.096 97.112)"/><path d="M-156.8 285.8L-124 239l.5 162-24.5-59.7z" fill="#9be0cc" stroke="#9be0cc" transform="matrix(.3687 0 0 .403 271.096 97.112)"/><path d="M-244 401.4h50.6l37.6 45.4-95.5 1.6z" fill="#50a994" stroke="#7da9a7" transform="matrix(.3687 0 0 .403 271.096 97.112)"/><path d="M-300 401.4l-1.7 50.6 57.6-50.6z" fill="#2f7270" stroke="#2f7270" transform="matrix(.3687 0 0 .403 271.096 97.112)"/><path d="M-193.4 401.4l70-.5-32.4 45.8z" fill="#37b19c" stroke="#37b19c" transform="matrix(.3687 0 0 .403 271.096 97.112)"/><path d="M-251.3 448.4l46 48.5-94 3-2.4-48z" fill="#a05a2c" stroke="#997d55" transform="matrix(.3687 0 0 .403 271.096 97.112)"/><path d="M-251.3 448.4l95.5-1.6-49.6 50z" fill="#997d55" stroke="#997d55" transform="matrix(.3687 0 0 .403 271.096 97.112)"/><path d="M-155.8 446.8l32.3 49-82 1z" fill="#e7c8a3" stroke="#e7c8a3" transform="matrix(.3687 0 0 .403 271.096 97.112)"/><path d="M-123.5 401v95l-32.3-49.2z" fill="#9be0cc" stroke="#9be0cc" transform="matrix(.3687 0 0 .403 271.096 97.112)"/><path d="M-299.4 500l-1.4 76.2 95.4-79.3z" fill="#784421" stroke="#975935" transform="matrix(.3687 0 0 .403 271.096 97.112)"/><path d="M-123.5 496l-.2 84-81.7-83 82-1" fill="#ebbe6b" stroke="#ebbe6b" transform="matrix(.3687 0 0 .403 271.096 97.112)"/><path d="M-205.4 497l-95.4 79.2 177 3.7z" fill="#a87a47" stroke="#a87a47" transform="matrix(.3687 0 0 .403 271.096 97.112)"/><path d="M-231 279.3l74.2 6.5L-124 239l-81.3.6z" fill="#8fc3b7" stroke="#8fc3b7" transform="matrix(.3687 0 0 .403 271.096 97.112)"/><path d="M-290 189.4l-.5 50.4h30.6l-30-50.4" fill="#4e9496" stroke="#4e9496" transform="matrix(.3687 0 0 .403 271.096 97.112)"/><path d="M-276.8 151.4l25 32.7-25.7.6z" fill="#585b60" stroke="#000" stroke-opacity="0" transform="matrix(.3687 0 0 .403 271.096 97.112)"/><path d="M-251.3 448.4l-50.4 3.6 57.6-50.6z" fill="#7da9a7" stroke="#7da9a7" transform="matrix(.3687 0 0 .403 271.096 97.112)"/></g><path d="M186 209.6l-.6 23.5-17 .7.5-24.7z" fill="#8fc3b7" fill-rule="evenodd" stroke="#8fc3b7" stroke-width=".3"/><path d="M216.5 210.5L216 234l-17 .6.4-24.7z" fill="#7b8ea5" fill-rule="evenodd" stroke="#7b8ea5" stroke-width=".3"/><path d="M217.4 253l-.5 23.6-17.2.6.5-24.7z" fill="#7b8ea5" fill-rule="evenodd" stroke="#000" stroke-width=".3" stroke-opacity="0"/><path d="M189.3 254.2l-.5 23.5-17 .6.4-24.7z" fill="#5f6268" fill-rule="evenodd" stroke="#5f6268" stroke-width=".3"/><path d="M193 530l-2.8-29.4 49.8-3z" fill="#d3ab01" fill-rule="evenodd" stroke="#d3ab01" stroke-width=".3"/><path d="M190.2 500.6l36.8-40.2 16.8 35-3.8 2.3z" fill="#c47d01" fill-rule="evenodd" stroke="#c47d01" stroke-width=".3"/><path d="M190.2 500.6l-6.7-57 43.5 16.8z" fill="#d48121" fill-rule="evenodd" stroke="#d48121" stroke-width=".3"/><path d="M190.2 500.6l-28.7-30.2 22-27 6.7 57.2" fill="#f59230" fill-rule="evenodd" stroke="#f59230" stroke-width=".3"/><path d="M227 460.4l16-28.4 3.5 61.3-2.7 2.2z" fill="#eaae55" fill-rule="evenodd" stroke="#eaae55" stroke-width=".3"/><path d="M243 432l28 3.7-24.5 57.6z" fill="#f09d01" fill-rule="evenodd" stroke="#f09d01" stroke-width=".3"/><path d="M271 435.7l11-56.4-39 52.7 28 3.7" fill="#e67b51" fill-rule="evenodd" stroke="#e67b51" stroke-width=".3"/><path d="M243 432l-59.5 11.5 43.5 17 16-28.5" fill="#b25f43" fill-rule="evenodd" stroke="#b25f43" stroke-width=".3"/><path d="M183.5 443.5l-62.6 20 40.5 7z" fill="#e3ac60" fill-rule="evenodd" stroke="#e3ac60" stroke-width=".3"/><path d="M183.5 443.5l-50.2 1.5-12.4 18.6 62.5-20" fill="none" fill-rule="evenodd" stroke-width=".3"/><path d="M133.3 445L123 409.8l-2 53.8 12.3-18.6" fill="#cbb998" fill-rule="evenodd" stroke="#cbb998" stroke-width=".3"/><path d="M123 409.8l39.3-67.7-29 103z" fill="#db7300" fill-rule="evenodd" stroke="#db7300" stroke-width=".3"/><path d="M133.3 445l60.8-42.8-31.7-60z" fill="#d05100" fill-rule="evenodd" stroke="#d05100" stroke-width=".3"/><path d="M194 402.2l-10.5 41.3-50.2 1.5z" fill="#b43a2e" fill-rule="evenodd" stroke="#b43a2e" stroke-width=".3"/><path d="M194 402.2l49 29.8-59.5 11.5z" fill="none" fill-rule="evenodd" stroke-width=".3"/><path d="M194 402.2l31.8-48.4-63.5-11.7 31.8 60.2" fill="#912f30" fill-rule="evenodd" stroke="#912f30" stroke-width=".3"/><path d="M194 402.2l88-23-39 52.8z" fill="#b0513f" fill-rule="evenodd" stroke="#b0513f" stroke-width=".3"/><path d="M282 379.3L226 353.8 194 402.2z" fill="#a14840" fill-rule="evenodd" stroke="#a14840" stroke-width=".3"/><path d="M282 379.3l39 33.2-50 23.2 11-56.4" fill="#ffb600" fill-rule="evenodd" stroke="#ffb600" stroke-width=".3"/><path d="M123 409.8l1.3-50.4 38-17.3z" fill="#c54e2c" fill-rule="evenodd" stroke="#c54e2c" stroke-width=".3"/><path d="M124.3 359.4l-45.5-18.7 44.2 69 1.3-50.3" fill="#d89a69" fill-rule="evenodd" stroke="#d89a69" stroke-width=".3"/><path d="M124.3 359.4l-45.5-18.7 83.5 1.4-38 17.4" fill="#982e34" fill-rule="evenodd" stroke="#982e34" stroke-width=".3"/><path d="M162.3 342l-83.5-1.3-12.6-13.3 96 14.7" fill="#333538" fill-rule="evenodd" stroke="#333538" stroke-width=".3"/><path d="M162.3 342L147 324 66 327.4z" fill="#76878b" fill-rule="evenodd" stroke="#76878b" stroke-width=".3"/><path d="M162.3 342l112.4-4.6-49 16.4z" fill="#7d2d29" fill-rule="evenodd" stroke="#7d2d29" stroke-width=".3"/><path d="M225.8 353.8l49-16.4 7.3 42-56.2-25.6" fill="#dd6920" fill-rule="evenodd" stroke="#dd6920" stroke-width=".3"/><path d="M147 324l73 6.5-57.7 11.6-15.4-18" fill="#233a4a" fill-rule="evenodd" stroke="#233a4a" stroke-width=".3"/><path d="M220 330.5l54.7 7-112.4 4.6z" fill="#849b97" fill-rule="evenodd" stroke="#849b97" stroke-width=".3"/><path d="M220 330.5l39-6.2 15.7 13-54.6-6.8" fill="#2f2d28" fill-rule="evenodd" stroke="#2f2d28" stroke-width=".3"/><path d="M274.7 337.4l55 2.4-47.6 39.5z" fill="#ff7c00" fill-rule="evenodd" stroke="#ff7c00" stroke-width=".3"/><path d="M329.6 339.8l-8.5 72.7-39-33.2z" fill="#ffa300" fill-rule="evenodd" stroke="#ffa300" stroke-width=".3"/><path d="M329.6 339.8l32.8 30.8-41.3 42z" fill="#facd0a" fill-rule="evenodd" stroke="#facd0a" stroke-width=".3"/><path d="M329.6 339.8l40-2-7.2 32.8-32.8-30.8" fill="#ffdc8e" fill-rule="evenodd" stroke="#ffdc8e" stroke-width=".3"/><path d="M329.6 339.8L259 324.3l15.7 13z" fill="#1b3464" fill-rule="evenodd" stroke="#1b3464" stroke-width=".3"/><path d="M329.6 339.8l55.2-13.4-15.2 11.4z" fill="#4a6565" fill-rule="evenodd" stroke="#4a6565" stroke-width=".3"/><path d="M329.6 339.8L259 324.3l125.8 2z" fill="#88888d" fill-rule="evenodd" stroke="#88888d" stroke-width=".3"/><path d="M133.3 445L121 463.6l62.5-20-50.2 1.4" fill="#f87907" fill-rule="evenodd" stroke="#f87907" stroke-width=".3"/><path d="M194 402.2l-10.5 41.3L243 432l-49-29.8" fill="#9a4330" fill-rule="evenodd" stroke="#9a4330" stroke-width=".3"/><path d="M174.4 317.6L183 307l-31-7.5z" fill="none" fill-rule="evenodd" stroke="#000" stroke-width=".3"/><path d="M174.3 318l-30.3-9.4 8-9 22.3 18.5" fill="#8b6fb9" fill-rule="evenodd" stroke="#8b6fb9" stroke-width=".3"/><path d="M144 308.6l-.4 12.8 40-.4-39.6-12.4" fill="#5b1746" fill-rule="evenodd" stroke="#5b1746" stroke-width=".3"/><path d="M183.5 321l-9.2-3 8.8-11z" fill="#59185f" fill-rule="evenodd" stroke="#59185f" stroke-width=".3"/><path d="M144 308.6l-16.2-8 24-1z" fill="#cebce1" fill-rule="evenodd" stroke="#cebce1" stroke-width=".3"/><path d="M152 299.5h28.5l2.6 7.6z" fill="#e7c0e2" fill-rule="evenodd" stroke="#e7c0e2" stroke-width=".3"/><path d="M180.5 299.5l2.6 7.6 23.8-2.6-3-3.7-23.3-1.2" fill="#f2ddf7" fill-rule="evenodd" stroke="#f2ddf7" stroke-width=".3"/><path d="M143.2 317l-3.5-8-6-1.5-6-6.8 16.3 8z" fill="#724671" fill-rule="evenodd" stroke="#724671" stroke-width=".3"/><path d="M133.6 307.5L126 309l-9-6 13 .5 3.6 4" fill="#4d263e" fill-rule="evenodd" stroke="#4d263e" stroke-width=".3"/><path d="M126 309l-5 6.2v5.3h-8.2l-1.2-9 5.5-8.6 9 6" fill="#542c48" fill-rule="evenodd" stroke="#542c48" stroke-width=".3"/><path d="M127.8 300.7l1.2-5.5 9.5-5.6 9.5-1.4-.2-2.8-10.6 2.2-9.3 4-6.8 6-4 5.3 12.8.5-2.2-2.8" fill="#b9a9cc" fill-rule="evenodd" stroke="#b9a9cc" stroke-width=".3"/><path d="M148 288.2l-.2 11.5 4-.2-.4-12 12.4.7 4 1.3 6.8 6 2 4.2 4-.2-4-4.5-7-8-2.7-1-19.2-.6.2 2.8" fill="#cbbbdb" fill-rule="evenodd" stroke="#cbbbdb" stroke-width=".3"/><path d="M183.5 321h2.8l-.4-6.3 5.3-5.8 8.4-.5 4.4 4 2 6 5-3.8-.2-4.8h-2l-2-5.6L183 307l.5 14" fill="#642c59" fill-rule="evenodd" stroke="#642c59" stroke-width=".3"/><g stroke-width=".2" fill-rule="evenodd"><path d="M123.2 315v5.8l2.4 5 4.8 2.2 5.4-.4 4.6-4.4 1.4-4.6-1.6-4.6-3.3-3.6-4.8-1.2-5.3 1.6z" fill="#182825" stroke="#182825" stroke-width=".20398800000000003"/><path d="M128 315.3l-1 1.7v3.5l2.5 3 3 1.3 3.7-2z" fill="#567d7b" stroke="#567d7b" stroke-width=".20398800000000003"/><path d="M128 315.3l1.5-1.6 4.3-.2 3.4 2.8 1 3.5-2 3-8.2-7.5" fill="#78cfc6" stroke="#78cfc6" stroke-width=".20398800000000003"/><path d="M130.2 317v2.8l1.2 1.2h2l1-1.3.2-2.2-1.3-1.3h-2.5l-.5 1" fill="#edfbf3" stroke="#edfbf3" stroke-width=".20398800000000003"/></g><g stroke-width=".2" fill-rule="evenodd"><path d="M186.8 314.5v5.7l2.4 5 4.8 2.2 5.5-.4 4.5-4.4 1.5-4.5-1.6-4.6-3.5-3.6-4.6-1.2-5.5 1.6z" fill="#182825" stroke="#182825" stroke-width=".20398800000000003"/><path d="M191.6 314.7l-1 1.7v3.6l2.5 3 3 1.2 3.8-2z" fill="#567d7b" stroke="#567d7b" stroke-width=".20398800000000003"/><path d="M191.6 314.7l1.5-1.6h4.5l3.3 2.7 1 3.5-2 3-8.2-7.5" fill="#78cfc6" stroke="#78cfc6" stroke-width=".20398800000000003"/><path d="M193.8 316.6v2.6l1.2 1.2h2l1-1.3.2-2-1.3-1.4h-2.6l-.5 1.2" fill="#edfbf3" stroke="#edfbf3" stroke-width=".20398800000000003"/></g><path d="M152 299.5l22.3 18.6 8.8-11z" fill="#ca9ed4" fill-rule="evenodd" stroke="#ca9ed4" stroke-width=".3"/><path d="M129 295.2l-1.2 5.5 20-1 .2-11.5-9.5 1.4z" fill="#59185f" fill-rule="evenodd" stroke="#59185f" stroke-width=".3"/><path d="M151.4 287.4l.5 12 24.6.3-2-4-6.8-6.2-4-1.3z" fill="#433559" fill-rule="evenodd" stroke="#433559" stroke-width=".3"/><g fill-rule="evenodd" stroke-width=".3"><path d="M94.5 327l-2-39.4-2.2 29.2z" fill="#a26146" stroke="#a26146" stroke-width=".239853"/><path d="M90.3 316.8l-.7 7 5 3z" fill="#583525" stroke="#583525" stroke-width=".239853"/><path d="M89.6 323.7l-3 3.4h8l-5-3.3" fill="#66493a" stroke="#66493a" stroke-width=".239853"/></g><g stroke-width=".2" fill-rule="evenodd"><path d="M71.8 298.3L70 274.6l18.6 18z" fill="#0483a2" stroke="#0483a2" stroke-width=".22162000000000004"/><path d="M70 274.6l21.5 6.7-11-11.6-10.4 5" fill="#268a9b" stroke="#268a9b" stroke-width=".22162000000000004"/><path d="M80.5 269.7l9.2-1.2 1.8 12.8z" fill="#056e88" stroke="#056e88" stroke-width=".22162000000000004"/><path d="M80.5 269.7l4.6-10.4 4.7 9.2z" fill="#298c9d" stroke="#298c9d" stroke-width=".22162000000000004"/><path d="M89.7 268.5l1.5-8-6-1.2z" fill="#0b7384" stroke="#0b7384" stroke-width=".22162000000000004"/><path d="M91.2 260.4l8.4 4.7-10 3.5 1.6-8" fill="#07afbe" stroke="#07afbe" stroke-width=".22162000000000004"/><path d="M91.2 260.4l6.3-7.2 2 12z" fill="#0e9fb0" stroke="#0e9fb0" stroke-width=".22162000000000004"/><path d="M99.6 265l7.8 2.4-10-14.2z" fill="#428daa" stroke="#428daa" stroke-width=".22162000000000004"/><path d="M99.6 265l-10 3.5 6.2 3.8z" fill="#1ad5e3" stroke="#1ad5e3" stroke-width=".22162000000000004"/><path d="M95.8 272.3l11.6-5-7.8-2.2z" fill="#38aab7" stroke="#38aab7" stroke-width=".22162000000000004"/><path d="M95.8 272.3l4.3 5.2 7.4-10z" fill="#7cd3df" stroke="#7cd3df" stroke-width=".22162000000000004"/><path d="M95.8 272.3l-4.3 9 8.6-3.8z" fill="#3b9aab" stroke="#3b9aab" stroke-width=".22162000000000004"/><path d="M95.8 272.3l-6-3.8 1.7 12.8z" fill="#227c95" stroke="#227c95" stroke-width=".22162000000000004"/><path d="M91.5 281.3l-3 11.2-18.4-18z" fill="#4595b6" stroke="#4595b6" stroke-width=".22162000000000004"/><path d="M88.6 292.5l3.5 9.3-4.3 1.4-16-5z" fill="#0e9fc5" stroke="#0e9fc5" stroke-width=".22162000000000004"/><path d="M92 301.8l6.4-4-9.8-5.3z" fill="#7aedfb" stroke="#7aedfb" stroke-width=".22162000000000004"/><path d="M98.4 297.7l-7-16.4-2.8 11.2z" fill="#55aebe" stroke="#55aebe" stroke-width=".22162000000000004"/><path d="M98.4 297.7l3-5.2-10-11.2 7 16.4" fill="#358c97" stroke="#358c97" stroke-width=".22162000000000004"/><path d="M101.3 292.5l7.5-2.6-17.3-8.7z" fill="#1da9b4" stroke="#000" stroke-opacity="0" stroke-width=".22162000000000004"/><path d="M108.8 290l7.8-10.8-16.5-1.7-8.5 3.8z" fill="#78edf7" stroke="#78edf7" stroke-width=".22162000000000004"/><path d="M116.6 279.2l-9.2-11.8-7.3 10z" fill="#9ff7fe" stroke="#9ff7fe" stroke-width=".22162000000000004"/><path d="M108.8 290l-2.6 4.8-5-2.3z" fill="#9aeef7" stroke="#9aeef7" stroke-width=".22162000000000004"/><path d="M101.3 292.5l5 2.3.2 15.7-8-12.8z" fill="#a6ebf1" stroke="#a6ebf1" stroke-width=".22162000000000004"/><path d="M98.4 297.7l-6.3 4 14.5 8.8z" fill="#7d93b6" stroke="#7d93b6" stroke-width=".22162000000000004"/><path d="M92 301.8l3.5 9.5 11-.8z" fill="#abe4f1" stroke="#abe4f1" stroke-width=".22162000000000004"/><path d="M92 301.8l-4.3 1.4 7.8 8z" fill="#9dc3da" stroke="#9dc3da" stroke-width=".22162000000000004"/></g><path d="M351 281l15.4 1.4 1.6-13z" fill="none" fill-rule="evenodd" stroke="#000" stroke-width=".3"/><path d="M351 281l15.4 1.4-4.4 12z" fill="#1e8a9c" fill-rule="evenodd" stroke="#1e8a9c" stroke-width=".3"/><path d="M366.6 291.3l-.2-9-4.4 12z" fill="#097081" fill-rule="evenodd" stroke="#097081" stroke-width=".3"/><path d="M366.6 291.3l-.2-9 2.6 10.2z" fill="#067186" fill-rule="evenodd" stroke="#000" stroke-width=".3" stroke-opacity="0"/><path d="M351 281l1.7-13.7 15.3 2z" fill="#1e8a9e" fill-rule="evenodd" stroke="#000" stroke-width=".3" stroke-opacity="0"/><path d="M373 278.7l-6.6 3.7 1.6-13z" fill="#208499" fill-rule="evenodd" stroke="#208499" stroke-width=".3"/><path d="M373 278.7l4.4-4.7-9.4-4.6z" fill="#3c93ab" fill-rule="evenodd" stroke="#000" stroke-width=".3" stroke-opacity="0"/><path d="M373 278.7l4.4-4.7 12 12.2z" fill="#81d8d9" fill-rule="evenodd" stroke="#81d8d9" stroke-width=".3"/><path d="M373 278.7l3 7.5h13.3z" fill="#3ba8ba" fill-rule="evenodd" stroke="#3ba8ba" stroke-width=".3"/><path d="M373 278.7l3 7.5-9.6-3.8z" fill="#0cdbe3" fill-rule="evenodd" stroke="#000" stroke-width=".3" stroke-opacity="0"/><path d="M369 292.5l7-6.3-9.6-3.8z" fill="#06abbc" fill-rule="evenodd" stroke="#000" stroke-width=".3" stroke-opacity="0"/><path d="M369 292.5l7-6.3-2 12.7z" fill="#03a3ae" fill-rule="evenodd" stroke="#03a3ae" stroke-width=".3"/><path d="M389.3 286.2H376l-2 12.7z" fill="#3694a7" fill-rule="evenodd" stroke="#3694a7" stroke-width=".3"/><path d="M387.8 270l-10.4 4 12 12.2z" fill="#9ef8fd" fill-rule="evenodd" stroke="#000" stroke-width=".3" stroke-opacity="0"/><path d="M387.8 270l-10.4 4-9.4-4.6z" fill="#60c8d3" fill-rule="evenodd" stroke="#000" stroke-width=".3" stroke-opacity="0"/><path d="M387.8 270l5.5-12.4-25.3 11.8z" fill="#7beefd" fill-rule="evenodd" stroke="#000" stroke-width=".3" stroke-opacity="0"/><path d="M379 256l14.3 1.6-25.3 11.8z" fill="#23a8bd" fill-rule="evenodd" stroke="#000" stroke-width=".3" stroke-opacity="0"/><path d="M379 256l-3.8-5-7.2 18.4z" fill="#398b9f" fill-rule="evenodd" stroke="#398b9f" stroke-width=".3"/><path d="M366 257l9.2-6-7.2 18.4z" fill="#53aec0" fill-rule="evenodd" stroke="#000" stroke-width=".3" stroke-opacity="0"/><path d="M366 257l-13.3 10.3 15.3 2z" fill="#4695b6" fill-rule="evenodd" stroke="#4695b6" stroke-width=".3"/><path d="M366 257l-13.3 10.3-5-7.8z" fill="#0783a1" fill-rule="evenodd" stroke="#000" stroke-width=".3" stroke-opacity="0"/><path d="M366 257l2.3-9.4-20.6 12z" fill="#05a1bf" fill-rule="evenodd" stroke="#05a1bf" stroke-width=".3"/><path d="M366 257l2.3-9.4 7 3.3z" fill="#79eefc" fill-rule="evenodd" stroke="#000" stroke-width=".3" stroke-opacity="0"/><path d="M380.4 249.3l-12-1.7 6.8 3.3z" fill="#729ab4" fill-rule="evenodd" stroke="#000" stroke-width=".3" stroke-opacity="0"/><path d="M380.4 249.3l13 8.3-14.5-1.5-3.8-5z" fill="#b0e8f5" fill-rule="evenodd" stroke="#000" stroke-width=".3" stroke-opacity="0"/><path d="M357.4 243l11 4.6-20.7 12z" fill="#64b1d4" fill-rule="evenodd" stroke="#000" stroke-width=".3" stroke-opacity="0"/><path d="M357.4 243l11 4.6 4.6-11.2z" fill="#95c6e6" fill-rule="evenodd" stroke="#000" stroke-width=".3" stroke-opacity="0"/><path d="M380.4 249.3l-12-1.7 4.6-11.2z" fill="#b0e4f4" fill-rule="evenodd" stroke="#000" stroke-width=".3" stroke-opacity="0"/><path d="M351 281l15.4 1.4 1.6-13z" fill="#036e86" fill-rule="evenodd" stroke="#036e86" stroke-width=".3"/><path d="M366.6 291.3l-.6 17 3-15.8z" fill="#735d1a" fill-rule="evenodd" stroke="#000" stroke-width=".3" stroke-opacity="0"/><path d="M369.4 326.2l-3.4-17.8 3-16z" fill="#a17c59" fill-rule="evenodd" stroke="#c59c68" stroke-width=".3"/><path d="M369.4 326.2l-3.4-17.8-1.4 14.4z" fill="#4f3424" fill-rule="evenodd" stroke="#4f3424" stroke-width=".3"/><path d="M369.4 326.2l-.2 3.2-4.6-6.6z" fill="#542f18" fill-rule="evenodd" stroke="#542f18" stroke-width=".3"/><path d="M365 328.6l4.2.8-4.6-6.6z" fill="#704a2c" fill-rule="evenodd" stroke="#704a2c" stroke-width=".3"/><path d="M365 328.6l-3-1 2.6-4.8z" fill="#5a4338" fill-rule="evenodd" stroke="#5a4338" stroke-width=".3"/></g><g id="c" opacity=".5" fill-rule="evenodd"><path d="M364.4 275l-4.2 3.2L379 295z" fill="#dedede" stroke="#dedede" transform="matrix(.2294 0 0 .255 977.098 119.385)"/><path d="M364.4 275l14 2.7.6 17.2z" fill="#eeecef" stroke="#eeecef" transform="matrix(.2294 0 0 .255 977.098 119.385)"/><path d="M378.5 277.7l20.8 19.8L379 295l-.5-17.3z" fill="#eae9ea" stroke="#eae9ea" transform="matrix(.2294 0 0 .255 977.098 119.385)"/><path d="M378.5 277.7l14.6-8.3 6.3 28z" fill="#e2e1e0" stroke="#e2e1e0" transform="matrix(.2294 0 0 .255 977.098 119.385)"/><path d="M393 269.4l9 4 6.7 2.7-9.4 21.5z" fill="#d4d0d1" stroke="#d4d0d1" transform="matrix(.2294 0 0 .255 977.098 119.385)"/><path d="M408.2 263l29.2 10.5-28.7 2.6z" fill="#e3ebec" stroke="#e3ebec" transform="matrix(.2294 0 0 .255 977.098 119.385)"/><path d="M408.7 276l22 8 6.7-10.5z" fill="#c6c4c5" stroke="#c6c4c5" transform="matrix(.2294 0 0 .255 977.098 119.385)"/><path d="M408.7 276l-9.4 21.5 31.4-13.5z" fill="#dadbdd" stroke="#dadbdd" transform="matrix(.2294 0 0 .255 977.098 119.385)"/><path d="M399.3 297.5l34-7.8-2.6-5.7z" fill="#eaeaec" stroke="#eaeaec" transform="matrix(.2294 0 0 .255 977.098 119.385)"/><path d="M433.3 289.7l19.3 1.6-15.2-17.8-6.7 10.5z" fill="#ddd9dd" stroke="#ddd9dd" transform="matrix(.2294 0 0 .255 977.098 119.385)"/><path d="M437.4 273.5l25.6 2-10.4 15.8-15.2-17.8z" fill="#ebebeb" stroke="#ebebeb" transform="matrix(.2294 0 0 .255 977.098 119.385)"/><path d="M437.4 273.5l25.6 2-36-29-18.8 16.6z" fill="#f4f5f5" stroke="#f4f5f5" transform="matrix(.2294 0 0 .255 977.098 119.385)"/><path d="M427 246.4l-9-9-3 3.8-2.6-.6-4.2 22.5z" fill="#fcfcfc" stroke="#fcfcfc" transform="matrix(.2294 0 0 .255 977.098 119.385)"/><path d="M412.4 240.6l-7.8 12-3.2 2.7 6.8 7.8z" fill="#e9eaea" stroke="#e9eaea" transform="matrix(.2294 0 0 .255 977.098 119.385)"/><path d="M401.4 255.3h-10l-5 4 6.7 10 15.2-6.2-6.8-7.7z" fill="#e2e9eb" stroke="#e2e9eb" transform="matrix(.2294 0 0 .255 977.098 119.385)"/><path d="M386.3 259.4l-22 15.7 14.2 2.7 14.6-8.3z" fill="#f6f7f6" stroke="#f6f7f6" transform="matrix(.2294 0 0 .255 977.098 119.385)"/><path d="M393 269.4l15.2-6.3.5 13-6.8-2.5z" fill="#d8d3d7" stroke="#d8d3d7" transform="matrix(.2294 0 0 .255 977.098 119.385)"/><g stroke-width=".8"><path d="M364.4 275l-4.2 3.2L379 295z" fill="#dedede" stroke="#dedede" transform="matrix(-.2968 0 0 .306 1220.81 97.98)"/><path d="M364.4 275l14 2.7.6 17.2z" fill="#eeecef" stroke="#eeecef" transform="matrix(-.2968 0 0 .306 1220.81 97.98)"/><path d="M378.5 277.7l20.8 19.8L379 295l-.5-17.3z" fill="#eae9ea" stroke="#eae9ea" transform="matrix(-.2968 0 0 .306 1220.81 97.98)"/><path d="M378.5 277.7l14.6-8.3 6.3 28z" fill="#e2e1e0" stroke="#e2e1e0" transform="matrix(-.2968 0 0 .306 1220.81 97.98)"/><path d="M393 269.4l9 4 6.7 2.7-9.4 21.5z" fill="#d4d0d1" stroke="#d4d0d1" transform="matrix(-.2968 0 0 .306 1220.81 97.98)"/><path d="M408.2 263l29.2 10.5-28.7 2.6z" fill="#e3ebec" stroke="#e3ebec" transform="matrix(-.2968 0 0 .306 1220.81 97.98)"/><path d="M408.7 276l22 8 6.7-10.5z" fill="#c6c4c5" stroke="#c6c4c5" transform="matrix(-.2968 0 0 .306 1220.81 97.98)"/><path d="M408.7 276l-9.4 21.5 31.4-13.5z" fill="#dadbdd" stroke="#dadbdd" transform="matrix(-.2968 0 0 .306 1220.81 97.98)"/><path d="M399.3 297.5l34-7.8-2.6-5.7z" fill="#eaeaec" stroke="#eaeaec" transform="matrix(-.2968 0 0 .306 1220.81 97.98)"/><path d="M433.3 289.7l19.3 1.6-15.2-17.8-6.7 10.5z" fill="#ddd9dd" stroke="#ddd9dd" transform="matrix(-.2968 0 0 .306 1220.81 97.98)"/><path d="M437.4 273.5l25.6 2-10.4 15.8-15.2-17.8z" fill="#ebebeb" stroke="#ebebeb" transform="matrix(-.2968 0 0 .306 1220.81 97.98)"/><path d="M437.4 273.5l25.6 2-36-29-18.8 16.6z" fill="#f4f5f5" stroke="#f4f5f5" transform="matrix(-.2968 0 0 .306 1220.81 97.98)"/><path d="M427 246.4l-9-9-3 3.8-2.6-.6-4.2 22.5z" fill="#fcfcfc" stroke="#fcfcfc" transform="matrix(-.2968 0 0 .306 1220.81 97.98)"/><path d="M412.4 240.6l-7.8 12-3.2 2.7 6.8 7.8z" fill="#e9eaea" stroke="#e9eaea" transform="matrix(-.2968 0 0 .306 1220.81 97.98)"/><path d="M401.4 255.3h-10l-5 4 6.7 10 15.2-6.2-6.8-7.7z" fill="#e2e9eb" stroke="#e2e9eb" transform="matrix(-.2968 0 0 .306 1220.81 97.98)"/><path d="M386.3 259.4l-22 15.7 14.2 2.7 14.6-8.3z" fill="#f6f7f6" stroke="#f6f7f6" transform="matrix(-.2968 0 0 .306 1220.81 97.98)"/><path d="M393 269.4l15.2-6.3.5 13-6.8-2.5z" fill="#d8d3d7" stroke="#d8d3d7" transform="matrix(-.2968 0 0 .306 1220.81 97.98)"/></g><g stroke-width="1.3"><path d="M364.4 275l-4.2 3.2L379 295z" fill="#dedede" stroke="#dedede" transform="matrix(.1695 0 0 .2037 1054.168 134.692)"/><path d="M364.4 275l14 2.7.6 17.2z" fill="#eeecef" stroke="#eeecef" transform="matrix(.1695 0 0 .2037 1054.168 134.692)"/><path d="M378.5 277.7l20.8 19.8L379 295l-.5-17.3z" fill="#eae9ea" stroke="#eae9ea" transform="matrix(.1695 0 0 .2037 1054.168 134.692)"/><path d="M378.5 277.7l14.6-8.3 6.3 28z" fill="#e2e1e0" stroke="#e2e1e0" transform="matrix(.1695 0 0 .2037 1054.168 134.692)"/><path d="M393 269.4l9 4 6.7 2.7-9.4 21.5z" fill="#d4d0d1" stroke="#d4d0d1" transform="matrix(.1695 0 0 .2037 1054.168 134.692)"/><path d="M408.2 263l29.2 10.5-28.7 2.6z" fill="#e3ebec" stroke="#e3ebec" transform="matrix(.1695 0 0 .2037 1054.168 134.692)"/><path d="M408.7 276l22 8 6.7-10.5z" fill="#c6c4c5" stroke="#c6c4c5" transform="matrix(.1695 0 0 .2037 1054.168 134.692)"/><path d="M408.7 276l-9.4 21.5 31.4-13.5z" fill="#dadbdd" stroke="#dadbdd" transform="matrix(.1695 0 0 .2037 1054.168 134.692)"/><path d="M399.3 297.5l34-7.8-2.6-5.7z" fill="#eaeaec" stroke="#eaeaec" transform="matrix(.1695 0 0 .2037 1054.168 134.692)"/><path d="M433.3 289.7l19.3 1.6-15.2-17.8-6.7 10.5z" fill="#ddd9dd" stroke="#ddd9dd" transform="matrix(.1695 0 0 .2037 1054.168 134.692)"/><path d="M437.4 273.5l25.6 2-10.4 15.8-15.2-17.8z" fill="#ebebeb" stroke="#ebebeb" transform="matrix(.1695 0 0 .2037 1054.168 134.692)"/><path d="M437.4 273.5l25.6 2-36-29-18.8 16.6z" fill="#f4f5f5" stroke="#f4f5f5" transform="matrix(.1695 0 0 .2037 1054.168 134.692)"/><path d="M427 246.4l-9-9-3 3.8-2.6-.6-4.2 22.5z" fill="#fcfcfc" stroke="#fcfcfc" transform="matrix(.1695 0 0 .2037 1054.168 134.692)"/><path d="M412.4 240.6l-7.8 12-3.2 2.7 6.8 7.8z" fill="#e9eaea" stroke="#e9eaea" transform="matrix(.1695 0 0 .2037 1054.168 134.692)"/><path d="M401.4 255.3h-10l-5 4 6.7 10 15.2-6.2-6.8-7.7z" fill="#e2e9eb" stroke="#e2e9eb" transform="matrix(.1695 0 0 .2037 1054.168 134.692)"/><path d="M386.3 259.4l-22 15.7 14.2 2.7 14.6-8.3z" fill="#f6f7f6" stroke="#f6f7f6" transform="matrix(.1695 0 0 .2037 1054.168 134.692)"/><path d="M393 269.4l15.2-6.3.5 13-6.8-2.5z" fill="#d8d3d7" stroke="#d8d3d7" transform="matrix(.1695 0 0 .2037 1054.168 134.692)"/></g><path d="M1122.8 257v-27.5l-14.2 7.7v-7.5l-16 7.3v-7.3l-15 8.7v3.8L1065 246V257z" fill="#b2b2b2" stroke="#000" stroke-width=".3" stroke-opacity="0"/><path d="M1048 258l4.3-62.6h5.3l2 62.5z" fill="#b2b2b2" stroke="#b2b2b2" stroke-width=".3"/><path d="M1036.2 258l4.2-62.6h5.4l2 62.5z" fill="#b2b2b2" stroke="#000" stroke-width=".3" stroke-opacity="0"/><path d="M1036.2 258l4.2-62.6 1.2 44.3 6 18.2zM1048 258l4.3-62.6 1 46 6.3 16.5z" fill="#4b4b4b" stroke="#4b4b4b" stroke-width=".3"/><path d="M1093.7 257h29v-23.3l-14 3.5v-3.4l-16 3.2v-3.3l-15 4.7v6.8l-13 .7 14.2 6v5z" fill="#929292" stroke="#929292" stroke-width=".3"/><path d="M1067.3 257.2v-10h8.8v10z" fill="#373737" stroke="#373737" stroke-width=".3"/><path d="M1122.8 252h-44v-7h44z" fill="#333538" stroke="#000" stroke-width=".3" stroke-opacity="0"/><path d="M1083.2 320.6l-12.8-7.7 16.2-1z" fill="#d3ab01" stroke="#d3ab01" stroke-width=".3"/><path d="M1070.4 313l12-13.3 5.5 11.5-1.4.7z" fill="#c47d01" stroke="#c47d01" stroke-width=".3"/><path d="M1070.4 313l-2.2-18.8 14.2 5.5z" fill="#d48121" stroke="#d48121" stroke-width=".3"/><path d="M1070.4 313l-9.4-10 7.2-8.8 2.2 18.7" fill="#f59230" stroke="#f59230" stroke-width=".3"/><path d="M1082.4 299.7l-1-8 10 12.5-3.5 7z" fill="#eaae55" stroke="#eaae55" stroke-width=".3"/><path d="M1081.5 291.6l19.8.7-10 12z" fill="#f09d01" stroke="#f09d01" stroke-width=".3"/><path d="M1099.5 277.6l-18 14 19.8.7" fill="#e67b51" stroke="#e67b51" stroke-width=".3"/><path d="M1081.5 291.6l-13.3 2.6 14.2 5.5-.8-8" fill="#b25f43" stroke="#b25f43" stroke-width=".3"/><path d="M1068.2 294.2L1057 300l4 3z" fill="#e3ac60" stroke="#e3ac60" stroke-width=".3"/><path d="M1056.4 289.2l-8-6 .8 6.2 2.6 5.3" fill="#cbb998" stroke="#cbb998" stroke-width=".3"/><path d="M1048.4 283.2l13-22-5 28z" fill="#db7300" stroke="#db7300" stroke-width=".3"/><path d="M1056.4 289.2l15.2-8.5-10.3-19.6z" fill="#d05100" stroke="#d05100" stroke-width=".3"/><path d="M1071.6 280.7l-3.4 13.5-11.8-5z" fill="#b43a2e" stroke="#b43a2e" stroke-width=".3"/><path d="M1071.6 280.7l18-12.3-28.3-7.3 10.3 19.7" fill="#912f30" stroke="#912f30" stroke-width=".3"/><path d="M1071.6 280.7l28-3-18 14z" fill="#b0513f" stroke="#b0513f" stroke-width=".3"/><path d="M1099.5 277.6l-9.8-9.2-18 12.3z" fill="#a14840" stroke="#a14840" stroke-width=".3"/><path d="M1099.5 277.6l13.6 6.5-11.7 8.3-1.8-14.7" fill="#ffb600" stroke="#ffb600" stroke-width=".3"/><path d="M1048.4 283.2l-2-8.7 15-13.4z" fill="#c54e2c" stroke="#c54e2c" stroke-width=".3"/><path d="M1046.4 274.5l-12.4-14 14.4 22.7-2-8.7" fill="#d89a69" stroke="#d89a69" stroke-width=".3"/><path d="M1046.4 274.5l-12.4-14 27.3.6-15 13.5" fill="#982e34" stroke="#982e34" stroke-width=".3"/><path d="M1061.3 261l-27.3-.4-4.2-4.3 31.5 4.8" fill="#333538" stroke="#333538" stroke-width=".3"/><path d="M1061.3 261l-5-6-26.5 1.3z" fill="#76878b" stroke="#76878b" stroke-width=".3"/><path d="M1061.3 261l36.7-1.5-8.3 9z" fill="#7d2d29" stroke="#7d2d29" stroke-width=".3"/><path d="M1089.7 268.4l8.3-9 1.5 18.2-9.8-9.2" fill="#dd6920" stroke="#dd6920" stroke-width=".3"/><path d="M1056.2 255l24 2.3-19 3.8-5-6" fill="#233a4a" stroke="#233a4a" stroke-width=".3"/><path d="M1080 257.3l18 2.2-36.7 1.6z" fill="#849b97" stroke="#849b97" stroke-width=".3"/><path d="M1080 257.3l13-2 5 4.2-18-2.2" fill="#2f2d28" stroke="#2f2d28" stroke-width=".3"/><path d="M1098 259.5l18 .8-16.5 17.3z" fill="#ff7c00" stroke="#ff7c00" stroke-width=".3"/><path d="M1116 260.3l-3 23.8-13.5-6.4z" fill="#ffa300" stroke="#ffa300" stroke-width=".3"/><path d="M1116 260.3l10.6 10-13.5 13.8z" fill="#facd0a" stroke="#facd0a" stroke-width=".3"/><path d="M1116 260.3l13-.6-2.4 10.7-10.7-10" fill="#ffdc8e" stroke="#ffdc8e" stroke-width=".3"/><path d="M1116 260.3l-23-5 5 4.2z" fill="#1b3464" stroke="#1b3464" stroke-width=".3"/><path d="M1116 260.3l18-4.4-5 3.7z" fill="#4a6565" stroke="#4a6565" stroke-width=".3"/><path d="M1116 260.3l-23-5 41 .6z" fill="#88888d" stroke="#88888d" stroke-width=".3"/><path d="M1051.8 294.7l5.2 5.3 11.2-5.8-11.8-5" fill="#f87907" stroke="#f87907" stroke-width=".3"/><path d="M1071.6 280.7l-3.4 13.5 13.3-2.6-10-11" fill="#9a4330" stroke="#9a4330" stroke-width=".3"/><path d="M1035.5 256.6h2l-.3-5.7 3.7-4.2-1.3.6-2.4 2.5-.3-4-1 1v2.6l-3-2.8-.7.2 3.3 3.5z" fill="#784421" stroke-width=".3"/><path d="M1037.6 256.5l-1.7-7-3.7-2.5 3.3 3.5v6z" fill="#520" stroke-width=".3"/><path d="M1035 248.3v-4l-3 3.8z" fill="#3a6e31" stroke-width=".3"/><path d="M1032 248l3-3.8h-4l1 4-1.3-.5.3-3.5 1 4" fill="#538d41" stroke-width=".3"/><path d="M1030.7 247.7h-1.8l-1-2.3 3-1.2-.3 3.5" fill="#6ca049" stroke-width=".3"/><path d="M1028 245.4l-1 .5.7 2z" fill="#457040" stroke-width=".3"/><path d="M1027.7 248l1.2-.4-1-2.2-.3 2.5" fill="#4d7c47" stroke-width=".3"/><path d="M1035 248.3l3.8-1.7-2.5-1.5z" fill="none" stroke-width=".3"/><path d="M1036.3 245l-1.4-.8v4z" fill="#6fa951" stroke-width=".3"/><path d="M1038.8 246.6l2.5 1.4-6.3.3z" fill="#3b6124" stroke-width=".3"/><path d="M1041.3 248l2.6-1-2-1-.7 2" fill="#55834a" stroke-width=".3"/><path d="M1041.3 248l-2.5-1.4 3.3-.6z" fill="#568b42" stroke-width=".3"/><path d="M1038.8 246.6l-2.5-1.5 2-1.6 1.2 1.2-.7 2-2.5-1.5" fill="#508b38" stroke-width=".3"/><path d="M1039.5 244.6l2.6 1.4-3.2.6z" fill="#487d3a" stroke-width=".3"/><path d="M1044 247l.6-2-2.5 1 2 1" fill="#5e9140" stroke-width=".3"/><path d="M1042 246l-2.5-1.4 5 .5z" fill="#6da24b" stroke-width=".3"/><path d="M1039.5 244.6l1.8-2-3 .8 1.2 1.2" fill="none" stroke-width=".3"/><path d="M1041.3 242.7l3.3 2.4-5-.4z" fill="#77a950" stroke-width=".3"/><path d="M1041.3 242.7l1.7-.8 1.6 3z" fill="#7fae66" stroke-width=".3"/><path d="M1028 245.4l.2-2.7 1.6-.3 1.2 1.8z" fill="#487d3a" stroke-width=".3"/><path d="M1029.8 242.4l1.7-.3-.5 2.2z" fill="#689f4a" stroke-width=".3"/><path d="M1031.5 242l4 1-4.5 1.2z" fill="#58913b" stroke-width=".3"/><path d="M1035.4 243l-.5 1.2h-4l4.4-1.3" fill="#67a247" stroke-width=".3"/><path d="M1035.4 243l3 .4-2 1.7-1.5-.8z" fill="#508a34" stroke-width=".3"/><path d="M1031.5 242l1-3 3 4z" fill="#78ac4d" stroke-width=".3"/><path d="M1032.6 239l4.8 1.7 1 2.7-3-.5z" fill="#5c8b3b" stroke-width=".3"/><path d="M1032.6 239l3.2-1 1.6 2.7-4.8-1.8" fill="#80b558" stroke-width=".3"/><path d="M1035.8 238l5 1.6-3.4 1z" fill="#93c661" stroke-width=".3"/><path d="M1040.8 239.6l-2.4 3.8-1-2.7z" fill="none" stroke-width=".3"/><path d="M1040.8 239.6l2.2 2.3-1.7.7z" fill="#65964f" stroke-width=".3"/><path d="M1040.8 239.6l.5 3-3 .8z" fill="#78a949" stroke-width=".3"/><path d="M1036.3 245l-1.3 3.3 3.8-1.7-2.5-1.5" fill="#679d48" stroke-width=".3"/><path d="M1037.4 240.7l3.4-1-2.4 3.7z" fill="#58913b" stroke-width=".3"/><path d="M1041.3 242.7l-1.8 2-1-1.3 2.8-.7" fill="#5e9140" stroke-width=".3"/><g stroke-width=".8"><path d="M1051.5 256.4h1.4l-.3-7.2-1 2.6z" fill="#520"/><path d="M1051.6 251.8l1.3 4.6-.3-7.2z" fill="#803300"/></g><path d="M1053.3 240h-3.4l.8 3.3 3.2.3z" fill="#60920d" stroke="#60920d" stroke-width=".3"/><path d="M1053.3 240l3.5 2.2-2.8 1.4-.7-3.6" fill="#80a836" stroke="#77a140" stroke-width=".3"/><path d="M1054 243.6l1.5 2.2h2.3l1.7-1-2.7-2.6z" fill="#739431" stroke-width=".3"/><path d="M1049.3 246l1.5-2.7-1-3.3-2.6 1.4 1 4z" fill="#5c8b0f" stroke="#5c8b0f" stroke-width=".3"/><path d="M1046.6 245.5v-.8h-1.8l2.4-3.3 1 4" fill="#63890d" stroke="#63890d" stroke-width=".3"/><path d="M1044.8 244.6v3l1.8-2v-1" fill="#4d7c47" stroke="#4d7c47" stroke-width=".3"/><path d="M1045.4 249l4-3-1-.7-1.8.2-1.7 2.2z" fill="#60920d" stroke="#60920d" stroke-width=".3"/><path d="M1047.4 250.8l2.2.2 1-2-1.3-3-4 3z" fill="#739c19" stroke="#739c19" stroke-width=".3"/><path d="M1049.6 251h5.2l1-.8-3-1h-2.2l-1 1.8" fill="#77a140" stroke="#77a140" stroke-width=".3"/><path d="M1050.6 249l-1.3-3 3 1.6-1.7 1.5" fill="#71952e" stroke-width=".3"/><path d="M1052.2 247.6l3.3-1.8-2.8 3.4h-2z" fill="#6f962a" stroke-width=".3"/><path d="M1055.5 245.8l-2.8 3.4 3 1 .3-2.7 1.8-1.7h-2.3" fill="#678d34" stroke="#678d34" stroke-width=".3"/><path d="M1055.7 250.2l2.2-1.8-.2-2.6-1.8 1.7-.3 2.7" fill="#99c374" stroke-width=".3"/><path d="M1058 248.4l1.5-3.7-1.7 1z" fill="#77a140" stroke="#77a140" stroke-width=".3"/><path d="M1047.2 241.4l3.6 2-1-3.4zM1050.6 249l2 .2-.4-1.6z" fill="#4d7c47" stroke="#4d7c47" stroke-width=".3"/><path d="M1052.7 246.2l1.3-2.6 1.5 2.2-3.3 1.8z" fill="#77a140" stroke="#77a140" stroke-width=".3"/><path d="M1049.3 246l1.5-2.7 2 3-.6 1.3z" fill="#60920d" stroke="#60920d" stroke-width=".3"/><path d="M1050.8 243.3l3.2.3-1.3 2.6z" fill="#4d7c47" stroke="#4d7c47" stroke-width=".3"/></g><g id="b" opacity=".8" fill-rule="evenodd"><path d="M854.7 152l-2 1.8 9.4 9.4z" fill="#dedede" stroke="#dedede" stroke-width=".3"/><path d="M854.7 152l7 1.5.4 9.7z" fill="#eeecef" stroke="#eeecef" stroke-width=".3"/><path d="M861.8 153.5l10.6 11.2-10.3-1.5-.2-9.7z" fill="#eae9ea" stroke="#eae9ea" stroke-width=".3"/><path d="M861.8 153.5l7.4-4.6 3.2 15.7z" fill="#e2e1e0" stroke="#e2e1e0" stroke-width=".3"/><path d="M869.2 149l4.5 2.2 3.4 1.5-4.6 12z" fill="#d4d0d1" stroke="#d4d0d1" stroke-width=".3"/><path d="M876.8 145.3l14.8 6-14.5 1.4z" fill="#e3ebec" stroke="#e3ebec" stroke-width=".3"/><path d="M877 152.7l11.2 4.4 3.4-5.8z" fill="#c6c4c5" stroke="#c6c4c5" stroke-width=".3"/><path d="M877 152.7l-4.6 12 15.8-7.6z" fill="#dadbdd" stroke="#dadbdd" stroke-width=".3"/><path d="M872.4 164.7l17-4.4-1.2-3.2z" fill="#eaeaec" stroke="#eaeaec" stroke-width=".3"/><path d="M889.5 160.3l9.8 1-7.7-10-3.4 5.8z" fill="#ddd9dd" stroke="#ddd9dd" stroke-width=".3"/><path d="M891.6 151.2l13 1.2-5.3 8.8-7.7-10z" fill="#ebebeb" stroke="#ebebeb" stroke-width=".3"/><path d="M891.6 151.2l13 1.2-18.3-16.4-9.5 9.3z" fill="#f4f5f5" stroke="#f4f5f5" stroke-width=".3"/><path d="M886.3 136l-4.4-5-1.7 2-1.3-.3-2.2 12.6z" fill="#fcfcfc" stroke="#fcfcfc" stroke-width=".3"/><path d="M879 132.7l-4 6.8-1.6 1.4 3.4 4.3z" fill="#e9eaea" stroke="#e9eaea" stroke-width=".3"/><path d="M873.4 141h-5l-2.6 2.3 3.4 5.6 7.6-3.7-3.4-4.4z" fill="#e2e9eb" stroke="#e2e9eb" stroke-width=".3"/><path d="M865.8 143.3l-11 8.8 7 1.5 7.4-4.6z" fill="#f6f7f6" stroke="#f6f7f6" stroke-width=".3"/><path d="M869.2 149l7.6-3.7.3 7.4-3.3-1.5z" fill="#d8d3d7" stroke="#d8d3d7" stroke-width=".3"/><path d="M954 176.2l2.7 2-12.3 11.3z" fill="#dedede" stroke="#dedede" stroke-width=".3"/><path d="M954 176.2l-9.2 1.7-.4 11.5z" fill="#eeecef" stroke="#eeecef" stroke-width=".3"/><path d="M944.8 178L931 191.2l13.4-1.8.4-11.6z" fill="#eae9ea" stroke="#eae9ea" stroke-width=".3"/><path d="M944.8 178l-9.6-5.7-4 19z" fill="#e2e1e0" stroke="#e2e1e0" stroke-width=".3"/><path d="M935.2 172.3l-5.8 2.8-4.4 2 6 14.3z" fill="#d4d0d1" stroke="#d4d0d1" stroke-width=".3"/><path d="M925.3 168l-19 7 18.7 2z" fill="#e3ebec" stroke="#e3ebec" stroke-width=".3"/><path d="M925 177l-14.4 5-4.4-7z" fill="#c6c4c5" stroke="#c6c4c5" stroke-width=".3"/><path d="M925 177l6 14.3-20.4-9.2z" fill="#dadbdd" stroke="#dadbdd" stroke-width=".3"/><path d="M931 191.3l-22-5.3 1.6-4z" fill="#eaeaec" stroke="#eaeaec" stroke-width=".3"/><path d="M909 186l-12.7 1 10-12 4.3 7z" fill="#ddd9dd" stroke="#ddd9dd" stroke-width=".3"/><path d="M906.2 175l-16.7 1.5 6.8 10.6 10-12z" fill="#ebebeb" stroke="#ebebeb" stroke-width=".3"/><path d="M906.2 175l-16.7 1.5 23.5-19.7 12.3 11.3z" fill="#f4f5f5" stroke="#f4f5f5" stroke-width=".3"/><path d="M913 156.8l5.8-6 2 2.5 1.8-.4 2.7 15z" fill="#fcfcfc" stroke="#fcfcfc" stroke-width=".3"/><path d="M922.6 153l5 8 2 1.8-4.3 5.3z" fill="#e9eaea" stroke="#e9eaea" stroke-width=".3"/><path d="M929.7 162.8h6.5l3.4 2.8-4.4 6.7-10-4.2 4.5-5.2z" fill="#e2e9eb" stroke="#e2e9eb" stroke-width=".3"/><path d="M939.6 165.6l14.4 10.6-9.2 1.7-9.6-5.7z" fill="#f6f7f6" stroke="#f6f7f6" stroke-width=".3"/><path d="M935.2 172.3l-10-4.2-.2 9 4.4-2z" fill="#d8d3d7" stroke="#d8d3d7" stroke-width=".3"/><path d="M929.6 429l3-30-35.7-2z" fill="#d3ab01" stroke="#d3ab01" stroke-width=".3"/><path d="M932.7 399l-26.4-29-12.2 25.4 3 1.6z" fill="#c47d01" stroke="#c47d01" stroke-width=".3"/><path d="M932.7 399l4.8-41-31.2 12z" fill="#d48121" stroke="#d48121" stroke-width=".3"/><path d="M932.7 399l22.7-16-18-25-4.7 41" fill="#f59230" stroke="#f59230" stroke-width=".3"/><path d="M906.3 370l-18.8-10.4-8.4 33 15 2.8z" fill="#eaae55" stroke="#eaae55" stroke-width=".3"/><path d="M887.5 359.6l-15-6.8 6.6 40z" fill="#f09d01" stroke="#f09d01" stroke-width=".3"/><path d="M854.7 311.8l32.8 47.8-15-6.8z" fill="#e67b51" stroke="#e67b51" stroke-width=".3"/><path d="M937.5 358l-31.2 12-18.8-10.4z" fill="#b25f43" stroke="#b25f43" stroke-width=".3"/><path d="M937.5 358l45 14.4-27 10.5z" fill="#e3ac60" stroke="#e3ac60" stroke-width=".3"/><path d="M937.5 358l36 1 9 13.4-45-14.4" fill="none" stroke-width=".3"/><path d="M973.6 359l21.4-21.7-12.4 35-9-13.3" fill="#cbb998" stroke="#cbb998" stroke-width=".3"/><path d="M995 337.3L952.8 285l20.8 74z" fill="#db7300" stroke="#db7300" stroke-width=".3"/><path d="M973.6 359L930 328.2l22.8-43.2z" fill="#d05100" stroke="#d05100" stroke-width=".3"/><path d="M930 328.2l7.5 29.8 36 1z" fill="#b43a2e" stroke="#b43a2e" stroke-width=".3"/><path d="M930 328.2l-23-34.8L953 285l-23 43.2" fill="#912f30" stroke="#912f30" stroke-width=".3"/><path d="M930 328.2l-75.3-16.4 32.8 47.8z" fill="#b0513f" stroke="#b0513f" stroke-width=".3"/><path d="M854.7 311.8l52.4-18.4 23 34.8z" fill="#a14840" stroke="#a14840" stroke-width=".3"/><path d="M854.7 311.8l-18 9 35.8 32-17.8-41" fill="#ffb600" stroke="#ffb600" stroke-width=".3"/><path d="M995 337.3l-15-40L953 285z" fill="#c54e2c" stroke="#c54e2c" stroke-width=".3"/><path d="M980 297.4l33-13.4-18 53.3-15-40" fill="#d89a69" stroke="#d89a69" stroke-width=".3"/><path d="M980 297.4l33-13.4-60.2 1 27.3 12.4" fill="#982e34" stroke="#982e34" stroke-width=".3"/><path d="M952.8 285l60-1 9.2-9.6-69.2 10.6" fill="#333538" stroke="#333538" stroke-width=".3"/><path d="M952.8 285l11-13 58.2 2.4z" fill="#76878b" stroke="#76878b" stroke-width=".3"/><path d="M952.8 285l-81-3.4 35.3 11.8z" fill="#7d2d29" stroke="#7d2d29" stroke-width=".3"/><path d="M907 293.4l-35-11.8-17.3 30.2 52.4-18.4" fill="#dd6920" stroke="#dd6920" stroke-width=".3"/><path d="M963.8 272l-52.6 4.7 41.6 8.3 11-13" fill="#233a4a" stroke="#233a4a" stroke-width=".3"/><path d="M911.2 276.7l-39.3 5 80.8 3.3z" fill="#849b97" stroke="#849b97" stroke-width=".3"/><path d="M911.2 276.7l-28-4.5-11.3 9.4 39.2-5" fill="#2f2d28" stroke="#2f2d28" stroke-width=".3"/><path d="M872 281.6l-39.6 1.8 22.3 28.4z" fill="#ff7c00" stroke="#ff7c00" stroke-width=".3"/><path d="M832.4 283.4l4.4 37.5 18-9.2z" fill="#ffa300" stroke="#ffa300" stroke-width=".3"/><path d="M832.4 283.4l-23.6 22 28 15.5z" fill="#facd0a" stroke="#facd0a" stroke-width=".3"/><path d="M832.4 283.4l-28.8-1.5 5.2 23.5 23.6-22" fill="#ffdc8e" stroke="#ffdc8e" stroke-width=".3"/><path d="M832.4 283.4l50.7-11.2-11 9.4z" fill="#1b3464" stroke="#1b3464" stroke-width=".3"/><path d="M832.4 283.4l-39.7-9.7 11 8.2z" fill="#4a6565" stroke="#4a6565" stroke-width=".3"/><path d="M832.4 283.4l50.7-11.2-90.3 1.5z" fill="#88888d" stroke="#88888d" stroke-width=".3"/><path d="M973.6 359l9 13.4-45-14.4 36 1" fill="#f87907" stroke="#f87907" stroke-width=".3"/><path d="M930 328.2l7.5 29.8-50 1.6 42.4-31.4" fill="#9a4330" stroke="#9a4330" stroke-width=".3"/><g stroke-width=".4"><path d="M813.2 274.3h3l-.4-16-2.3 5.8z" fill="#520"/><path d="M813.5 264l2.7 10.2-.4-15.8z" fill="#803300"/></g><path d="M817 238.3h-7.3l2 7 7 .8z" fill="#89a02c" stroke="#89a02c" stroke-width=".3"/><path d="M817 238.3l7.8 4.7-6.2 3-1.5-7.7" fill="#80a836" stroke="#77a140" stroke-width=".3"/><path d="M818.6 246l3.4 5h5l3.7-2.6-6-5.4z" fill="#739431" stroke-width=".3"/><path d="M808.2 251.7l3.4-6.3-2-7-6 3 2.5 8.3z" fill="#668000" stroke="#668000" stroke-width=".3"/><path d="M802.4 250.4l-.3-2h-3.5l5-7 2.6 8.3" fill="#63890d" stroke="#63890d" stroke-width=".3"/><path d="M798.5 248.3l.2 6.8 3.7-4.6-.3-2" fill="#4d7c47" stroke="#4d7c47" stroke-width=".3"/><path d="M799.8 258l8.4-6.3-2-2-3.8.7-3.7 4.7z" fill="#60920d" stroke="#60920d" stroke-width=".3"/><path d="M804.2 262l4.6.5 2.4-4.3-3-6.5-8.4 6.2z" fill="#677821" stroke="#677821" stroke-width=".3"/><path d="M808.8 262.5l11.5-.2 2.2-1.8-6.7-2-4.6-.3-2.4 4.3" fill="#77a140" stroke="#77a140" stroke-width=".3"/><path d="M811.2 258.2l-3-6.5 6.4 3.3-3.4 3.2" fill="#71952e" stroke-width=".3"/><path d="M814.6 255l7.4-4-6.2 7.4-4.6-.2z" fill="#6f962a" stroke-width=".3"/><path d="M822 251l-6.2 7.4 6.7 2 .6-5.7 4-3.7h-5" fill="#8a0" stroke="#8a0" stroke-width=".3"/><path d="M822.5 260.5l4.7-4-.2-5.5-4 3.7-.5 5.8" fill="#99c374" stroke-width=".3"/><path d="M827.2 256.6l3.5-8.2-3.7 2.6z" fill="#77a140" stroke="#77a140" stroke-width=".3"/><path d="M803.6 241.3l8 4-2-7zM811.2 258.2l4.6.2-1.2-3.4z" fill="#4d7c47" stroke="#4d7c47" stroke-width=".3"/><path d="M815.8 251.8l2.8-5.7 3.4 5-7.4 4z" fill="#77a140" stroke="#77a140" stroke-width=".3"/><path d="M808.2 251.7l3.4-6.3 4.2 6.4-1.2 3.2z" fill="#8a0" stroke="#8a0" stroke-width=".3"/><path d="M811.6 245.4l7 .7-2.8 5.8z" fill="#4d7c47" stroke="#4d7c47" stroke-width=".3"/><g stroke-width=".2"><path d="M896.8 276.2h2.6v-12.8l9.6-9-6 3.4-3.4 3.5-1.8 2.5z" fill="#520"/><path d="M896.8 276.2l-.7-13-7-7.5 2.5-.7 5.6 6.7 1-9.7 1.8 2.7-.2 6.6-1.8 2.5-1 12.4" fill="#2b1100"/></g><path d="M899.4 257.3l.5-12 8.5 11.3z" fill="#3a6e31" stroke-width=".3"/><path d="M908.5 256.6l-8.6-11.2h11.3l-2.8 11.2 3.5-1-.7-10.2-2.8 11.2" fill="#538d41" stroke-width=".3"/><path d="M912 255.6l5.2-.5 2.7-6-8.7-3.6.7 10.2" fill="#6ca049" stroke-width=".3"/><path d="M920 249l3 1.4-2 5.7z" fill="#457040" stroke-width=".3"/><path d="M921 256l-3.8-1 2.7-6 1 7" fill="#4d7c47" stroke-width=".3"/><path d="M888.5 252.4l-7.5 4 18.4 1z" fill="#3b6124" stroke-width=".3"/><path d="M881 256.3l-9.4-8.4 7.2 2.6 2.2 5.7" fill="#55834a" stroke-width=".3"/><path d="M881 256.3l7.5-4-9.7-1.7z" fill="#568b42" stroke-width=".3"/><path d="M881 241l-2.2 9.6 9.7 1.8z" fill="#487d3a" stroke-width=".3"/><path d="M881 241l-9.4 7 7.2 2.6z" fill="#77a950" stroke-width=".3"/><path d="M881 241l-5-2.5-4.4 9.4z" fill="#7fae66" stroke-width=".3"/><path d="M920 249l-.6-8-4.7-1-3.4 5.4z" fill="#487d3a" stroke-width=".3"/><path d="M914.7 240l-3.6-3.5.3 9z" fill="#689f4a" stroke-width=".3"/><path d="M911 236.5l-12.6 5 13 4z" fill="#58913b" stroke-width=".3"/><path d="M898.4 241.5l1.5 4h11.3l-13-4" fill="#67a247" stroke-width=".3"/><path d="M898.4 241.5l-9 1.5 10 14.3.5-12z" fill="#508a34" stroke-width=".3"/><path d="M911 236.5l-4.5-6.7-8 11.7z" fill="#78ac4d" stroke-width=".3"/><path d="M906.5 229.8l-14 5.2-3 8 9-1.5z" fill="#5c8b3b" stroke-width=".3"/><path d="M906.5 229.8l-9.4-3-4.6 8.2 14-5.2" fill="#80b558" stroke-width=".3"/><path d="M897 227l-14.5 4.8 10 3.2z" fill="#93c661" stroke-width=".3"/><path d="M882.5 231.8l-6.4 6.7 5 2.5z" fill="#65964f" stroke-width=".3"/><path d="M895.6 248l3.8 9.3-11-5 1-9.3z" fill="#679d48" stroke-width=".3"/><path d="M892.4 235l-10-3.2 7 11.2z" fill="#58913b" stroke-width=".3"/><path d="M881 241l7.5 11.4 1-9.4-8.5-2" fill="#5e9140" stroke-width=".3"/><path d="M882.5 231.8l7 11.2-8.5-2 1.5-9.2" fill="#67a247" stroke-width=".3"/><path d="M867.8 275.3l3 .3-.5-29z" fill="#520" stroke-width=".3"/><path d="M872.4 260.7H865l4.4-9.3 4.5 1.5z" fill="#8a0" stroke-width=".3"/><path d="M872.4 260.7l7.8-4.8-6.3-3-1.6 7.7" fill="#bcd35f" stroke-width=".3"/><path d="M874 253l3.4-5h5l3.6 2.5-5.8 5.4z" fill="#cdde87" stroke-width=".3"/><path d="M874 253l-4.6-1.6 1-4.8 7 1.3z" fill="#aad400" stroke="#aad400" stroke-width=".3"/><path d="M870.3 246.6l-1 4.8-4.3 9.3-6-3 4.5-10.4z" fill="#8a0" stroke-width=".3"/><path d="M863.5 247.3l-5.8 1.3-2.4 2.6 3.7 6.4 4.5-10.3" fill="#668000" stroke-width=".3"/><path d="M855.3 251.2l-.2-4.8 2.7 2.2-2.4 2.6" fill="#677821" stroke="#677821" stroke-width=".3"/><path d="M855 246.4l5-4.3 3.5 5.3-5.8 1.3-2.6-2.2" fill="#89a02c" stroke="#89a02c" stroke-width=".3"/><path d="M860 242l4.2-5.6 2.4 4.4-3 6.5-3.5-5.2" fill="#8a0" stroke="#8a0" stroke-width=".3"/><path d="M864.2 236.4l11.4.3 2.2 1.7-6.7 2.2-4.4.2-2.4-4.4" fill="#aad400" stroke="#aad400" stroke-width=".3"/><path d="M866.6 240.8l-3 6.5 6.7-.7-3.7-5.8" fill="#aad400" stroke-width=".3"/><path d="M870.3 246.6l7 1.3-6.2-7.4-4.4.2z" fill="#efa" stroke="#cdde87" stroke-width=".3"/><path d="M877.4 248l-6.3-7.4 6.8-2.2.7 5.8 3.8 3.7h-5" fill="#aad400" stroke="#aad400" stroke-width=".3"/><path d="M877.8 238.4l4.8 4-.3 5.5-3.8-3.8-.7-5.8" fill="#efa" stroke-width=".3"/><path d="M882.6 242.3l3.4 8.2-3.7-2.6z" fill="#f6ffd5" stroke-width=".3"/><path d="M859 257.6l10.4-6.2-4.4 9.3z" fill="#abc837" stroke-width=".3"/><path d="M866.6 240.8l4.5-.2-.7 6z" fill="#abc837" stroke="#abc837" stroke-width=".3"/><path d="M840.4 276.3l5.6-.3-1.2-14.7 10-10.7-3.5 1.5-6.2 6.6-.6-10.5-2.5 3.5-.5 6.4-7.6-7.4-2 .6 8.6 9.2z" fill="#784421" stroke-width=".3"/><path d="M846 276l-4.5-18-9.6-6.8 8.6 9.2-.2 16z" fill="#520" stroke-width=".3"/><path d="M839 254.6l-.3-10.7-7.8 10z" fill="#3a6e31" stroke-width=".3"/><path d="M831 254l7.7-10h-10.3l2.5 10-3.2-1 .6-9 2.5 10" fill="#538d41" stroke-width=".3"/><path d="M827.8 253l-4 1.2-4.7-8.6 9.4-1.7-.6 9" fill="#5aa02c" stroke="#5aa02c" stroke-width=".3"/><path d="M819 245.6l-.8 4 2 1.7z" fill="#457040" stroke-width=".3"/><path d="M821.7 253.5l2 .7-4.6-8.6 1.2 5.7z" fill="#338000" stroke="#338000" stroke-width=".3"/><path d="M839 254.6l10-4.5-6.5-4z" fill="none" stroke-width=".3"/><path d="M842.5 246l-3.8-2 .4 10.6z" fill="#6fa951" stroke-width=".3"/><path d="M849 250l6.7 3.7-16.6 1z" fill="#3b6124" stroke-width=".3"/><path d="M855.7 253.7l6.7-2.7-4.7-2.4-2 5" fill="#55834a" stroke-width=".3"/><path d="M855.7 253.7L849 250l8.7-1.4z" fill="#568b42" stroke-width=".3"/><path d="M849 250l-6.5-4 5.6-4.4 2.8 3.2-1.8 5.3-6.5-4" fill="#508b38" stroke-width=".3"/><path d="M850.8 244.8l7 3.8-8.8 1.5z" fill="#487d3a" stroke-width=".3"/><path d="M862.4 251l1.8-5-6.5 2.6 4.7 2.4" fill="#5e9140" stroke-width=".3"/><path d="M857.7 248.6l-7-3.8 13.5 1.3z" fill="#6da24b" stroke-width=".3"/><path d="M850.8 244.8l5-5-7.7 1.8 2.8 3.2" fill="none" stroke-width=".3"/><path d="M855.7 239.8l8.5 6.3-13.4-1.2z" fill="#77a950" stroke-width=".3"/><path d="M855.7 239.8l4.4-2.2 4.2 8.5z" fill="#7fae66" stroke-width=".3"/><path d="M819 245.6l2-5.8 4.3-.8 3 5z" fill="#4a0" stroke="#4a0" stroke-width=".3"/><path d="M825.3 239l4.5-.7-1.4 5.6z" fill="#689f4a" stroke-width=".3"/><path d="M829.8 238.3l10.2 2-11.6 3.6z" fill="#58913b" stroke-width=".3"/><path d="M840 240.3l-1.3 3.6h-10.3l11.6-3.7" fill="#67a247" stroke-width=".3"/><path d="M840 240.3l8 1.3-5.5 4.5-3.8-2z" fill="#508a34" stroke-width=".3"/><path d="M829.8 238.3l3-8.5 7.2 10.5z" fill="#78ac4d" stroke-width=".3"/><path d="M832.7 229.8l12.7 4.7 2.7 7-8-1.2z" fill="#5c8b3b" stroke-width=".3"/><path d="M832.7 229.8l8.5-2.7 4.2 7.5-12.7-4.7" fill="#80b558" stroke-width=".3"/><path d="M841.2 227l13 4.6-8.8 3z" fill="#93c661" stroke-width=".3"/><path d="M854.3 231.6l-6.2 10-2.6-7z" fill="none" stroke-width=".3"/><path d="M854.3 231.6l5.8 6-4.3 2.2z" fill="#65964f" stroke-width=".3"/><path d="M854.3 231.6l1.4 8.2-7.6 1.8z" fill="#78a949" stroke-width=".3"/><path d="M842.5 246l-3.4 8.6 10-4.5-6.5-4" fill="#679d48" stroke-width=".3"/><path d="M845.4 234.5l9-3-6.3 10z" fill="#58913b" stroke-width=".3"/><path d="M855.7 239.8l-5 5-2.6-3.2 7.7-1.8" fill="#5e9140" stroke-width=".3"/><path d="M930.6 278.3c1 .6 51 3 51 3l-.7-6.5-9.3 1.4-14-1z" fill="#645615" stroke="#645615" stroke-width=".3"/><path d="M930.6 278.3l-2.2-26 7.7 14 .4 7.8z" fill="#746322" stroke="#746322" stroke-width=".3"/><path d="M936.4 274l15 .7 6.2.6-27 3z" fill="#746f30" stroke="#746f30" stroke-width=".3"/><path d="M936 266.3l-.4-8.2 7.2.2-2.5-6.4-12 .6z" fill="#7c6b26" stroke="#7c6b26" stroke-width=".3"/><path d="M942.8 258.2l8 .4.6 16-15-.5-.8-16z" fill="#c0a759" stroke="#c0a759" stroke-width=".3"/><path d="M940.3 251.8H959l-2.6 7 1.2 16.5-6.2-.6-.6-16-8-.5z" fill="#645216" stroke="#645216" stroke-width=".3"/><path d="M959 251.7l22.2-.2-.4 14.5-8.7-7-15.6-.2z" fill="#6f5d1d" stroke="#6f5d1d" stroke-width=".3"/><path d="M972 259l-.3 17.2-14-1-1.3-16.4z" fill="#d5c7ad" stroke="#d5c7ad" stroke-width=".3"/><path d="M980.8 266v8.8l-9 1.4.3-17.2z" fill="#68591d" stroke="#68591d" stroke-width=".3"/><path d="M928.8 252.4l-7.7-.6 22-34 25.3 1z" fill="#b09130" stroke="#b09130" stroke-width=".3"/><path d="M1001.7 218.8l13 27.7h-9l-7-27.3z" fill="#56440d" stroke="#56440d" stroke-width=".3"/><path d="M1009 246.4l-27.8 5 17.6-32.2z" fill="#735e21" stroke="#735e21" stroke-width=".3"/><path d="M928.8 252.4l11.5-.6 61.4-33h-33.4z" fill="#977925" stroke="#977925" stroke-width=".3"/><path d="M1005.8 246.4l.4 27.5-7.2 2.6V253z" fill="#634f18" stroke="#634f18" stroke-width=".3"/><path d="M940.3 251.8l41-.3 20.4-32.7z" fill="#9d7e26" stroke="#9d7e26" stroke-width=".3"/><path d="M999 253l-11.8 2.2-6-3.7 24.6-5z" fill="#6d571a" stroke="#6d571a" stroke-width=".3"/><path d="M987.2 255.2l.6 25.6-6.2.6-.7-6.6z" fill="#8b7938" stroke="#8b7938" stroke-width=".3"/><path d="M981 274.8l-.2-8.8.4-14.5 6 3.7.2 12.3z" fill="#92803b" stroke="#92803b" stroke-width=".3"/><path d="M987.8 280.8l11.2-4.2V253l-11.8 2.2z" fill="#9b7128" stroke="#9b7128" stroke-width=".3"/><path d="M1006.2 274l1.6-.2 1.2-27.4h-3.2z" fill="#5e4b12" stroke="#6d571a" stroke-width=".3"/></g><path id="f" d="M0 0a2.4 3.4 24 0 1-3.5 2.6 2.4 3.4 24 0 1-1.2-3.8 2.4 3.4 24 0 1 3.5-2.6A2.4 3.4 24 0 1 0 0z"/><path id="e" d="M0 0a4.3 3 66 0 0 4.4 3.3 4.3 3 66 0 0 1.6-5 4.3 3 66 0 0-4.4-3.2A4.3 3 66 0 0 0 0z"/><path id="d" d="M0 0a3.7 5.2 24 0 1-5.3 4 3.7 5.2 24 0 1-2-6 3.7 5.2 24 0 1 5.4-3.8A3.7 5.2 24 0 1 0 0z"/></defs><use xlink:href="#a" transform="translate(-8)"/><use xlink:href="#b"/><use xlink:href="#c"/><animateMotion xlink:href="#a" begin="1s" dur="9s" fill="freeze" repeatCount="indefinite"><mpath xlink:href="#d"/></animateMotion><animateMotion xlink:href="#b" begin="2s" dur="8s" fill="freeze" repeatCount="indefinite"><mpath xlink:href="#e"/></animateMotion><animateMotion xlink:href="#c" begin="3s" dur="9s" fill="freeze" repeatCount="indefinite"><mpath xlink:href="#f"/></animateMotion></svg>