<svg xmlns="http://www.w3.org/2000/svg" width="279648.2" height="149497.9" viewBox="0 0 262.17021 140.1543"><path d="M40.7 0L0 23.5v49.7l38.7-23v90L81 115.5v-92L40.6 0z" style="line-height:normal;text-indent:0;text-align:start;text-decoration-line:none;text-decoration-style:solid;text-decoration-color:#000000;text-transform:none;block-progression:tb;isolation:auto;mix-blend-mode:normal" color="#000" font-family="sans-serif" white-space="normal" overflow="visible" solid-color="#000000" fill="#f6f6f6" fill-rule="evenodd"/><g fill-rule="evenodd" stroke="#f9f9f9" stroke-width="1.2"><path d="M2 24.6L40.7 47 2 69.7z" fill="#a5a5a5" stroke-width="1.507236"/><path d="M40.7 47V2.2L79 24.5 40.6 47" fill="#747474" stroke-width="1.507236"/><path d="M40.7 47L2 24.5 40.7 2.3V47" fill="#5d5d5d" stroke-width="1.507236"/><path d="M40.7 91.7V47L79 69 40.6 91.8" fill="#a5a5a5" stroke-width="1.507236"/><path d="M79 114.4L40.6 91.7 79 69v45.4" fill="#747474" stroke-width="1.507236"/><path d="M40.7 136.7v-45L79 114.4z" fill="#5d5d5d" stroke-width="1.507236"/><path d="M79 69L40.6 47 79 24.4V69" fill="#d6d6d6" stroke-width="1.507236"/></g><text style="line-height:112.00000048%;-inkscape-font-specification:'Roboto Condensed, '" x="278.9" y="563.5" font-size="49.4" font-family="Roboto Condensed" letter-spacing="0" word-spacing="0" fill="#b3b3b3" transform="translate(-187.5 -503.7)"><tspan x="278.9" y="563.5">ЦЕНТР </tspan><tspan x="278.9" y="618.8">ОЦЕНКИ</tspan></text></svg>