<svg xmlns="http://www.w3.org/2000/svg" width="67" height="116.1" viewBox="0 0 67.000091 116.05663"><g fill-rule="evenodd"><path style="line-height:normal;text-indent:0;text-align:start;text-decoration-line:none;text-decoration-style:solid;text-decoration-color:#000000;text-transform:none;block-progression:tb;isolation:auto;mix-blend-mode:normal" d="M33.7 0L0 19.5v41l32-18.8V116l35-20.4V19.4L33.7 0zm0 3.8l30 17.4v72.6l-28.4 16.6V36l-32 19V21.2L33.6 3.8z" color="#000" font-family="sans-serif" white-space="normal" overflow="visible" solid-color="#000000" fill="#fff"/><g stroke="#fff"><path d="M1.6 20.4l32 18.4-32 19z" fill="#f99428" stroke-width="1.04007"/><path d="M33.7 38.8v-37l31.7 18.5-31.7 18.5" fill="#e93f51" stroke-width="1.04007"/><path d="M33.7 38.8l-32-18.4L33.6 2v36.8" fill="#7247a0" stroke-width="1.04007"/><path d="M33.7 76V38.8l31.7 18.4L33.7 76" fill="#f99428" stroke-width="1.04007"/><path d="M33.7 113.2V76l31.7 18.7" fill="#6e499b" stroke-width="1.04007"/><path d="M65.4 57.2L33.7 38.8l31.7-18.5v37" fill="#f8ea12" stroke-width="1.04007"/><path d="M65.4 94.7L33.7 76l31.7-18.8v37.5" fill="#f23a53" stroke-width="1.04007"/></g></g></svg>