<?xml version="1.0" encoding="UTF-8" standalone="no"?>
<!-- Created with Inkscape (http://www.inkscape.org/) -->

<svg
   xmlns:dc="http://purl.org/dc/elements/1.1/"
   xmlns:cc="http://creativecommons.org/ns#"
   xmlns:rdf="http://www.w3.org/1999/02/22-rdf-syntax-ns#"
   xmlns:svg="http://www.w3.org/2000/svg"
   xmlns="http://www.w3.org/2000/svg"
   xmlns:sodipodi="http://sodipodi.sourceforge.net/DTD/sodipodi-0.dtd"
   xmlns:inkscape="http://www.inkscape.org/namespaces/inkscape"
   width="22.577778mm"
   height="45.155552mm"
   viewBox="0 0 80.000002 159.99999"
   id="svg2"
   version="1.1"
   inkscape:version="0.91 r13725"
   sodipodi:docname="mvdesign.svg"
   inkscape:export-filename="D:\Графика\Рисую\mvdesign.png"
   inkscape:export-xdpi="90"
   inkscape:export-ydpi="90">
  <defs
     id="defs4">
    <inkscape:path-effect
       effect="skeletal"
       id="path-effect4779"
       is_visible="true"
       pattern="M 0.58984,7.9818757e-5 A 0.58973557,0.58973557 0 0 0 0.54684,0.00207982 l -0.0176,0 0,0.002 a 0.58973557,0.58973557 0 0 0 -0.52929,0.58594 0.58973557,0.58973557 0 0 0 0.52929,0.58593998 0.58973557,0.58973557 0 0 0 0.002,0 0.58973557,0.58973557 0 0 0 0.0586,0.004 0.58973557,0.58973557 0 0 0 0.0566,-0.004 l 12.16992,0 a 0.58973557,0.58973557 0 0 0 0.0586,0.004 0.58973557,0.58973557 0 0 0 0.58984,-0.58983998 0.58973557,0.58973557 0 0 0 -0.58984,-0.58984000124 0.58973557,0.58973557 0 0 0 -0.041,0.002000001 l -12.18555,0 a 0.58973557,0.58973557 0 0 0 -0.0586,-0.002000001 z"
       copytype="single_stretched"
       prop_scale="1"
       scale_y_rel="false"
       spacing="0"
       normal_offset="0"
       tang_offset="0"
       prop_units="false"
       vertical_pattern="false"
       fuse_tolerance="0" />
    <inkscape:path-effect
       effect="skeletal"
       id="path-effect4561"
       is_visible="true"
       pattern="M 0.58984,7.9818757e-5 A 0.58973557,0.58973557 0 0 0 0.54684,0.00207982 l -0.0176,0 0,0.002 a 0.58973557,0.58973557 0 0 0 -0.52929,0.58594 0.58973557,0.58973557 0 0 0 0.52929,0.58593998 0.58973557,0.58973557 0 0 0 0.002,0 0.58973557,0.58973557 0 0 0 0.0586,0.004 0.58973557,0.58973557 0 0 0 0.0566,-0.004 l 12.16992,0 a 0.58973557,0.58973557 0 0 0 0.0586,0.004 0.58973557,0.58973557 0 0 0 0.58984,-0.58983998 0.58973557,0.58973557 0 0 0 -0.58984,-0.58984000124 0.58973557,0.58973557 0 0 0 -0.041,0.002000001 l -12.18555,0 a 0.58973557,0.58973557 0 0 0 -0.0586,-0.002000001 z"
       copytype="single_stretched"
       prop_scale="1"
       scale_y_rel="false"
       spacing="0"
       normal_offset="0"
       tang_offset="0"
       prop_units="false"
       vertical_pattern="false"
       fuse_tolerance="0" />
    <inkscape:path-effect
       effect="spiro"
       id="path-effect4559"
       is_visible="true" />
    <inkscape:path-effect
       effect="skeletal"
       id="path-effect4550"
       is_visible="true"
       pattern="M 0.58984,7.9818757e-5 A 0.58973557,0.58973557 0 0 0 0.54684,0.00207982 l -0.0176,0 0,0.002 a 0.58973557,0.58973557 0 0 0 -0.52929,0.58594 0.58973557,0.58973557 0 0 0 0.52929,0.58593998 0.58973557,0.58973557 0 0 0 0.002,0 0.58973557,0.58973557 0 0 0 0.0586,0.004 0.58973557,0.58973557 0 0 0 0.0566,-0.004 l 12.16992,0 a 0.58973557,0.58973557 0 0 0 0.0586,0.004 0.58973557,0.58973557 0 0 0 0.58984,-0.58983998 0.58973557,0.58973557 0 0 0 -0.58984,-0.58984000124 0.58973557,0.58973557 0 0 0 -0.041,0.002000001 l -12.18555,0 a 0.58973557,0.58973557 0 0 0 -0.0586,-0.002000001 z"
       copytype="single_stretched"
       prop_scale="1"
       scale_y_rel="false"
       spacing="0"
       normal_offset="0"
       tang_offset="0"
       prop_units="false"
       vertical_pattern="false"
       fuse_tolerance="0" />
    <inkscape:path-effect
       effect="spiro"
       id="path-effect4548"
       is_visible="true" />
    <inkscape:path-effect
       effect="skeletal"
       id="path-effect4539"
       is_visible="true"
       pattern="M 0.58984,7.9818757e-5 A 0.58973557,0.58973557 0 0 0 0.54684,0.00207982 l -0.0176,0 0,0.002 a 0.58973557,0.58973557 0 0 0 -0.52929,0.58594 0.58973557,0.58973557 0 0 0 0.52929,0.58593998 0.58973557,0.58973557 0 0 0 0.002,0 0.58973557,0.58973557 0 0 0 0.0586,0.004 0.58973557,0.58973557 0 0 0 0.0566,-0.004 l 12.16992,0 a 0.58973557,0.58973557 0 0 0 0.0586,0.004 0.58973557,0.58973557 0 0 0 0.58984,-0.58983998 0.58973557,0.58973557 0 0 0 -0.58984,-0.58984000124 0.58973557,0.58973557 0 0 0 -0.041,0.002000001 l -12.18555,0 a 0.58973557,0.58973557 0 0 0 -0.0586,-0.002000001 z"
       copytype="single_stretched"
       prop_scale="1"
       scale_y_rel="false"
       spacing="0"
       normal_offset="0"
       tang_offset="0"
       prop_units="false"
       vertical_pattern="false"
       fuse_tolerance="0" />
    <inkscape:path-effect
       effect="spiro"
       id="path-effect4537"
       is_visible="true" />
    <inkscape:path-effect
       effect="skeletal"
       id="path-effect4528"
       is_visible="true"
       pattern="M 0.58984,7.9818757e-5 A 0.58973557,0.58973557 0 0 0 0.54684,0.00207982 l -0.0176,0 0,0.002 a 0.58973557,0.58973557 0 0 0 -0.52929,0.58594 0.58973557,0.58973557 0 0 0 0.52929,0.58593998 0.58973557,0.58973557 0 0 0 0.002,0 0.58973557,0.58973557 0 0 0 0.0586,0.004 0.58973557,0.58973557 0 0 0 0.0566,-0.004 l 12.16992,0 a 0.58973557,0.58973557 0 0 0 0.0586,0.004 0.58973557,0.58973557 0 0 0 0.58984,-0.58983998 0.58973557,0.58973557 0 0 0 -0.58984,-0.58984000124 0.58973557,0.58973557 0 0 0 -0.041,0.002000001 l -12.18555,0 a 0.58973557,0.58973557 0 0 0 -0.0586,-0.002000001 z"
       copytype="single_stretched"
       prop_scale="1"
       scale_y_rel="false"
       spacing="0"
       normal_offset="0"
       tang_offset="0"
       prop_units="false"
       vertical_pattern="false"
       fuse_tolerance="0" />
    <inkscape:path-effect
       effect="spiro"
       id="path-effect4526"
       is_visible="true" />
    <inkscape:path-effect
       effect="skeletal"
       id="path-effect4517"
       is_visible="true"
       pattern="M 0.58984,7.9818757e-5 A 0.58973557,0.58973557 0 0 0 0.54684,0.00207982 l -0.0176,0 0,0.002 a 0.58973557,0.58973557 0 0 0 -0.52929,0.58594 0.58973557,0.58973557 0 0 0 0.52929,0.58593998 0.58973557,0.58973557 0 0 0 0.002,0 0.58973557,0.58973557 0 0 0 0.0586,0.004 0.58973557,0.58973557 0 0 0 0.0566,-0.004 l 12.16992,0 a 0.58973557,0.58973557 0 0 0 0.0586,0.004 0.58973557,0.58973557 0 0 0 0.58984,-0.58983998 0.58973557,0.58973557 0 0 0 -0.58984,-0.58984000124 0.58973557,0.58973557 0 0 0 -0.041,0.002000001 l -12.18555,0 a 0.58973557,0.58973557 0 0 0 -0.0586,-0.002000001 z"
       copytype="single_stretched"
       prop_scale="1"
       scale_y_rel="false"
       spacing="0"
       normal_offset="0"
       tang_offset="0"
       prop_units="false"
       vertical_pattern="false"
       fuse_tolerance="0" />
    <inkscape:path-effect
       effect="spiro"
       id="path-effect4515"
       is_visible="true" />
    <inkscape:path-effect
       effect="skeletal"
       id="path-effect4495"
       is_visible="true"
       pattern="M 0.58984,7.9818757e-5 A 0.58973557,0.58973557 0 0 0 0.54684,0.00207982 l -0.0176,0 0,0.002 a 0.58973557,0.58973557 0 0 0 -0.52929,0.58594 0.58973557,0.58973557 0 0 0 0.52929,0.58593998 0.58973557,0.58973557 0 0 0 0.002,0 0.58973557,0.58973557 0 0 0 0.0586,0.004 0.58973557,0.58973557 0 0 0 0.0566,-0.004 l 12.16992,0 a 0.58973557,0.58973557 0 0 0 0.0586,0.004 0.58973557,0.58973557 0 0 0 0.58984,-0.58983998 0.58973557,0.58973557 0 0 0 -0.58984,-0.58984000124 0.58973557,0.58973557 0 0 0 -0.041,0.002000001 l -12.18555,0 a 0.58973557,0.58973557 0 0 0 -0.0586,-0.002000001 z"
       copytype="single_stretched"
       prop_scale="1"
       scale_y_rel="false"
       spacing="0"
       normal_offset="0"
       tang_offset="0"
       prop_units="false"
       vertical_pattern="false"
       fuse_tolerance="0" />
    <inkscape:path-effect
       effect="spiro"
       id="path-effect4493"
       is_visible="true" />
    <inkscape:path-effect
       effect="skeletal"
       id="path-effect4184"
       is_visible="true"
       pattern="M 0,0 1,0"
       copytype="single_stretched"
       prop_scale="1"
       scale_y_rel="false"
       spacing="0"
       normal_offset="0"
       tang_offset="0"
       prop_units="false"
       vertical_pattern="false"
       fuse_tolerance="0" />
    <inkscape:path-effect
       effect="skeletal"
       id="path-effect4175"
       is_visible="true"
       pattern="M 0,0 1,0"
       copytype="single_stretched"
       prop_scale="1"
       scale_y_rel="false"
       spacing="0"
       normal_offset="0"
       tang_offset="0"
       prop_units="false"
       vertical_pattern="false"
       fuse_tolerance="0" />
    <inkscape:path-effect
       effect="skeletal"
       id="path-effect4160"
       is_visible="true"
       pattern="M 0,0 1,0"
       copytype="single_stretched"
       prop_scale="1"
       scale_y_rel="false"
       spacing="0"
       normal_offset="0"
       tang_offset="0"
       prop_units="false"
       vertical_pattern="false"
       fuse_tolerance="0" />
    <inkscape:path-effect
       effect="skeletal"
       id="path-effect4156"
       is_visible="true"
       pattern="M 0,0 1,0"
       copytype="single_stretched"
       prop_scale="1"
       scale_y_rel="false"
       spacing="0"
       normal_offset="0"
       tang_offset="0"
       prop_units="false"
       vertical_pattern="false"
       fuse_tolerance="0" />
    <inkscape:path-effect
       effect="skeletal"
       id="path-effect4151"
       is_visible="true"
       pattern="m -73.716947,-5.8973558 1,0"
       copytype="single_stretched"
       prop_scale="1"
       scale_y_rel="false"
       spacing="0"
       normal_offset="0"
       tang_offset="0"
       prop_units="false"
       vertical_pattern="false"
       fuse_tolerance="0" />
  </defs>
  <sodipodi:namedview
     id="base"
     pagecolor="#ffffff"
     bordercolor="#666666"
     borderopacity="1.0"
     inkscape:pageopacity="0.0"
     inkscape:pageshadow="2"
     inkscape:zoom="2.8284271"
     inkscape:cx="14.644677"
     inkscape:cy="99.384485"
     inkscape:document-units="px"
     inkscape:current-layer="layer1"
     showgrid="false"
     inkscape:window-width="1920"
     inkscape:window-height="1017"
     inkscape:window-x="-8"
     inkscape:window-y="-8"
     inkscape:window-maximized="1"
     showguides="true"
     inkscape:guide-bbox="true"
     fit-margin-top="0"
     fit-margin-left="0"
     fit-margin-right="0"
     fit-margin-bottom="0">
    <sodipodi:guide
       position="0.18976644,360.75034"
       orientation="0,1"
       id="guide4172" />
    <sodipodi:guide
       position="73.569558,384.52126"
       orientation="1,0"
       id="guide4174" />
    <sodipodi:guide
       position="130.41305,216.05781"
       orientation="0,1"
       id="guide4176" />
  </sodipodi:namedview>
  <metadata
     id="metadata7">
    <rdf:RDF>
      <cc:Work
         rdf:about="">
        <dc:format>image/svg+xml</dc:format>
        <dc:type
           rdf:resource="http://purl.org/dc/dcmitype/StillImage" />
        <dc:title></dc:title>
      </cc:Work>
    </rdf:RDF>
  </metadata>
  <g
     inkscape:label="Layer 1"
     inkscape:groupmode="layer"
     id="layer1"
     transform="translate(-300.04724,-505.3622)">
    <g
       id="g4162"
       transform="matrix(0.55555554,0,0,0.55555554,181.71391,295.71653)">
      <circle
         inkscape:export-ydpi="300"
         inkscape:export-xdpi="300"
         r="72"
         cy="449.36221"
         cx="285"
         id="path34954"
         style="opacity:1;fill:#cccccc;fill-opacity:1;fill-rule:evenodd;stroke:none;stroke-width:0.1;stroke-miterlimit:4;stroke-dasharray:none;stroke-opacity:1" />
      <g
         inkscape:export-ydpi="300"
         inkscape:export-xdpi="300"
         style="fill:#ffffff"
         id="g34956"
         transform="matrix(7.8833558,0,0,7.8833558,-3196.4257,-5089.5496)">
        <path
           sodipodi:nodetypes="scccccccccsccccccccccscccccccccsccccscccccccccccccccccccscscccscccccsccccccccccscccccssccccc"
           inkscape:connector-curvature="0"
           id="path34958"
           d="m 441.38477,696.42578 c -0.0447,0 -0.084,0.0293 -0.11133,0.10742 -0.10938,0.3125 -0.10938,0.45313 -0.10938,0.45313 0,0 -0.65625,-0.56253 -0.67187,0.0469 -0.0156,0.60937 -0.0312,0.82813 -0.0312,0.82813 l -3.22656,0.0645 c 0,0 -0.0882,0.57323 0.13281,0.75 0.22097,0.17678 3.18164,0.0879 3.18164,0.0879 l -0.043,0.31055 -1.98828,0 c 0,0 -0.0442,-0.17606 0,0.0449 0.0442,0.22097 0.88281,0.2207 0.88281,0.2207 0,0 -0.26424,0.1316 0.53125,0.17578 0.0451,0.003 0.48119,-0.002 0.57422,0 -4.2e-4,0.0143 -0.0233,0.78461 -0.0332,1.05079 -0.0111,0.30937 -0.10033,0.36423 -0.14454,0.54101 -0.0441,0.17678 -0.0761,4.03232 -0.01,4.27539 0.0663,0.24306 0.49609,0.39844 0.49609,0.39844 0,0 0.0642,0.46261 -0.0996,0.47461 -0.114,0.008 -0.66307,0.0106 -0.83984,0.12109 -0.3204,0.19887 -0.40019,0.351 -0.49609,0.375 -0.30938,0.0774 -0.16602,0.64086 -0.16602,0.77344 0,0.13258 0.0549,0.31076 0.1875,0.41016 -0.0884,0 -0.50763,0.0775 -1.14844,0.0996 -0.76236,-10e-6 -0.36561,0.0536 -0.21093,0.16406 0.15468,0.1105 0.29939,0.13343 0.63086,0.11133 0.33145,-0.022 1.51325,-0.0885 2.02148,-0.0996 0.48613,0 1.40376,-0.0216 1.8457,-0.0879 0.44194,-0.0663 0.7608,-0.1765 1.35742,-0.1875 0.46404,0 0.96251,0.0774 1.11719,0.0332 0.15464,-0.0442 0.12048,-0.26492 0.14258,-0.60742 -0.24307,10e-6 -1.28037,0.17516 -1.52344,0.19726 -0.24306,0.0221 -0.7307,0.21033 -0.86328,0.23243 0.28722,-0.12154 0.20792,-0.27624 0.23242,-0.82813 0.0221,-0.49718 0.19883,-0.63062 -0.0332,-0.88477 -0.18783,-0.20991 -0.96032,0.12315 -1.72266,0.15626 -0.19888,0.0442 -0.13281,-0.2772 -0.13281,-0.56446 0,-0.28726 0.22213,-0.0694 0.26563,-0.30859 0.0442,-0.24307 0.0111,-0.14028 0.0547,-0.77344 0.0187,-0.27239 0.009,-1.00276 0.0781,-1.07227 0.0674,0.0226 0.0734,-0.42833 0.0644,-1.02929 0.23202,-0.17677 0.19141,-1.67427 0.19141,-2.29298 0.0221,-0.55247 0.10742,-0.46679 0.10742,-0.46679 0,0 0.0333,1.02591 0.0664,1.32422 0.0317,0.28555 0.24414,0.37695 0.24414,0.37695 0,0 0.0166,0.49326 0.0879,0.70704 0.0774,0.23202 0.50866,0.17678 0.61914,0 0.10024,-0.15287 0.07,-0.43874 0.10937,-0.75196 0.21929,-0.13802 0.13282,-1.71811 0.13282,-1.83014 -0.0822,-0.0548 -1.91302,-0.007 -1.65235,-0.039 0.39202,0.006 5.54921,-0.0181 6.91016,-0.0312 l -0.48438,2.81836 0.0117,0.18555 c 0,0 -0.10599,0.13327 -0.0996,0.21094 0.0125,0.15203 -0.003,0.15403 0.26172,0.375 0.32766,0.25222 0.30032,0.6147 0.25391,0.80664 -0.31204,0.44194 -0.43405,0.52929 -0.69922,0.52929 -0.26516,0 -0.33985,-0.21825 -0.48047,-0.38476 0,0 -0.30859,-0.52933 -0.30859,-0.17578 0,0.35355 0.26513,0.75072 0.35351,0.79492 0.30715,0.20045 0.75,0.0879 0.75,0.0879 0,0 0.4082,-0.12695 0.54883,-0.33008 0.14062,-0.20313 0.46875,-0.95312 0.26562,-1.28125 -0.20312,-0.32812 -0.40624,-0.46875 -0.53124,-0.5 -0.125,-0.0312 -0.23437,-0.20313 -0.21876,-0.28125 0.0156,-0.0781 0.26563,0.0312 0.35938,-0.64062 0.0866,-0.62102 0.39045,-1.99695 0.43945,-2.21875 0.089,-8.8e-4 0.66211,-0.006 0.66211,-0.006 0,0 1.32513,-0.0454 -0.39844,-0.31055 -1.72358,-0.26517 -7.3789,-0.17578 -7.3789,-0.17578 l -0.0449,-0.26563 7.55664,0.35352 c 0,0 0.0625,-0.68165 -0.60938,-0.72852 -0.67187,-0.0469 -1.07812,-0.0469 -1.07812,-0.0469 0,0 0.26562,-0.17187 -0.9375,-0.1875 -1.20313,-0.0156 -3.48438,-0.0625 -3.48438,-0.0625 0,0 -0.0469,-0.15626 -0.79687,-0.17188 -0.75,-0.0156 -0.65625,-0.0156 -0.65625,-0.0156 l 0.0469,-1.17188 c 0,0 -0.17651,-0.26367 -0.31054,-0.26367 z m 0.76171,10.19727 c 0.16677,0.028 0.18828,0.14559 0.0723,0.19531 -0.15468,0.0663 -0.23246,-0.01 -0.26563,0.34375 -0.033,0.35202 0.0654,0.5841 0.24219,0.65039 0.17678,0.0663 -0.79578,-0.0326 -1.29297,-0.0215 -0.49719,0.011 -0.97227,0.17711 -1.12695,0.19921 -0.15468,0.0221 0.22143,2.7e-4 0.26563,-0.2207 0.0442,-0.22097 0.14352,-0.78517 -0.0332,-0.78515 -0.0884,-0.007 -0.24726,-0.004 -0.2207,-0.0879 0.0312,-0.0994 0.16313,-0.18494 0.26562,-0.16601 0.65312,0.12065 1.53074,-0.0344 1.87891,-0.0996 0.0884,-0.0166 0.15926,-0.0171 0.21484,-0.008 z"
           style="fill:#ffffff;fill-opacity:1;fill-rule:evenodd;stroke:none;stroke-width:0.1;stroke-linecap:butt;stroke-linejoin:miter;stroke-opacity:1" />
        <g
           transform="matrix(1,0,0,1.0610607,1.0928301,-38.117546)"
           id="g34960"
           style="font-style:normal;font-variant:normal;font-weight:600;font-stretch:normal;font-size:5px;line-height:125%;font-family:a_AlternaNr;-inkscape-font-specification:'a_AlternaNr Semi-Bold';letter-spacing:0px;word-spacing:0px;fill:#ffffff;fill-opacity:1;stroke:none;stroke-width:1px;stroke-linecap:butt;stroke-linejoin:miter;stroke-opacity:1">
          <path
             style="fill:#ffffff"
             inkscape:connector-curvature="0"
             id="path34962"
             d="m 433.59354,699.74723 0,3.50976 0.60547,0 0,-2.80468 c 0.19,0.25 0.31558,0.46705 0.37891,0.65039 0.0633,0.18 0.0957,0.4269 0.0957,0.74023 l 0,1.41406 0.5957,0 0,-1.41406 c 0,-0.31 0.0304,-0.5569 0.0938,-0.74023 0.0633,-0.18667 0.19085,-0.40373 0.38085,-0.65039 l 0,2.80468 0.60938,0 0.27539,0 c 0.33667,0 0.56302,-0.0895 0.67969,-0.26953 0.09,-0.14 0.13476,-0.39 0.13476,-0.75 0,-0.21666 -0.018,-0.38586 -0.0547,-0.50586 -0.0467,-0.16333 -0.1362,-0.30382 -0.26954,-0.42382 0.19,-0.16334 0.28516,-0.39474 0.28516,-0.69141 0,-0.33 -0.0504,-0.55383 -0.15039,-0.67383 -0.11,-0.13 -0.32706,-0.19531 -0.65039,-0.19531 l -0.25,0 -0.60938,0 -0.25585,0 c -0.19001,0.21666 -0.36287,0.59166 -0.51954,1.125 -0.15,-0.51667 -0.31976,-0.89167 -0.50976,-1.125 l -0.86524,0 z m 2.75977,0.64062 0.2207,0 c 0.15,0 0.22461,0.0988 0.22461,0.29883 0,0.24667 -0.1126,0.3711 -0.33594,0.3711 l -0.10937,0 0,-0.66993 z m 0,1.25391 0.17578,0 c 0.20333,0 0.30469,0.17849 0.30469,0.53516 0,0.15666 -0.0206,0.26112 -0.0606,0.31445 -0.0467,0.07 -0.14435,0.10547 -0.29101,0.10547 l -0.12891,0 0,-0.95508 z" />
        </g>
        <g
           id="g34964"
           style="font-style:normal;font-variant:normal;font-weight:600;font-stretch:normal;font-size:5px;line-height:125%;font-family:a_AlternaNr;-inkscape-font-specification:'a_AlternaNr Semi-Bold';letter-spacing:0px;word-spacing:0px;fill:#ffffff;fill-opacity:1;stroke:none;stroke-width:1px;stroke-linecap:butt;stroke-linejoin:miter;stroke-opacity:1" />
      </g>
    </g>
    <circle
       inkscape:export-ydpi="300"
       inkscape:export-xdpi="300"
       r="40"
       cy="625.36218"
       cx="340.04724"
       id="circle4180"
       style="opacity:1;fill:#cccccc;fill-opacity:1;fill-rule:evenodd;stroke:none;stroke-width:0.1;stroke-miterlimit:4;stroke-dasharray:none;stroke-opacity:1" />
    <g
       inkscape:export-ydpi="300"
       inkscape:export-xdpi="300"
       style="fill:#ffffff"
       id="g4182"
       transform="matrix(4.379642,0,0,4.379642,-1594.0781,-2451.811)">
      <path
         sodipodi:nodetypes="scccccccccsccccccccccscccccccccsccccscccccccccccccccccccscscccscccccsccccccccccscccccssccccc"
         inkscape:connector-curvature="0"
         id="path4184"
         d="m 441.38477,696.42578 c -0.0447,0 -0.084,0.0293 -0.11133,0.10742 -0.10938,0.3125 -0.10938,0.45313 -0.10938,0.45313 0,0 -0.65625,-0.56253 -0.67187,0.0469 -0.0156,0.60937 -0.0312,0.82813 -0.0312,0.82813 l -3.22656,0.0645 c 0,0 -0.0882,0.57323 0.13281,0.75 0.22097,0.17678 3.18164,0.0879 3.18164,0.0879 l -0.043,0.31055 -1.98828,0 c 0,0 -0.0442,-0.17606 0,0.0449 0.0442,0.22097 0.88281,0.2207 0.88281,0.2207 0,0 -0.26424,0.1316 0.53125,0.17578 0.0451,0.003 0.48119,-0.002 0.57422,0 -4.2e-4,0.0143 -0.0233,0.78461 -0.0332,1.05079 -0.0111,0.30937 -0.10033,0.36423 -0.14454,0.54101 -0.0441,0.17678 -0.0761,4.03232 -0.01,4.27539 0.0663,0.24306 0.49609,0.39844 0.49609,0.39844 0,0 0.0642,0.46261 -0.0996,0.47461 -0.114,0.008 -0.66307,0.0106 -0.83984,0.12109 -0.3204,0.19887 -0.40019,0.351 -0.49609,0.375 -0.30938,0.0774 -0.16602,0.64086 -0.16602,0.77344 0,0.13258 0.0549,0.31076 0.1875,0.41016 -0.0884,0 -0.50763,0.0775 -1.14844,0.0996 -0.76236,-10e-6 -0.36561,0.0536 -0.21093,0.16406 0.15468,0.1105 0.29939,0.13343 0.63086,0.11133 0.33145,-0.022 1.51325,-0.0885 2.02148,-0.0996 0.48613,0 1.40376,-0.0216 1.8457,-0.0879 0.44194,-0.0663 0.7608,-0.1765 1.35742,-0.1875 0.46404,0 0.96251,0.0774 1.11719,0.0332 0.15464,-0.0442 0.12048,-0.26492 0.14258,-0.60742 -0.24307,10e-6 -1.28037,0.17516 -1.52344,0.19726 -0.24306,0.0221 -0.7307,0.21033 -0.86328,0.23243 0.28722,-0.12154 0.20792,-0.27624 0.23242,-0.82813 0.0221,-0.49718 0.19883,-0.63062 -0.0332,-0.88477 -0.18783,-0.20991 -0.96032,0.12315 -1.72266,0.15626 -0.19888,0.0442 -0.13281,-0.2772 -0.13281,-0.56446 0,-0.28726 0.22213,-0.0694 0.26563,-0.30859 0.0442,-0.24307 0.0111,-0.14028 0.0547,-0.77344 0.0187,-0.27239 0.009,-1.00276 0.0781,-1.07227 0.0674,0.0226 0.0734,-0.42833 0.0644,-1.02929 0.23202,-0.17677 0.19141,-1.67427 0.19141,-2.29298 0.0221,-0.55247 0.10742,-0.46679 0.10742,-0.46679 0,0 0.0333,1.02591 0.0664,1.32422 0.0317,0.28555 0.24414,0.37695 0.24414,0.37695 0,0 0.0166,0.49326 0.0879,0.70704 0.0774,0.23202 0.50866,0.17678 0.61914,0 0.10024,-0.15287 0.07,-0.43874 0.10937,-0.75196 0.21929,-0.13802 0.13282,-1.71811 0.13282,-1.83014 -0.0822,-0.0548 -1.91302,-0.007 -1.65235,-0.039 0.39202,0.006 5.54921,-0.0181 6.91016,-0.0312 l -0.48438,2.81836 0.0117,0.18555 c 0,0 -0.10599,0.13327 -0.0996,0.21094 0.0125,0.15203 -0.003,0.15403 0.26172,0.375 0.32766,0.25222 0.30032,0.6147 0.25391,0.80664 -0.31204,0.44194 -0.43405,0.52929 -0.69922,0.52929 -0.26516,0 -0.33985,-0.21825 -0.48047,-0.38476 0,0 -0.30859,-0.52933 -0.30859,-0.17578 0,0.35355 0.26513,0.75072 0.35351,0.79492 0.30715,0.20045 0.75,0.0879 0.75,0.0879 0,0 0.4082,-0.12695 0.54883,-0.33008 0.14062,-0.20313 0.46875,-0.95312 0.26562,-1.28125 -0.20312,-0.32812 -0.40624,-0.46875 -0.53124,-0.5 -0.125,-0.0312 -0.23437,-0.20313 -0.21876,-0.28125 0.0156,-0.0781 0.26563,0.0312 0.35938,-0.64062 0.0866,-0.62102 0.39045,-1.99695 0.43945,-2.21875 0.089,-8.8e-4 0.66211,-0.006 0.66211,-0.006 0,0 1.32513,-0.0454 -0.39844,-0.31055 -1.72358,-0.26517 -7.3789,-0.17578 -7.3789,-0.17578 l -0.0449,-0.26563 7.55664,0.35352 c 0,0 0.0625,-0.68165 -0.60938,-0.72852 -0.67187,-0.0469 -1.07812,-0.0469 -1.07812,-0.0469 0,0 0.26562,-0.17187 -0.9375,-0.1875 -1.20313,-0.0156 -3.48438,-0.0625 -3.48438,-0.0625 0,0 -0.0469,-0.15626 -0.79687,-0.17188 -0.75,-0.0156 -0.65625,-0.0156 -0.65625,-0.0156 l 0.0469,-1.17188 c 0,0 -0.17651,-0.26367 -0.31054,-0.26367 z m 0.76171,10.19727 c 0.16677,0.028 0.18828,0.14559 0.0723,0.19531 -0.15468,0.0663 -0.23246,-0.01 -0.26563,0.34375 -0.033,0.35202 0.0654,0.5841 0.24219,0.65039 0.17678,0.0663 -0.79578,-0.0326 -1.29297,-0.0215 -0.49719,0.011 -0.97227,0.17711 -1.12695,0.19921 -0.15468,0.0221 0.22143,2.7e-4 0.26563,-0.2207 0.0442,-0.22097 0.14352,-0.78517 -0.0332,-0.78515 -0.0884,-0.007 -0.24726,-0.004 -0.2207,-0.0879 0.0312,-0.0994 0.16313,-0.18494 0.26562,-0.16601 0.65312,0.12065 1.53074,-0.0344 1.87891,-0.0996 0.0884,-0.0166 0.15926,-0.0171 0.21484,-0.008 z"
         style="fill:#4d4d4d;fill-opacity:1;fill-rule:evenodd;stroke:none;stroke-width:0.1;stroke-linecap:butt;stroke-linejoin:miter;stroke-opacity:1" />
      <g
         transform="matrix(1,0,0,1.0610607,1.0928301,-38.117546)"
         id="g4186"
         style="font-style:normal;font-variant:normal;font-weight:600;font-stretch:normal;font-size:5px;line-height:125%;font-family:a_AlternaNr;-inkscape-font-specification:'a_AlternaNr Semi-Bold';letter-spacing:0px;word-spacing:0px;fill:#ffffff;fill-opacity:1;stroke:none;stroke-width:1px;stroke-linecap:butt;stroke-linejoin:miter;stroke-opacity:1">
        <path
           style="fill:#4d4d4d;fill-opacity:1"
           inkscape:connector-curvature="0"
           id="path4188"
           d="m 433.59354,699.74723 0,3.50976 0.60547,0 0,-2.80468 c 0.19,0.25 0.31558,0.46705 0.37891,0.65039 0.0633,0.18 0.0957,0.4269 0.0957,0.74023 l 0,1.41406 0.5957,0 0,-1.41406 c 0,-0.31 0.0304,-0.5569 0.0938,-0.74023 0.0633,-0.18667 0.19085,-0.40373 0.38085,-0.65039 l 0,2.80468 0.60938,0 0.27539,0 c 0.33667,0 0.56302,-0.0895 0.67969,-0.26953 0.09,-0.14 0.13476,-0.39 0.13476,-0.75 0,-0.21666 -0.018,-0.38586 -0.0547,-0.50586 -0.0467,-0.16333 -0.1362,-0.30382 -0.26954,-0.42382 0.19,-0.16334 0.28516,-0.39474 0.28516,-0.69141 0,-0.33 -0.0504,-0.55383 -0.15039,-0.67383 -0.11,-0.13 -0.32706,-0.19531 -0.65039,-0.19531 l -0.25,0 -0.60938,0 -0.25585,0 c -0.19001,0.21666 -0.36287,0.59166 -0.51954,1.125 -0.15,-0.51667 -0.31976,-0.89167 -0.50976,-1.125 l -0.86524,0 z m 2.75977,0.64062 0.2207,0 c 0.15,0 0.22461,0.0988 0.22461,0.29883 0,0.24667 -0.1126,0.3711 -0.33594,0.3711 l -0.10937,0 0,-0.66993 z m 0,1.25391 0.17578,0 c 0.20333,0 0.30469,0.17849 0.30469,0.53516 0,0.15666 -0.0206,0.26112 -0.0606,0.31445 -0.0467,0.07 -0.14435,0.10547 -0.29101,0.10547 l -0.12891,0 0,-0.95508 z" />
      </g>
      <g
         id="g4190"
         style="font-style:normal;font-variant:normal;font-weight:600;font-stretch:normal;font-size:5px;line-height:125%;font-family:a_AlternaNr;-inkscape-font-specification:'a_AlternaNr Semi-Bold';letter-spacing:0px;word-spacing:0px;fill:#ffffff;fill-opacity:1;stroke:none;stroke-width:1px;stroke-linecap:butt;stroke-linejoin:miter;stroke-opacity:1" />
    </g>
  </g>
</svg>
