<?xml version="1.0" encoding="UTF-8" standalone="no"?>
<!-- Created with Inkscape (http://www.inkscape.org/) -->

<svg
   xmlns:dc="http://purl.org/dc/elements/1.1/"
   xmlns:cc="http://creativecommons.org/ns#"
   xmlns:rdf="http://www.w3.org/1999/02/22-rdf-syntax-ns#"
   xmlns:svg="http://www.w3.org/2000/svg"
   xmlns="http://www.w3.org/2000/svg"
   xmlns:xlink="http://www.w3.org/1999/xlink"
   xmlns:sodipodi="http://sodipodi.sourceforge.net/DTD/sodipodi-0.dtd"
   xmlns:inkscape="http://www.inkscape.org/namespaces/inkscape"
   width="22.577778mm"
   height="45.155552mm"
   viewBox="0 0 80.000002 159.99999"
   id="svg2"
   version="1.1"
   inkscape:version="0.91 r13725"
   sodipodi:docname="mvdesign.svg"
   inkscape:export-filename="C:\GitHub\FlyingIsland\img\mvdesign2.png"
   inkscape:export-xdpi="90"
   inkscape:export-ydpi="90">
  <defs
     id="defs4">
    <inkscape:path-effect
       effect="skeletal"
       id="path-effect4779"
       is_visible="true"
       pattern="M 0.58984,7.9818757e-5 A 0.58973557,0.58973557 0 0 0 0.54684,0.00207982 l -0.0176,0 0,0.002 a 0.58973557,0.58973557 0 0 0 -0.52929,0.58594 0.58973557,0.58973557 0 0 0 0.52929,0.58593998 0.58973557,0.58973557 0 0 0 0.002,0 0.58973557,0.58973557 0 0 0 0.0586,0.004 0.58973557,0.58973557 0 0 0 0.0566,-0.004 l 12.16992,0 a 0.58973557,0.58973557 0 0 0 0.0586,0.004 0.58973557,0.58973557 0 0 0 0.58984,-0.58983998 0.58973557,0.58973557 0 0 0 -0.58984,-0.58984000124 0.58973557,0.58973557 0 0 0 -0.041,0.002000001 l -12.18555,0 a 0.58973557,0.58973557 0 0 0 -0.0586,-0.002000001 z"
       copytype="single_stretched"
       prop_scale="1"
       scale_y_rel="false"
       spacing="0"
       normal_offset="0"
       tang_offset="0"
       prop_units="false"
       vertical_pattern="false"
       fuse_tolerance="0" />
    <inkscape:path-effect
       effect="skeletal"
       id="path-effect4561"
       is_visible="true"
       pattern="M 0.58984,7.9818757e-5 A 0.58973557,0.58973557 0 0 0 0.54684,0.00207982 l -0.0176,0 0,0.002 a 0.58973557,0.58973557 0 0 0 -0.52929,0.58594 0.58973557,0.58973557 0 0 0 0.52929,0.58593998 0.58973557,0.58973557 0 0 0 0.002,0 0.58973557,0.58973557 0 0 0 0.0586,0.004 0.58973557,0.58973557 0 0 0 0.0566,-0.004 l 12.16992,0 a 0.58973557,0.58973557 0 0 0 0.0586,0.004 0.58973557,0.58973557 0 0 0 0.58984,-0.58983998 0.58973557,0.58973557 0 0 0 -0.58984,-0.58984000124 0.58973557,0.58973557 0 0 0 -0.041,0.002000001 l -12.18555,0 a 0.58973557,0.58973557 0 0 0 -0.0586,-0.002000001 z"
       copytype="single_stretched"
       prop_scale="1"
       scale_y_rel="false"
       spacing="0"
       normal_offset="0"
       tang_offset="0"
       prop_units="false"
       vertical_pattern="false"
       fuse_tolerance="0" />
    <inkscape:path-effect
       effect="spiro"
       id="path-effect4559"
       is_visible="true" />
    <inkscape:path-effect
       effect="skeletal"
       id="path-effect4550"
       is_visible="true"
       pattern="M 0.58984,7.9818757e-5 A 0.58973557,0.58973557 0 0 0 0.54684,0.00207982 l -0.0176,0 0,0.002 a 0.58973557,0.58973557 0 0 0 -0.52929,0.58594 0.58973557,0.58973557 0 0 0 0.52929,0.58593998 0.58973557,0.58973557 0 0 0 0.002,0 0.58973557,0.58973557 0 0 0 0.0586,0.004 0.58973557,0.58973557 0 0 0 0.0566,-0.004 l 12.16992,0 a 0.58973557,0.58973557 0 0 0 0.0586,0.004 0.58973557,0.58973557 0 0 0 0.58984,-0.58983998 0.58973557,0.58973557 0 0 0 -0.58984,-0.58984000124 0.58973557,0.58973557 0 0 0 -0.041,0.002000001 l -12.18555,0 a 0.58973557,0.58973557 0 0 0 -0.0586,-0.002000001 z"
       copytype="single_stretched"
       prop_scale="1"
       scale_y_rel="false"
       spacing="0"
       normal_offset="0"
       tang_offset="0"
       prop_units="false"
       vertical_pattern="false"
       fuse_tolerance="0" />
    <inkscape:path-effect
       effect="spiro"
       id="path-effect4548"
       is_visible="true" />
    <inkscape:path-effect
       effect="skeletal"
       id="path-effect4539"
       is_visible="true"
       pattern="M 0.58984,7.9818757e-5 A 0.58973557,0.58973557 0 0 0 0.54684,0.00207982 l -0.0176,0 0,0.002 a 0.58973557,0.58973557 0 0 0 -0.52929,0.58594 0.58973557,0.58973557 0 0 0 0.52929,0.58593998 0.58973557,0.58973557 0 0 0 0.002,0 0.58973557,0.58973557 0 0 0 0.0586,0.004 0.58973557,0.58973557 0 0 0 0.0566,-0.004 l 12.16992,0 a 0.58973557,0.58973557 0 0 0 0.0586,0.004 0.58973557,0.58973557 0 0 0 0.58984,-0.58983998 0.58973557,0.58973557 0 0 0 -0.58984,-0.58984000124 0.58973557,0.58973557 0 0 0 -0.041,0.002000001 l -12.18555,0 a 0.58973557,0.58973557 0 0 0 -0.0586,-0.002000001 z"
       copytype="single_stretched"
       prop_scale="1"
       scale_y_rel="false"
       spacing="0"
       normal_offset="0"
       tang_offset="0"
       prop_units="false"
       vertical_pattern="false"
       fuse_tolerance="0" />
    <inkscape:path-effect
       effect="spiro"
       id="path-effect4537"
       is_visible="true" />
    <inkscape:path-effect
       effect="skeletal"
       id="path-effect4528"
       is_visible="true"
       pattern="M 0.58984,7.9818757e-5 A 0.58973557,0.58973557 0 0 0 0.54684,0.00207982 l -0.0176,0 0,0.002 a 0.58973557,0.58973557 0 0 0 -0.52929,0.58594 0.58973557,0.58973557 0 0 0 0.52929,0.58593998 0.58973557,0.58973557 0 0 0 0.002,0 0.58973557,0.58973557 0 0 0 0.0586,0.004 0.58973557,0.58973557 0 0 0 0.0566,-0.004 l 12.16992,0 a 0.58973557,0.58973557 0 0 0 0.0586,0.004 0.58973557,0.58973557 0 0 0 0.58984,-0.58983998 0.58973557,0.58973557 0 0 0 -0.58984,-0.58984000124 0.58973557,0.58973557 0 0 0 -0.041,0.002000001 l -12.18555,0 a 0.58973557,0.58973557 0 0 0 -0.0586,-0.002000001 z"
       copytype="single_stretched"
       prop_scale="1"
       scale_y_rel="false"
       spacing="0"
       normal_offset="0"
       tang_offset="0"
       prop_units="false"
       vertical_pattern="false"
       fuse_tolerance="0" />
    <inkscape:path-effect
       effect="spiro"
       id="path-effect4526"
       is_visible="true" />
    <inkscape:path-effect
       effect="skeletal"
       id="path-effect4517"
       is_visible="true"
       pattern="M 0.58984,7.9818757e-5 A 0.58973557,0.58973557 0 0 0 0.54684,0.00207982 l -0.0176,0 0,0.002 a 0.58973557,0.58973557 0 0 0 -0.52929,0.58594 0.58973557,0.58973557 0 0 0 0.52929,0.58593998 0.58973557,0.58973557 0 0 0 0.002,0 0.58973557,0.58973557 0 0 0 0.0586,0.004 0.58973557,0.58973557 0 0 0 0.0566,-0.004 l 12.16992,0 a 0.58973557,0.58973557 0 0 0 0.0586,0.004 0.58973557,0.58973557 0 0 0 0.58984,-0.58983998 0.58973557,0.58973557 0 0 0 -0.58984,-0.58984000124 0.58973557,0.58973557 0 0 0 -0.041,0.002000001 l -12.18555,0 a 0.58973557,0.58973557 0 0 0 -0.0586,-0.002000001 z"
       copytype="single_stretched"
       prop_scale="1"
       scale_y_rel="false"
       spacing="0"
       normal_offset="0"
       tang_offset="0"
       prop_units="false"
       vertical_pattern="false"
       fuse_tolerance="0" />
    <inkscape:path-effect
       effect="spiro"
       id="path-effect4515"
       is_visible="true" />
    <inkscape:path-effect
       effect="skeletal"
       id="path-effect4495"
       is_visible="true"
       pattern="M 0.58984,7.9818757e-5 A 0.58973557,0.58973557 0 0 0 0.54684,0.00207982 l -0.0176,0 0,0.002 a 0.58973557,0.58973557 0 0 0 -0.52929,0.58594 0.58973557,0.58973557 0 0 0 0.52929,0.58593998 0.58973557,0.58973557 0 0 0 0.002,0 0.58973557,0.58973557 0 0 0 0.0586,0.004 0.58973557,0.58973557 0 0 0 0.0566,-0.004 l 12.16992,0 a 0.58973557,0.58973557 0 0 0 0.0586,0.004 0.58973557,0.58973557 0 0 0 0.58984,-0.58983998 0.58973557,0.58973557 0 0 0 -0.58984,-0.58984000124 0.58973557,0.58973557 0 0 0 -0.041,0.002000001 l -12.18555,0 a 0.58973557,0.58973557 0 0 0 -0.0586,-0.002000001 z"
       copytype="single_stretched"
       prop_scale="1"
       scale_y_rel="false"
       spacing="0"
       normal_offset="0"
       tang_offset="0"
       prop_units="false"
       vertical_pattern="false"
       fuse_tolerance="0" />
    <inkscape:path-effect
       effect="spiro"
       id="path-effect4493"
       is_visible="true" />
    <inkscape:path-effect
       effect="skeletal"
       id="path-effect4184"
       is_visible="true"
       pattern="M 0,0 1,0"
       copytype="single_stretched"
       prop_scale="1"
       scale_y_rel="false"
       spacing="0"
       normal_offset="0"
       tang_offset="0"
       prop_units="false"
       vertical_pattern="false"
       fuse_tolerance="0" />
    <inkscape:path-effect
       effect="skeletal"
       id="path-effect4175"
       is_visible="true"
       pattern="M 0,0 1,0"
       copytype="single_stretched"
       prop_scale="1"
       scale_y_rel="false"
       spacing="0"
       normal_offset="0"
       tang_offset="0"
       prop_units="false"
       vertical_pattern="false"
       fuse_tolerance="0" />
    <inkscape:path-effect
       effect="skeletal"
       id="path-effect4160"
       is_visible="true"
       pattern="M 0,0 1,0"
       copytype="single_stretched"
       prop_scale="1"
       scale_y_rel="false"
       spacing="0"
       normal_offset="0"
       tang_offset="0"
       prop_units="false"
       vertical_pattern="false"
       fuse_tolerance="0" />
    <inkscape:path-effect
       effect="skeletal"
       id="path-effect4156"
       is_visible="true"
       pattern="M 0,0 1,0"
       copytype="single_stretched"
       prop_scale="1"
       scale_y_rel="false"
       spacing="0"
       normal_offset="0"
       tang_offset="0"
       prop_units="false"
       vertical_pattern="false"
       fuse_tolerance="0" />
    <inkscape:path-effect
       effect="skeletal"
       id="path-effect4151"
       is_visible="true"
       pattern="m -73.716947,-5.8973558 1,0"
       copytype="single_stretched"
       prop_scale="1"
       scale_y_rel="false"
       spacing="0"
       normal_offset="0"
       tang_offset="0"
       prop_units="false"
       vertical_pattern="false"
       fuse_tolerance="0" />
  </defs>
  <sodipodi:namedview
     id="base"
     pagecolor="#ffffff"
     bordercolor="#666666"
     borderopacity="1.0"
     inkscape:pageopacity="0.0"
     inkscape:pageshadow="2"
     inkscape:zoom="2.7366981"
     inkscape:cx="91.315926"
     inkscape:cy="11.776594"
     inkscape:document-units="px"
     inkscape:current-layer="svg2"
     showgrid="false"
     inkscape:window-width="1920"
     inkscape:window-height="1017"
     inkscape:window-x="-8"
     inkscape:window-y="-8"
     inkscape:window-maximized="1"
     showguides="true"
     inkscape:guide-bbox="true"
     fit-margin-top="0"
     fit-margin-left="0"
     fit-margin-right="0"
     fit-margin-bottom="0">
    <sodipodi:guide
       position="0.18976644,360.75034"
       orientation="0,1"
       id="guide4172" />
    <sodipodi:guide
       position="130.41305,216.05781"
       orientation="0,1"
       id="guide4176" />
  </sodipodi:namedview>
  <g
     id="g8131"
     transform="translate(-300.04724,-505.3622)">
    <g
       id="g8121">
      <g
         transform="matrix(0.55555554,0,0,0.55555554,181.71391,295.71653)"
         id="g4162">
        <circle
           style="opacity:1;fill:#cccccc;fill-opacity:1;fill-rule:evenodd;stroke:none;stroke-width:0.1;stroke-miterlimit:4;stroke-dasharray:none;stroke-opacity:1"
           id="path34954"
           cx="285"
           cy="449.36221"
           r="72"
           inkscape:export-xdpi="300"
           inkscape:export-ydpi="300" />
        <g
           transform="matrix(7.8833558,0,0,7.8833558,-3196.4257,-5089.5496)"
           id="g34956"
           style="fill:#ffffff"
           inkscape:export-xdpi="300"
           inkscape:export-ydpi="300">
          <g
             style="font-style:normal;font-variant:normal;font-weight:600;font-stretch:normal;font-size:5px;line-height:125%;font-family:a_AlternaNr;-inkscape-font-specification:'a_AlternaNr Semi-Bold';letter-spacing:0px;word-spacing:0px;fill:#ffffff;fill-opacity:1;stroke:none;stroke-width:1px;stroke-linecap:butt;stroke-linejoin:miter;stroke-opacity:1"
             id="g34960"
             transform="matrix(1,0,0,1.0610607,1.0928301,-38.117546)">
            <g
               id="g8117" />
          </g>
          <g
             style="font-style:normal;font-variant:normal;font-weight:600;font-stretch:normal;font-size:5px;line-height:125%;font-family:a_AlternaNr;-inkscape-font-specification:'a_AlternaNr Semi-Bold';letter-spacing:0px;word-spacing:0px;fill:#ffffff;fill-opacity:1;stroke:none;stroke-width:1px;stroke-linecap:butt;stroke-linejoin:miter;stroke-opacity:1"
             id="g34964" />
        </g>
      </g>
    </g>
  </g>
  <use
     height="100%"
     width="100%"
     transform="matrix(0.55555554,0,0,0.55555554,-118.33333,-129.64567)"
     id="use8099"
     xlink:href="#path34954"
     y="0"
     x="0" />
  <g
     id="g8160"
     transform="translate(-300.04724,-505.3622)">
    <path
       style="font-style:normal;font-variant:normal;font-weight:600;font-stretch:normal;font-size:5px;line-height:125%;font-family:a_AlternaNr;-inkscape-font-specification:'a_AlternaNr Semi-Bold';letter-spacing:0px;word-spacing:0px;fill:#ffffff;fill-opacity:1;fill-rule:evenodd;stroke:none;stroke-width:0.1;stroke-linecap:butt;stroke-linejoin:miter;stroke-opacity:1"
       d="m 339.02918,518.28469 c -0.19577,0 -0.36789,0.12832 -0.48759,0.47046 -0.47904,1.36864 -0.47904,1.98455 -0.47904,1.98455 0,0 -2.87414,-2.46368 -2.94255,0.2054 -0.0683,2.66883 -0.13665,3.62692 -0.13665,3.62692 l -14.13118,0.28248 c 0,0 -0.38628,2.51055 0.58166,3.28474 0.96777,0.77423 13.93445,0.38497 13.93445,0.38497 l -0.18833,1.3601 -8.70795,0 c 0,0 -0.19358,-0.77108 0,0.19664 0.19358,0.96777 3.86639,0.96659 3.86639,0.96659 0,0 -1.15728,0.57636 2.32669,0.76985 0.19752,0.0131 2.10744,-0.009 2.51487,0 -0.002,0.0626 -0.10204,3.43631 -0.1454,4.60208 -0.0486,1.35493 -0.43941,1.5952 -0.63303,2.36944 -0.19315,0.77423 -0.33329,17.66011 -0.0438,18.72467 0.29037,1.06452 2.17269,1.74503 2.17269,1.74503 0,0 0.28118,2.02606 -0.43621,2.07862 -0.49928,0.035 -2.90401,0.0464 -3.6782,0.53033 -1.40324,0.87098 -1.75269,1.53725 -2.17269,1.64237 -1.35498,0.33898 -0.72711,2.80673 -0.72711,3.38739 0,0.58065 0.24044,1.36101 0.82118,1.79635 -0.38716,0 -2.22324,0.33942 -5.02976,0.43621 -3.33886,-4e-5 -1.60124,0.23475 -0.92379,0.71853 0.67744,0.48395 1.31122,0.58437 2.76294,0.48758 1.45163,-0.0964 6.62749,-0.3876 8.85336,-0.43621 2.12907,0 6.14796,-0.0946 8.0835,-0.38497 1.93554,-0.29037 3.33203,-0.77301 5.94501,-0.82118 2.03233,0 4.21545,0.33898 4.8929,0.1454 0.67726,-0.19358 0.52766,-1.16025 0.62445,-2.66028 -1.06456,4e-5 -5.60757,0.76714 -6.67213,0.86393 -1.06451,0.0968 -3.2002,0.92117 -3.78085,1.01796 1.25792,-0.5323 0.91061,-1.20984 1.01791,-3.62692 0.0968,-2.17747 0.87081,-2.76189 -0.1454,-3.87497 -0.82263,-0.91933 -4.20586,0.53935 -7.54463,0.68436 -0.87103,0.19358 -0.58167,-1.21404 -0.58167,-2.47213 0,-1.2581 0.97285,-0.30395 1.16337,-1.35152 0.19358,-1.06456 0.0486,-0.61437 0.23957,-3.38739 0.0819,-1.19297 0.0394,-4.39173 0.34205,-4.69615 0.29518,0.099 0.32146,-1.87594 0.28204,-4.50793 1.01617,-0.77419 0.83831,-7.3327 0.83831,-10.04243 0.0968,-2.41962 0.47046,-2.04437 0.47046,-2.04437 0,0 0.14585,4.49312 0.29081,5.79961 0.13884,1.25061 1.06925,1.6509 1.06925,1.6509 0,0 0.0727,2.16031 0.38497,3.09659 0.33898,1.01616 2.22775,0.77423 2.71161,0 0.43901,-0.66952 0.30657,-1.92153 0.479,-3.29332 0.96041,-0.60448 0.5817,-7.52471 0.5817,-8.01536 -0.36,-0.24 -8.37834,-0.0307 -7.2367,-0.1708 1.71691,0.0263 24.30356,-0.0793 30.26403,-0.13665 l -2.12141,12.34341 0.0512,0.81264 c 0,0 -0.4642,0.58368 -0.43621,0.92384 0.0548,0.66584 -0.0131,0.6746 1.14624,1.64237 1.43503,1.10463 1.31529,2.69217 1.11203,3.53279 -1.36662,1.93554 -1.90098,2.31811 -3.06233,2.31811 -1.16131,0 -1.48842,-0.95586 -2.10429,-1.68512 0,0 -1.35151,-2.31827 -1.35151,-0.76985 0,1.54842 1.16117,3.28789 1.54825,3.48147 1.3452,0.87789 3.28473,0.38497 3.28473,0.38497 0,0 1.78777,-0.556 2.40368,-1.44564 0.61586,-0.88963 2.05295,-4.17432 1.16332,-5.61141 -0.8896,-1.43705 -1.77919,-2.05296 -2.32664,-2.18982 -0.54746,-0.13665 -1.02646,-0.88964 -0.95809,-1.23178 0.0683,-0.34205 1.16336,0.13665 1.57395,-2.80568 0.37928,-2.71985 1.71003,-8.74593 1.92463,-9.71733 0.38979,-0.004 2.89981,-0.0263 2.89981,-0.0263 0,0 5.80359,-0.19884 -1.74502,-1.3601 -7.54866,-1.16135 -32.31694,-0.76985 -32.31694,-0.76985 l -0.19665,-1.16337 33.09538,1.54829 c 0,0 0.27373,-2.98538 -2.66886,-3.19065 -2.94255,-0.20541 -4.72178,-0.20541 -4.72178,-0.20541 0,0 1.16332,-0.75273 -4.10592,-0.82118 -5.26928,-0.0683 -15.26034,-0.27373 -15.26034,-0.27373 0,0 -0.2054,-0.68436 -3.49,-0.75277 -3.28473,-0.0683 -2.87414,-0.0683 -2.87414,-0.0683 l 0.2054,-5.13242 c 0,0 -0.77305,-1.15478 -1.36005,-1.15478 z m 3.33601,44.66039 c 0.7304,0.12263 0.8246,0.63763 0.31665,0.85539 -0.67744,0.29037 -1.01809,-0.0438 -1.16336,1.5055 -0.14453,1.54173 0.28643,2.55815 1.06071,2.84848 0.77423,0.29037 -3.48524,-0.14278 -5.66275,-0.0942 -2.17751,0.0482 -4.2582,0.77568 -4.93564,0.87247 -0.67744,0.0968 0.96979,10e-4 1.16337,-0.96659 0.19358,-0.96777 0.62856,-3.43876 -0.14541,-3.43867 -0.38716,-0.0307 -1.08291,-0.0175 -0.96659,-0.38498 0.13665,-0.43533 0.71445,-0.80997 1.16333,-0.72706 2.86043,0.5284 6.70409,-0.15066 8.22895,-0.43621 0.38716,-0.0727 0.6975,-0.0749 0.94092,-0.035 z"
       id="path34958"
       inkscape:connector-curvature="0"
       sodipodi:nodetypes="scccccccccsccccccccccscccccccccsccccscccccccccccccccccccscscccscccccsccccccccccscccccssccccc" />
    <path
       d="m 309.69258,553.01936 0,16.31008 2.65174,0 0,-13.03353 c 0.83213,1.16177 1.38213,2.17041 1.65949,3.02241 0.27723,0.83647 0.41913,1.98383 0.41913,3.43989 l 0,6.57123 2.60896,0 0,-6.57123 c 0,-1.44059 0.13314,-2.58795 0.41081,-3.43989 0.27723,-0.86747 0.83585,-1.87616 1.66798,-3.02241 l 0,13.03353 2.66887,0 1.20611,0 c 1.47449,0 2.46582,-0.41591 2.9768,-1.25252 0.39417,-0.65059 0.5902,-1.81236 0.5902,-3.4853 0,-1.00683 -0.0788,-1.79312 -0.23957,-2.35077 -0.20453,-0.759 -0.59651,-1.41187 -1.18049,-1.96952 0.83214,-0.75905 1.2489,-1.83438 1.2489,-3.21302 0,-1.53353 -0.22073,-2.57369 -0.65865,-3.13133 -0.48176,-0.60412 -1.43241,-0.90762 -2.84848,-0.90762 l -1.09491,0 -2.66886,0 -1.12054,0 c -0.83217,1.00683 -1.58924,2.74948 -2.27539,5.22795 -0.65695,-2.401 -1.40044,-4.14365 -2.23257,-5.22795 l -3.78944,0 z m 12.08681,2.977 0.96658,0 c 0.65695,0 0.98371,0.45913 0.98371,1.38868 0,1.14629 -0.49315,1.72453 -1.47129,1.72453 l -0.479,0 0,-3.11321 z m 0,5.827 0.76985,0 c 0.89051,0 1.33443,0.82946 1.33443,2.48693 0,0.72801 -0.0902,1.21344 -0.26541,1.46127 -0.20452,0.32529 -0.6322,0.49012 -1.27452,0.49012 l -0.56457,0 0,-4.43832 z"
       id="path34962"
       inkscape:connector-curvature="0"
       style="font-style:normal;font-variant:normal;font-weight:600;font-stretch:normal;font-size:5px;line-height:125%;font-family:a_AlternaNr;-inkscape-font-specification:'a_AlternaNr Semi-Bold';letter-spacing:0px;word-spacing:0px;fill:#ffffff;fill-opacity:1;stroke:none;stroke-width:1px;stroke-linecap:butt;stroke-linejoin:miter;stroke-opacity:1" />
  </g>
  <metadata
     id="metadata8501">
    <rdf:RDF>
      <cc:Work
         rdf:about="">
        <dc:title></dc:title>
        <dc:format>image/svg+xml</dc:format>
        <dc:type
           rdf:resource="http://purl.org/dc/dcmitype/StillImage" />
      </cc:Work>
    </rdf:RDF>
  </metadata>
  <g
     transform="translate(-300.04724,-425.3622)"
     id="g8113"
     style="fill:#595959;fill-opacity:1">
    <path
       sodipodi:nodetypes="scccccccccsccccccccccscccccccccsccccscccccccccccccccccccscscccscccccsccccccccccscccccssccccc"
       inkscape:connector-curvature="0"
       id="path8115"
       d="m 339.02918,518.28469 c -0.19577,0 -0.36789,0.12832 -0.48759,0.47046 -0.47904,1.36864 -0.47904,1.98455 -0.47904,1.98455 0,0 -2.87414,-2.46368 -2.94255,0.2054 -0.0683,2.66883 -0.13665,3.62692 -0.13665,3.62692 l -14.13118,0.28248 c 0,0 -0.38628,2.51055 0.58166,3.28474 0.96777,0.77423 13.93445,0.38497 13.93445,0.38497 l -0.18833,1.3601 -8.70795,0 c 0,0 -0.19358,-0.77108 0,0.19664 0.19358,0.96777 3.86639,0.96659 3.86639,0.96659 0,0 -1.15728,0.57636 2.32669,0.76985 0.19752,0.0131 2.10744,-0.009 2.51487,0 -0.002,0.0626 -0.10204,3.43631 -0.1454,4.60208 -0.0486,1.35493 -0.43941,1.5952 -0.63303,2.36944 -0.19315,0.77423 -0.33329,17.66011 -0.0438,18.72467 0.29037,1.06452 2.17269,1.74503 2.17269,1.74503 0,0 0.28118,2.02606 -0.43621,2.07862 -0.49928,0.035 -2.90401,0.0464 -3.6782,0.53033 -1.40324,0.87098 -1.75269,1.53725 -2.17269,1.64237 -1.35498,0.33898 -0.72711,2.80673 -0.72711,3.38739 0,0.58065 0.24044,1.36101 0.82118,1.79635 -0.38716,0 -2.22324,0.33942 -5.02976,0.43621 -3.33886,-4e-5 -1.60124,0.23475 -0.92379,0.71853 0.67744,0.48395 1.31122,0.58437 2.76294,0.48758 1.45163,-0.0964 6.62749,-0.3876 8.85336,-0.43621 2.12907,0 6.14796,-0.0946 8.0835,-0.38497 1.93554,-0.29037 3.33203,-0.77301 5.94501,-0.82118 2.03233,0 4.21545,0.33898 4.8929,0.1454 0.67726,-0.19358 0.52766,-1.16025 0.62445,-2.66028 -1.06456,4e-5 -5.60757,0.76714 -6.67213,0.86393 -1.06451,0.0968 -3.2002,0.92117 -3.78085,1.01796 1.25792,-0.5323 0.91061,-1.20984 1.01791,-3.62692 0.0968,-2.17747 0.87081,-2.76189 -0.1454,-3.87497 -0.82263,-0.91933 -4.20586,0.53935 -7.54463,0.68436 -0.87103,0.19358 -0.58167,-1.21404 -0.58167,-2.47213 0,-1.2581 0.97285,-0.30395 1.16337,-1.35152 0.19358,-1.06456 0.0486,-0.61437 0.23957,-3.38739 0.0819,-1.19297 0.0394,-4.39173 0.34205,-4.69615 0.29518,0.099 0.32146,-1.87594 0.28204,-4.50793 1.01617,-0.77419 0.83831,-7.3327 0.83831,-10.04243 0.0968,-2.41962 0.47046,-2.04437 0.47046,-2.04437 0,0 0.14585,4.49312 0.29081,5.79961 0.13884,1.25061 1.06925,1.6509 1.06925,1.6509 0,0 0.0727,2.16031 0.38497,3.09659 0.33898,1.01616 2.22775,0.77423 2.71161,0 0.43901,-0.66952 0.30657,-1.92153 0.479,-3.29332 0.96041,-0.60448 0.5817,-7.52471 0.5817,-8.01536 -0.36,-0.24 -8.37834,-0.0307 -7.2367,-0.1708 1.71691,0.0263 24.30356,-0.0793 30.26403,-0.13665 l -2.12141,12.34341 0.0512,0.81264 c 0,0 -0.4642,0.58368 -0.43621,0.92384 0.0548,0.66584 -0.0131,0.6746 1.14624,1.64237 1.43503,1.10463 1.31529,2.69217 1.11203,3.53279 -1.36662,1.93554 -1.90098,2.31811 -3.06233,2.31811 -1.16131,0 -1.48842,-0.95586 -2.10429,-1.68512 0,0 -1.35151,-2.31827 -1.35151,-0.76985 0,1.54842 1.16117,3.28789 1.54825,3.48147 1.3452,0.87789 3.28473,0.38497 3.28473,0.38497 0,0 1.78777,-0.556 2.40368,-1.44564 0.61586,-0.88963 2.05295,-4.17432 1.16332,-5.61141 -0.8896,-1.43705 -1.77919,-2.05296 -2.32664,-2.18982 -0.54746,-0.13665 -1.02646,-0.88964 -0.95809,-1.23178 0.0683,-0.34205 1.16336,0.13665 1.57395,-2.80568 0.37928,-2.71985 1.71003,-8.74593 1.92463,-9.71733 0.38979,-0.004 2.89981,-0.0263 2.89981,-0.0263 0,0 5.80359,-0.19884 -1.74502,-1.3601 -7.54866,-1.16135 -32.31694,-0.76985 -32.31694,-0.76985 l -0.19665,-1.16337 33.09538,1.54829 c 0,0 0.27373,-2.98538 -2.66886,-3.19065 -2.94255,-0.20541 -4.72178,-0.20541 -4.72178,-0.20541 0,0 1.16332,-0.75273 -4.10592,-0.82118 -5.26928,-0.0683 -15.26034,-0.27373 -15.26034,-0.27373 0,0 -0.2054,-0.68436 -3.49,-0.75277 -3.28473,-0.0683 -2.87414,-0.0683 -2.87414,-0.0683 l 0.2054,-5.13242 c 0,0 -0.77305,-1.15478 -1.36005,-1.15478 z m 3.33601,44.66039 c 0.7304,0.12263 0.8246,0.63763 0.31665,0.85539 -0.67744,0.29037 -1.01809,-0.0438 -1.16336,1.5055 -0.14453,1.54173 0.28643,2.55815 1.06071,2.84848 0.77423,0.29037 -3.48524,-0.14278 -5.66275,-0.0942 -2.17751,0.0482 -4.2582,0.77568 -4.93564,0.87247 -0.67744,0.0968 0.96979,10e-4 1.16337,-0.96659 0.19358,-0.96777 0.62856,-3.43876 -0.14541,-3.43867 -0.38716,-0.0307 -1.08291,-0.0175 -0.96659,-0.38498 0.13665,-0.43533 0.71445,-0.80997 1.16333,-0.72706 2.86043,0.5284 6.70409,-0.15066 8.22895,-0.43621 0.38716,-0.0727 0.6975,-0.0749 0.94092,-0.035 z"
       style="font-style:normal;font-variant:normal;font-weight:600;font-stretch:normal;font-size:5px;line-height:125%;font-family:a_AlternaNr;-inkscape-font-specification:'a_AlternaNr Semi-Bold';letter-spacing:0px;word-spacing:0px;fill:#595959;fill-opacity:1;fill-rule:evenodd;stroke:none;stroke-width:0.1;stroke-linecap:butt;stroke-linejoin:miter;stroke-opacity:1" />
    <path
       style="font-style:normal;font-variant:normal;font-weight:600;font-stretch:normal;font-size:5px;line-height:125%;font-family:a_AlternaNr;-inkscape-font-specification:'a_AlternaNr Semi-Bold';letter-spacing:0px;word-spacing:0px;fill:#595959;fill-opacity:1;stroke:none;stroke-width:1px;stroke-linecap:butt;stroke-linejoin:miter;stroke-opacity:1"
       inkscape:connector-curvature="0"
       id="path8117"
       d="m 309.69258,553.01936 0,16.31008 2.65174,0 0,-13.03353 c 0.83213,1.16177 1.38213,2.17041 1.65949,3.02241 0.27723,0.83647 0.41913,1.98383 0.41913,3.43989 l 0,6.57123 2.60896,0 0,-6.57123 c 0,-1.44059 0.13314,-2.58795 0.41081,-3.43989 0.27723,-0.86747 0.83585,-1.87616 1.66798,-3.02241 l 0,13.03353 2.66887,0 1.20611,0 c 1.47449,0 2.46582,-0.41591 2.9768,-1.25252 0.39417,-0.65059 0.5902,-1.81236 0.5902,-3.4853 0,-1.00683 -0.0788,-1.79312 -0.23957,-2.35077 -0.20453,-0.759 -0.59651,-1.41187 -1.18049,-1.96952 0.83214,-0.75905 1.2489,-1.83438 1.2489,-3.21302 0,-1.53353 -0.22073,-2.57369 -0.65865,-3.13133 -0.48176,-0.60412 -1.43241,-0.90762 -2.84848,-0.90762 l -1.09491,0 -2.66886,0 -1.12054,0 c -0.83217,1.00683 -1.58924,2.74948 -2.27539,5.22795 -0.65695,-2.401 -1.40044,-4.14365 -2.23257,-5.22795 l -3.78944,0 z m 12.08681,2.977 0.96658,0 c 0.65695,0 0.98371,0.45913 0.98371,1.38868 0,1.14629 -0.49315,1.72453 -1.47129,1.72453 l -0.479,0 0,-3.11321 z m 0,5.827 0.76985,0 c 0.89051,0 1.33443,0.82946 1.33443,2.48693 0,0.72801 -0.0902,1.21344 -0.26541,1.46127 -0.20452,0.32529 -0.6322,0.49012 -1.27452,0.49012 l -0.56457,0 0,-4.43832 z" />
  </g>
</svg>
