<?xml version="1.0" standalone="no"?>
<svg xmlns="http://www.w3.org/2000/svg" version="1.1" width="213" height="213">
	<!-- Created with https://api.qrserver.com (QR Code API, see goQR.me/api for information) -->
	<title>QR Code</title>
	<desc>BEGIN:VCARD
VERSION:2.1
FN:Виталий Макетбург
N:Макетбург;Виталий
TITLE:Сувенирная мастерская
TEL;CELL:+79118103505
EMAIL;WORK;INTERNET:maketburg@yandex.ru
URL:http://maketburg.ru
ADR:;;;Санкт-Петербург;;;Россия
ORG:Сувенирная мастерская Макетбург
END:VCARD
</desc>
	<rect style="fill:rgb(255, 255, 255);fill-opacity:1" x="0" y="0" width="213" height="213" />
	<g id="elements">
		<path style="fill:rgb(0, 0, 0)" d="M 9,9 l 3,0 0,3 -3,0 z M 12,9 l 3,0 0,3 -3,0 z M 15,9 l 3,0 0,3 -3,0 z M 18,9 l 3,0 0,3 -3,0 z M 21,9 l 3,0 0,3 -3,0 z M 24,9 l 3,0 0,3 -3,0 z M 27,9 l 3,0 0,3 -3,0 z M 48,9 l 3,0 0,3 -3,0 z M 51,9 l 3,0 0,3 -3,0 z M 54,9 l 3,0 0,3 -3,0 z M 57,9 l 3,0 0,3 -3,0 z M 63,9 l 3,0 0,3 -3,0 z M 66,9 l 3,0 0,3 -3,0 z M 72,9 l 3,0 0,3 -3,0 z M 78,9 l 3,0 0,3 -3,0 z M 81,9 l 3,0 0,3 -3,0 z M 108,9 l 3,0 0,3 -3,0 z M 111,9 l 3,0 0,3 -3,0 z M 117,9 l 3,0 0,3 -3,0 z M 120,9 l 3,0 0,3 -3,0 z M 129,9 l 3,0 0,3 -3,0 z M 132,9 l 3,0 0,3 -3,0 z M 135,9 l 3,0 0,3 -3,0 z M 138,9 l 3,0 0,3 -3,0 z M 141,9 l 3,0 0,3 -3,0 z M 147,9 l 3,0 0,3 -3,0 z M 156,9 l 3,0 0,3 -3,0 z M 159,9 l 3,0 0,3 -3,0 z M 162,9 l 3,0 0,3 -3,0 z M 165,9 l 3,0 0,3 -3,0 z M 168,9 l 3,0 0,3 -3,0 z M 174,9 l 3,0 0,3 -3,0 z M 183,9 l 3,0 0,3 -3,0 z M 186,9 l 3,0 0,3 -3,0 z M 189,9 l 3,0 0,3 -3,0 z M 192,9 l 3,0 0,3 -3,0 z M 195,9 l 3,0 0,3 -3,0 z M 198,9 l 3,0 0,3 -3,0 z M 201,9 l 3,0 0,3 -3,0 z M 9,12 l 3,0 0,3 -3,0 z M 27,12 l 3,0 0,3 -3,0 z M 33,12 l 3,0 0,3 -3,0 z M 51,12 l 3,0 0,3 -3,0 z M 57,12 l 3,0 0,3 -3,0 z M 63,12 l 3,0 0,3 -3,0 z M 66,12 l 3,0 0,3 -3,0 z M 69,12 l 3,0 0,3 -3,0 z M 72,12 l 3,0 0,3 -3,0 z M 75,12 l 3,0 0,3 -3,0 z M 78,12 l 3,0 0,3 -3,0 z M 84,12 l 3,0 0,3 -3,0 z M 93,12 l 3,0 0,3 -3,0 z M 108,12 l 3,0 0,3 -3,0 z M 114,12 l 3,0 0,3 -3,0 z M 126,12 l 3,0 0,3 -3,0 z M 135,12 l 3,0 0,3 -3,0 z M 144,12 l 3,0 0,3 -3,0 z M 153,12 l 3,0 0,3 -3,0 z M 156,12 l 3,0 0,3 -3,0 z M 159,12 l 3,0 0,3 -3,0 z M 162,12 l 3,0 0,3 -3,0 z M 177,12 l 3,0 0,3 -3,0 z M 183,12 l 3,0 0,3 -3,0 z M 201,12 l 3,0 0,3 -3,0 z M 9,15 l 3,0 0,3 -3,0 z M 15,15 l 3,0 0,3 -3,0 z M 18,15 l 3,0 0,3 -3,0 z M 21,15 l 3,0 0,3 -3,0 z M 27,15 l 3,0 0,3 -3,0 z M 39,15 l 3,0 0,3 -3,0 z M 42,15 l 3,0 0,3 -3,0 z M 51,15 l 3,0 0,3 -3,0 z M 63,15 l 3,0 0,3 -3,0 z M 72,15 l 3,0 0,3 -3,0 z M 75,15 l 3,0 0,3 -3,0 z M 78,15 l 3,0 0,3 -3,0 z M 81,15 l 3,0 0,3 -3,0 z M 87,15 l 3,0 0,3 -3,0 z M 99,15 l 3,0 0,3 -3,0 z M 105,15 l 3,0 0,3 -3,0 z M 111,15 l 3,0 0,3 -3,0 z M 120,15 l 3,0 0,3 -3,0 z M 123,15 l 3,0 0,3 -3,0 z M 129,15 l 3,0 0,3 -3,0 z M 144,15 l 3,0 0,3 -3,0 z M 147,15 l 3,0 0,3 -3,0 z M 156,15 l 3,0 0,3 -3,0 z M 165,15 l 3,0 0,3 -3,0 z M 171,15 l 3,0 0,3 -3,0 z M 177,15 l 3,0 0,3 -3,0 z M 183,15 l 3,0 0,3 -3,0 z M 189,15 l 3,0 0,3 -3,0 z M 192,15 l 3,0 0,3 -3,0 z M 195,15 l 3,0 0,3 -3,0 z M 201,15 l 3,0 0,3 -3,0 z M 9,18 l 3,0 0,3 -3,0 z M 15,18 l 3,0 0,3 -3,0 z M 18,18 l 3,0 0,3 -3,0 z M 21,18 l 3,0 0,3 -3,0 z M 27,18 l 3,0 0,3 -3,0 z M 33,18 l 3,0 0,3 -3,0 z M 39,18 l 3,0 0,3 -3,0 z M 42,18 l 3,0 0,3 -3,0 z M 45,18 l 3,0 0,3 -3,0 z M 54,18 l 3,0 0,3 -3,0 z M 63,18 l 3,0 0,3 -3,0 z M 69,18 l 3,0 0,3 -3,0 z M 72,18 l 3,0 0,3 -3,0 z M 75,18 l 3,0 0,3 -3,0 z M 90,18 l 3,0 0,3 -3,0 z M 99,18 l 3,0 0,3 -3,0 z M 102,18 l 3,0 0,3 -3,0 z M 105,18 l 3,0 0,3 -3,0 z M 114,18 l 3,0 0,3 -3,0 z M 120,18 l 3,0 0,3 -3,0 z M 126,18 l 3,0 0,3 -3,0 z M 129,18 l 3,0 0,3 -3,0 z M 132,18 l 3,0 0,3 -3,0 z M 141,18 l 3,0 0,3 -3,0 z M 147,18 l 3,0 0,3 -3,0 z M 162,18 l 3,0 0,3 -3,0 z M 165,18 l 3,0 0,3 -3,0 z M 168,18 l 3,0 0,3 -3,0 z M 171,18 l 3,0 0,3 -3,0 z M 174,18 l 3,0 0,3 -3,0 z M 183,18 l 3,0 0,3 -3,0 z M 189,18 l 3,0 0,3 -3,0 z M 192,18 l 3,0 0,3 -3,0 z M 195,18 l 3,0 0,3 -3,0 z M 201,18 l 3,0 0,3 -3,0 z M 9,21 l 3,0 0,3 -3,0 z M 15,21 l 3,0 0,3 -3,0 z M 18,21 l 3,0 0,3 -3,0 z M 21,21 l 3,0 0,3 -3,0 z M 27,21 l 3,0 0,3 -3,0 z M 36,21 l 3,0 0,3 -3,0 z M 39,21 l 3,0 0,3 -3,0 z M 45,21 l 3,0 0,3 -3,0 z M 48,21 l 3,0 0,3 -3,0 z M 54,21 l 3,0 0,3 -3,0 z M 69,21 l 3,0 0,3 -3,0 z M 72,21 l 3,0 0,3 -3,0 z M 81,21 l 3,0 0,3 -3,0 z M 93,21 l 3,0 0,3 -3,0 z M 99,21 l 3,0 0,3 -3,0 z M 102,21 l 3,0 0,3 -3,0 z M 105,21 l 3,0 0,3 -3,0 z M 108,21 l 3,0 0,3 -3,0 z M 111,21 l 3,0 0,3 -3,0 z M 117,21 l 3,0 0,3 -3,0 z M 126,21 l 3,0 0,3 -3,0 z M 138,21 l 3,0 0,3 -3,0 z M 144,21 l 3,0 0,3 -3,0 z M 147,21 l 3,0 0,3 -3,0 z M 150,21 l 3,0 0,3 -3,0 z M 153,21 l 3,0 0,3 -3,0 z M 159,21 l 3,0 0,3 -3,0 z M 162,21 l 3,0 0,3 -3,0 z M 168,21 l 3,0 0,3 -3,0 z M 177,21 l 3,0 0,3 -3,0 z M 183,21 l 3,0 0,3 -3,0 z M 189,21 l 3,0 0,3 -3,0 z M 192,21 l 3,0 0,3 -3,0 z M 195,21 l 3,0 0,3 -3,0 z M 201,21 l 3,0 0,3 -3,0 z M 9,24 l 3,0 0,3 -3,0 z M 27,24 l 3,0 0,3 -3,0 z M 33,24 l 3,0 0,3 -3,0 z M 39,24 l 3,0 0,3 -3,0 z M 54,24 l 3,0 0,3 -3,0 z M 57,24 l 3,0 0,3 -3,0 z M 60,24 l 3,0 0,3 -3,0 z M 66,24 l 3,0 0,3 -3,0 z M 69,24 l 3,0 0,3 -3,0 z M 72,24 l 3,0 0,3 -3,0 z M 75,24 l 3,0 0,3 -3,0 z M 78,24 l 3,0 0,3 -3,0 z M 81,24 l 3,0 0,3 -3,0 z M 87,24 l 3,0 0,3 -3,0 z M 93,24 l 3,0 0,3 -3,0 z M 99,24 l 3,0 0,3 -3,0 z M 111,24 l 3,0 0,3 -3,0 z M 129,24 l 3,0 0,3 -3,0 z M 135,24 l 3,0 0,3 -3,0 z M 138,24 l 3,0 0,3 -3,0 z M 144,24 l 3,0 0,3 -3,0 z M 159,24 l 3,0 0,3 -3,0 z M 162,24 l 3,0 0,3 -3,0 z M 171,24 l 3,0 0,3 -3,0 z M 183,24 l 3,0 0,3 -3,0 z M 201,24 l 3,0 0,3 -3,0 z M 9,27 l 3,0 0,3 -3,0 z M 12,27 l 3,0 0,3 -3,0 z M 15,27 l 3,0 0,3 -3,0 z M 18,27 l 3,0 0,3 -3,0 z M 21,27 l 3,0 0,3 -3,0 z M 24,27 l 3,0 0,3 -3,0 z M 27,27 l 3,0 0,3 -3,0 z M 33,27 l 3,0 0,3 -3,0 z M 39,27 l 3,0 0,3 -3,0 z M 45,27 l 3,0 0,3 -3,0 z M 51,27 l 3,0 0,3 -3,0 z M 57,27 l 3,0 0,3 -3,0 z M 63,27 l 3,0 0,3 -3,0 z M 69,27 l 3,0 0,3 -3,0 z M 75,27 l 3,0 0,3 -3,0 z M 81,27 l 3,0 0,3 -3,0 z M 87,27 l 3,0 0,3 -3,0 z M 93,27 l 3,0 0,3 -3,0 z M 99,27 l 3,0 0,3 -3,0 z M 105,27 l 3,0 0,3 -3,0 z M 111,27 l 3,0 0,3 -3,0 z M 117,27 l 3,0 0,3 -3,0 z M 123,27 l 3,0 0,3 -3,0 z M 129,27 l 3,0 0,3 -3,0 z M 135,27 l 3,0 0,3 -3,0 z M 141,27 l 3,0 0,3 -3,0 z M 147,27 l 3,0 0,3 -3,0 z M 153,27 l 3,0 0,3 -3,0 z M 159,27 l 3,0 0,3 -3,0 z M 165,27 l 3,0 0,3 -3,0 z M 171,27 l 3,0 0,3 -3,0 z M 177,27 l 3,0 0,3 -3,0 z M 183,27 l 3,0 0,3 -3,0 z M 186,27 l 3,0 0,3 -3,0 z M 189,27 l 3,0 0,3 -3,0 z M 192,27 l 3,0 0,3 -3,0 z M 195,27 l 3,0 0,3 -3,0 z M 198,27 l 3,0 0,3 -3,0 z M 201,27 l 3,0 0,3 -3,0 z M 39,30 l 3,0 0,3 -3,0 z M 60,30 l 3,0 0,3 -3,0 z M 63,30 l 3,0 0,3 -3,0 z M 66,30 l 3,0 0,3 -3,0 z M 72,30 l 3,0 0,3 -3,0 z M 78,30 l 3,0 0,3 -3,0 z M 81,30 l 3,0 0,3 -3,0 z M 84,30 l 3,0 0,3 -3,0 z M 87,30 l 3,0 0,3 -3,0 z M 90,30 l 3,0 0,3 -3,0 z M 93,30 l 3,0 0,3 -3,0 z M 99,30 l 3,0 0,3 -3,0 z M 111,30 l 3,0 0,3 -3,0 z M 117,30 l 3,0 0,3 -3,0 z M 126,30 l 3,0 0,3 -3,0 z M 135,30 l 3,0 0,3 -3,0 z M 138,30 l 3,0 0,3 -3,0 z M 141,30 l 3,0 0,3 -3,0 z M 144,30 l 3,0 0,3 -3,0 z M 150,30 l 3,0 0,3 -3,0 z M 153,30 l 3,0 0,3 -3,0 z M 171,30 l 3,0 0,3 -3,0 z M 174,30 l 3,0 0,3 -3,0 z M 9,33 l 3,0 0,3 -3,0 z M 12,33 l 3,0 0,3 -3,0 z M 15,33 l 3,0 0,3 -3,0 z M 18,33 l 3,0 0,3 -3,0 z M 21,33 l 3,0 0,3 -3,0 z M 27,33 l 3,0 0,3 -3,0 z M 30,33 l 3,0 0,3 -3,0 z M 33,33 l 3,0 0,3 -3,0 z M 36,33 l 3,0 0,3 -3,0 z M 42,33 l 3,0 0,3 -3,0 z M 45,33 l 3,0 0,3 -3,0 z M 48,33 l 3,0 0,3 -3,0 z M 63,33 l 3,0 0,3 -3,0 z M 69,33 l 3,0 0,3 -3,0 z M 72,33 l 3,0 0,3 -3,0 z M 78,33 l 3,0 0,3 -3,0 z M 81,33 l 3,0 0,3 -3,0 z M 87,33 l 3,0 0,3 -3,0 z M 90,33 l 3,0 0,3 -3,0 z M 99,33 l 3,0 0,3 -3,0 z M 102,33 l 3,0 0,3 -3,0 z M 105,33 l 3,0 0,3 -3,0 z M 108,33 l 3,0 0,3 -3,0 z M 111,33 l 3,0 0,3 -3,0 z M 126,33 l 3,0 0,3 -3,0 z M 129,33 l 3,0 0,3 -3,0 z M 135,33 l 3,0 0,3 -3,0 z M 141,33 l 3,0 0,3 -3,0 z M 144,33 l 3,0 0,3 -3,0 z M 150,33 l 3,0 0,3 -3,0 z M 165,33 l 3,0 0,3 -3,0 z M 171,33 l 3,0 0,3 -3,0 z M 180,33 l 3,0 0,3 -3,0 z M 186,33 l 3,0 0,3 -3,0 z M 192,33 l 3,0 0,3 -3,0 z M 198,33 l 3,0 0,3 -3,0 z M 9,36 l 3,0 0,3 -3,0 z M 12,36 l 3,0 0,3 -3,0 z M 15,36 l 3,0 0,3 -3,0 z M 18,36 l 3,0 0,3 -3,0 z M 24,36 l 3,0 0,3 -3,0 z M 36,36 l 3,0 0,3 -3,0 z M 39,36 l 3,0 0,3 -3,0 z M 45,36 l 3,0 0,3 -3,0 z M 54,36 l 3,0 0,3 -3,0 z M 57,36 l 3,0 0,3 -3,0 z M 63,36 l 3,0 0,3 -3,0 z M 75,36 l 3,0 0,3 -3,0 z M 81,36 l 3,0 0,3 -3,0 z M 87,36 l 3,0 0,3 -3,0 z M 90,36 l 3,0 0,3 -3,0 z M 99,36 l 3,0 0,3 -3,0 z M 105,36 l 3,0 0,3 -3,0 z M 108,36 l 3,0 0,3 -3,0 z M 114,36 l 3,0 0,3 -3,0 z M 117,36 l 3,0 0,3 -3,0 z M 120,36 l 3,0 0,3 -3,0 z M 123,36 l 3,0 0,3 -3,0 z M 132,36 l 3,0 0,3 -3,0 z M 144,36 l 3,0 0,3 -3,0 z M 147,36 l 3,0 0,3 -3,0 z M 150,36 l 3,0 0,3 -3,0 z M 153,36 l 3,0 0,3 -3,0 z M 159,36 l 3,0 0,3 -3,0 z M 177,36 l 3,0 0,3 -3,0 z M 180,36 l 3,0 0,3 -3,0 z M 189,36 l 3,0 0,3 -3,0 z M 195,36 l 3,0 0,3 -3,0 z M 198,36 l 3,0 0,3 -3,0 z M 15,39 l 3,0 0,3 -3,0 z M 27,39 l 3,0 0,3 -3,0 z M 30,39 l 3,0 0,3 -3,0 z M 36,39 l 3,0 0,3 -3,0 z M 39,39 l 3,0 0,3 -3,0 z M 42,39 l 3,0 0,3 -3,0 z M 45,39 l 3,0 0,3 -3,0 z M 48,39 l 3,0 0,3 -3,0 z M 51,39 l 3,0 0,3 -3,0 z M 54,39 l 3,0 0,3 -3,0 z M 66,39 l 3,0 0,3 -3,0 z M 72,39 l 3,0 0,3 -3,0 z M 78,39 l 3,0 0,3 -3,0 z M 81,39 l 3,0 0,3 -3,0 z M 84,39 l 3,0 0,3 -3,0 z M 96,39 l 3,0 0,3 -3,0 z M 117,39 l 3,0 0,3 -3,0 z M 120,39 l 3,0 0,3 -3,0 z M 126,39 l 3,0 0,3 -3,0 z M 132,39 l 3,0 0,3 -3,0 z M 135,39 l 3,0 0,3 -3,0 z M 147,39 l 3,0 0,3 -3,0 z M 150,39 l 3,0 0,3 -3,0 z M 156,39 l 3,0 0,3 -3,0 z M 159,39 l 3,0 0,3 -3,0 z M 177,39 l 3,0 0,3 -3,0 z M 180,39 l 3,0 0,3 -3,0 z M 183,39 l 3,0 0,3 -3,0 z M 186,39 l 3,0 0,3 -3,0 z M 192,39 l 3,0 0,3 -3,0 z M 198,39 l 3,0 0,3 -3,0 z M 201,39 l 3,0 0,3 -3,0 z M 9,42 l 3,0 0,3 -3,0 z M 18,42 l 3,0 0,3 -3,0 z M 21,42 l 3,0 0,3 -3,0 z M 24,42 l 3,0 0,3 -3,0 z M 30,42 l 3,0 0,3 -3,0 z M 33,42 l 3,0 0,3 -3,0 z M 36,42 l 3,0 0,3 -3,0 z M 39,42 l 3,0 0,3 -3,0 z M 45,42 l 3,0 0,3 -3,0 z M 48,42 l 3,0 0,3 -3,0 z M 51,42 l 3,0 0,3 -3,0 z M 60,42 l 3,0 0,3 -3,0 z M 63,42 l 3,0 0,3 -3,0 z M 69,42 l 3,0 0,3 -3,0 z M 72,42 l 3,0 0,3 -3,0 z M 75,42 l 3,0 0,3 -3,0 z M 78,42 l 3,0 0,3 -3,0 z M 84,42 l 3,0 0,3 -3,0 z M 93,42 l 3,0 0,3 -3,0 z M 96,42 l 3,0 0,3 -3,0 z M 99,42 l 3,0 0,3 -3,0 z M 111,42 l 3,0 0,3 -3,0 z M 114,42 l 3,0 0,3 -3,0 z M 117,42 l 3,0 0,3 -3,0 z M 123,42 l 3,0 0,3 -3,0 z M 126,42 l 3,0 0,3 -3,0 z M 132,42 l 3,0 0,3 -3,0 z M 135,42 l 3,0 0,3 -3,0 z M 144,42 l 3,0 0,3 -3,0 z M 153,42 l 3,0 0,3 -3,0 z M 159,42 l 3,0 0,3 -3,0 z M 162,42 l 3,0 0,3 -3,0 z M 168,42 l 3,0 0,3 -3,0 z M 180,42 l 3,0 0,3 -3,0 z M 201,42 l 3,0 0,3 -3,0 z M 9,45 l 3,0 0,3 -3,0 z M 12,45 l 3,0 0,3 -3,0 z M 18,45 l 3,0 0,3 -3,0 z M 24,45 l 3,0 0,3 -3,0 z M 27,45 l 3,0 0,3 -3,0 z M 30,45 l 3,0 0,3 -3,0 z M 45,45 l 3,0 0,3 -3,0 z M 48,45 l 3,0 0,3 -3,0 z M 63,45 l 3,0 0,3 -3,0 z M 72,45 l 3,0 0,3 -3,0 z M 75,45 l 3,0 0,3 -3,0 z M 81,45 l 3,0 0,3 -3,0 z M 84,45 l 3,0 0,3 -3,0 z M 87,45 l 3,0 0,3 -3,0 z M 90,45 l 3,0 0,3 -3,0 z M 99,45 l 3,0 0,3 -3,0 z M 102,45 l 3,0 0,3 -3,0 z M 105,45 l 3,0 0,3 -3,0 z M 111,45 l 3,0 0,3 -3,0 z M 117,45 l 3,0 0,3 -3,0 z M 120,45 l 3,0 0,3 -3,0 z M 126,45 l 3,0 0,3 -3,0 z M 132,45 l 3,0 0,3 -3,0 z M 135,45 l 3,0 0,3 -3,0 z M 153,45 l 3,0 0,3 -3,0 z M 156,45 l 3,0 0,3 -3,0 z M 162,45 l 3,0 0,3 -3,0 z M 168,45 l 3,0 0,3 -3,0 z M 171,45 l 3,0 0,3 -3,0 z M 174,45 l 3,0 0,3 -3,0 z M 180,45 l 3,0 0,3 -3,0 z M 192,45 l 3,0 0,3 -3,0 z M 195,45 l 3,0 0,3 -3,0 z M 198,45 l 3,0 0,3 -3,0 z M 201,45 l 3,0 0,3 -3,0 z M 12,48 l 3,0 0,3 -3,0 z M 15,48 l 3,0 0,3 -3,0 z M 33,48 l 3,0 0,3 -3,0 z M 36,48 l 3,0 0,3 -3,0 z M 42,48 l 3,0 0,3 -3,0 z M 48,48 l 3,0 0,3 -3,0 z M 51,48 l 3,0 0,3 -3,0 z M 57,48 l 3,0 0,3 -3,0 z M 72,48 l 3,0 0,3 -3,0 z M 75,48 l 3,0 0,3 -3,0 z M 78,48 l 3,0 0,3 -3,0 z M 81,48 l 3,0 0,3 -3,0 z M 105,48 l 3,0 0,3 -3,0 z M 108,48 l 3,0 0,3 -3,0 z M 114,48 l 3,0 0,3 -3,0 z M 120,48 l 3,0 0,3 -3,0 z M 123,48 l 3,0 0,3 -3,0 z M 129,48 l 3,0 0,3 -3,0 z M 138,48 l 3,0 0,3 -3,0 z M 147,48 l 3,0 0,3 -3,0 z M 150,48 l 3,0 0,3 -3,0 z M 153,48 l 3,0 0,3 -3,0 z M 156,48 l 3,0 0,3 -3,0 z M 159,48 l 3,0 0,3 -3,0 z M 162,48 l 3,0 0,3 -3,0 z M 171,48 l 3,0 0,3 -3,0 z M 177,48 l 3,0 0,3 -3,0 z M 180,48 l 3,0 0,3 -3,0 z M 186,48 l 3,0 0,3 -3,0 z M 189,48 l 3,0 0,3 -3,0 z M 192,48 l 3,0 0,3 -3,0 z M 201,48 l 3,0 0,3 -3,0 z M 12,51 l 3,0 0,3 -3,0 z M 15,51 l 3,0 0,3 -3,0 z M 24,51 l 3,0 0,3 -3,0 z M 27,51 l 3,0 0,3 -3,0 z M 33,51 l 3,0 0,3 -3,0 z M 36,51 l 3,0 0,3 -3,0 z M 63,51 l 3,0 0,3 -3,0 z M 81,51 l 3,0 0,3 -3,0 z M 93,51 l 3,0 0,3 -3,0 z M 96,51 l 3,0 0,3 -3,0 z M 108,51 l 3,0 0,3 -3,0 z M 126,51 l 3,0 0,3 -3,0 z M 129,51 l 3,0 0,3 -3,0 z M 138,51 l 3,0 0,3 -3,0 z M 141,51 l 3,0 0,3 -3,0 z M 150,51 l 3,0 0,3 -3,0 z M 162,51 l 3,0 0,3 -3,0 z M 171,51 l 3,0 0,3 -3,0 z M 174,51 l 3,0 0,3 -3,0 z M 180,51 l 3,0 0,3 -3,0 z M 186,51 l 3,0 0,3 -3,0 z M 189,51 l 3,0 0,3 -3,0 z M 192,51 l 3,0 0,3 -3,0 z M 195,51 l 3,0 0,3 -3,0 z M 12,54 l 3,0 0,3 -3,0 z M 18,54 l 3,0 0,3 -3,0 z M 21,54 l 3,0 0,3 -3,0 z M 36,54 l 3,0 0,3 -3,0 z M 39,54 l 3,0 0,3 -3,0 z M 48,54 l 3,0 0,3 -3,0 z M 57,54 l 3,0 0,3 -3,0 z M 72,54 l 3,0 0,3 -3,0 z M 75,54 l 3,0 0,3 -3,0 z M 81,54 l 3,0 0,3 -3,0 z M 87,54 l 3,0 0,3 -3,0 z M 96,54 l 3,0 0,3 -3,0 z M 99,54 l 3,0 0,3 -3,0 z M 105,54 l 3,0 0,3 -3,0 z M 111,54 l 3,0 0,3 -3,0 z M 114,54 l 3,0 0,3 -3,0 z M 120,54 l 3,0 0,3 -3,0 z M 126,54 l 3,0 0,3 -3,0 z M 132,54 l 3,0 0,3 -3,0 z M 135,54 l 3,0 0,3 -3,0 z M 144,54 l 3,0 0,3 -3,0 z M 153,54 l 3,0 0,3 -3,0 z M 156,54 l 3,0 0,3 -3,0 z M 162,54 l 3,0 0,3 -3,0 z M 168,54 l 3,0 0,3 -3,0 z M 171,54 l 3,0 0,3 -3,0 z M 177,54 l 3,0 0,3 -3,0 z M 183,54 l 3,0 0,3 -3,0 z M 192,54 l 3,0 0,3 -3,0 z M 12,57 l 3,0 0,3 -3,0 z M 15,57 l 3,0 0,3 -3,0 z M 18,57 l 3,0 0,3 -3,0 z M 24,57 l 3,0 0,3 -3,0 z M 27,57 l 3,0 0,3 -3,0 z M 30,57 l 3,0 0,3 -3,0 z M 39,57 l 3,0 0,3 -3,0 z M 45,57 l 3,0 0,3 -3,0 z M 54,57 l 3,0 0,3 -3,0 z M 57,57 l 3,0 0,3 -3,0 z M 60,57 l 3,0 0,3 -3,0 z M 72,57 l 3,0 0,3 -3,0 z M 78,57 l 3,0 0,3 -3,0 z M 81,57 l 3,0 0,3 -3,0 z M 84,57 l 3,0 0,3 -3,0 z M 93,57 l 3,0 0,3 -3,0 z M 99,57 l 3,0 0,3 -3,0 z M 108,57 l 3,0 0,3 -3,0 z M 117,57 l 3,0 0,3 -3,0 z M 123,57 l 3,0 0,3 -3,0 z M 126,57 l 3,0 0,3 -3,0 z M 138,57 l 3,0 0,3 -3,0 z M 141,57 l 3,0 0,3 -3,0 z M 147,57 l 3,0 0,3 -3,0 z M 150,57 l 3,0 0,3 -3,0 z M 153,57 l 3,0 0,3 -3,0 z M 156,57 l 3,0 0,3 -3,0 z M 159,57 l 3,0 0,3 -3,0 z M 168,57 l 3,0 0,3 -3,0 z M 174,57 l 3,0 0,3 -3,0 z M 180,57 l 3,0 0,3 -3,0 z M 183,57 l 3,0 0,3 -3,0 z M 9,60 l 3,0 0,3 -3,0 z M 15,60 l 3,0 0,3 -3,0 z M 30,60 l 3,0 0,3 -3,0 z M 33,60 l 3,0 0,3 -3,0 z M 42,60 l 3,0 0,3 -3,0 z M 51,60 l 3,0 0,3 -3,0 z M 54,60 l 3,0 0,3 -3,0 z M 57,60 l 3,0 0,3 -3,0 z M 63,60 l 3,0 0,3 -3,0 z M 72,60 l 3,0 0,3 -3,0 z M 78,60 l 3,0 0,3 -3,0 z M 84,60 l 3,0 0,3 -3,0 z M 87,60 l 3,0 0,3 -3,0 z M 90,60 l 3,0 0,3 -3,0 z M 93,60 l 3,0 0,3 -3,0 z M 96,60 l 3,0 0,3 -3,0 z M 99,60 l 3,0 0,3 -3,0 z M 102,60 l 3,0 0,3 -3,0 z M 105,60 l 3,0 0,3 -3,0 z M 111,60 l 3,0 0,3 -3,0 z M 126,60 l 3,0 0,3 -3,0 z M 129,60 l 3,0 0,3 -3,0 z M 135,60 l 3,0 0,3 -3,0 z M 141,60 l 3,0 0,3 -3,0 z M 150,60 l 3,0 0,3 -3,0 z M 156,60 l 3,0 0,3 -3,0 z M 165,60 l 3,0 0,3 -3,0 z M 168,60 l 3,0 0,3 -3,0 z M 171,60 l 3,0 0,3 -3,0 z M 174,60 l 3,0 0,3 -3,0 z M 177,60 l 3,0 0,3 -3,0 z M 180,60 l 3,0 0,3 -3,0 z M 183,60 l 3,0 0,3 -3,0 z M 189,60 l 3,0 0,3 -3,0 z M 198,60 l 3,0 0,3 -3,0 z M 12,63 l 3,0 0,3 -3,0 z M 27,63 l 3,0 0,3 -3,0 z M 30,63 l 3,0 0,3 -3,0 z M 36,63 l 3,0 0,3 -3,0 z M 39,63 l 3,0 0,3 -3,0 z M 42,63 l 3,0 0,3 -3,0 z M 57,63 l 3,0 0,3 -3,0 z M 63,63 l 3,0 0,3 -3,0 z M 69,63 l 3,0 0,3 -3,0 z M 75,63 l 3,0 0,3 -3,0 z M 84,63 l 3,0 0,3 -3,0 z M 87,63 l 3,0 0,3 -3,0 z M 90,63 l 3,0 0,3 -3,0 z M 99,63 l 3,0 0,3 -3,0 z M 105,63 l 3,0 0,3 -3,0 z M 108,63 l 3,0 0,3 -3,0 z M 111,63 l 3,0 0,3 -3,0 z M 114,63 l 3,0 0,3 -3,0 z M 117,63 l 3,0 0,3 -3,0 z M 135,63 l 3,0 0,3 -3,0 z M 144,63 l 3,0 0,3 -3,0 z M 150,63 l 3,0 0,3 -3,0 z M 153,63 l 3,0 0,3 -3,0 z M 171,63 l 3,0 0,3 -3,0 z M 177,63 l 3,0 0,3 -3,0 z M 186,63 l 3,0 0,3 -3,0 z M 189,63 l 3,0 0,3 -3,0 z M 192,63 l 3,0 0,3 -3,0 z M 198,63 l 3,0 0,3 -3,0 z M 15,66 l 3,0 0,3 -3,0 z M 18,66 l 3,0 0,3 -3,0 z M 21,66 l 3,0 0,3 -3,0 z M 24,66 l 3,0 0,3 -3,0 z M 30,66 l 3,0 0,3 -3,0 z M 36,66 l 3,0 0,3 -3,0 z M 57,66 l 3,0 0,3 -3,0 z M 60,66 l 3,0 0,3 -3,0 z M 63,66 l 3,0 0,3 -3,0 z M 66,66 l 3,0 0,3 -3,0 z M 81,66 l 3,0 0,3 -3,0 z M 84,66 l 3,0 0,3 -3,0 z M 87,66 l 3,0 0,3 -3,0 z M 90,66 l 3,0 0,3 -3,0 z M 93,66 l 3,0 0,3 -3,0 z M 96,66 l 3,0 0,3 -3,0 z M 102,66 l 3,0 0,3 -3,0 z M 105,66 l 3,0 0,3 -3,0 z M 108,66 l 3,0 0,3 -3,0 z M 123,66 l 3,0 0,3 -3,0 z M 132,66 l 3,0 0,3 -3,0 z M 138,66 l 3,0 0,3 -3,0 z M 141,66 l 3,0 0,3 -3,0 z M 147,66 l 3,0 0,3 -3,0 z M 162,66 l 3,0 0,3 -3,0 z M 165,66 l 3,0 0,3 -3,0 z M 168,66 l 3,0 0,3 -3,0 z M 174,66 l 3,0 0,3 -3,0 z M 177,66 l 3,0 0,3 -3,0 z M 183,66 l 3,0 0,3 -3,0 z M 189,66 l 3,0 0,3 -3,0 z M 192,66 l 3,0 0,3 -3,0 z M 198,66 l 3,0 0,3 -3,0 z M 201,66 l 3,0 0,3 -3,0 z M 15,69 l 3,0 0,3 -3,0 z M 21,69 l 3,0 0,3 -3,0 z M 24,69 l 3,0 0,3 -3,0 z M 27,69 l 3,0 0,3 -3,0 z M 36,69 l 3,0 0,3 -3,0 z M 42,69 l 3,0 0,3 -3,0 z M 51,69 l 3,0 0,3 -3,0 z M 54,69 l 3,0 0,3 -3,0 z M 60,69 l 3,0 0,3 -3,0 z M 63,69 l 3,0 0,3 -3,0 z M 69,69 l 3,0 0,3 -3,0 z M 81,69 l 3,0 0,3 -3,0 z M 84,69 l 3,0 0,3 -3,0 z M 90,69 l 3,0 0,3 -3,0 z M 111,69 l 3,0 0,3 -3,0 z M 114,69 l 3,0 0,3 -3,0 z M 120,69 l 3,0 0,3 -3,0 z M 123,69 l 3,0 0,3 -3,0 z M 126,69 l 3,0 0,3 -3,0 z M 129,69 l 3,0 0,3 -3,0 z M 132,69 l 3,0 0,3 -3,0 z M 135,69 l 3,0 0,3 -3,0 z M 141,69 l 3,0 0,3 -3,0 z M 150,69 l 3,0 0,3 -3,0 z M 165,69 l 3,0 0,3 -3,0 z M 168,69 l 3,0 0,3 -3,0 z M 171,69 l 3,0 0,3 -3,0 z M 186,69 l 3,0 0,3 -3,0 z M 189,69 l 3,0 0,3 -3,0 z M 9,72 l 3,0 0,3 -3,0 z M 24,72 l 3,0 0,3 -3,0 z M 30,72 l 3,0 0,3 -3,0 z M 36,72 l 3,0 0,3 -3,0 z M 42,72 l 3,0 0,3 -3,0 z M 45,72 l 3,0 0,3 -3,0 z M 48,72 l 3,0 0,3 -3,0 z M 57,72 l 3,0 0,3 -3,0 z M 63,72 l 3,0 0,3 -3,0 z M 69,72 l 3,0 0,3 -3,0 z M 72,72 l 3,0 0,3 -3,0 z M 81,72 l 3,0 0,3 -3,0 z M 90,72 l 3,0 0,3 -3,0 z M 96,72 l 3,0 0,3 -3,0 z M 102,72 l 3,0 0,3 -3,0 z M 105,72 l 3,0 0,3 -3,0 z M 117,72 l 3,0 0,3 -3,0 z M 123,72 l 3,0 0,3 -3,0 z M 135,72 l 3,0 0,3 -3,0 z M 138,72 l 3,0 0,3 -3,0 z M 144,72 l 3,0 0,3 -3,0 z M 153,72 l 3,0 0,3 -3,0 z M 159,72 l 3,0 0,3 -3,0 z M 180,72 l 3,0 0,3 -3,0 z M 183,72 l 3,0 0,3 -3,0 z M 186,72 l 3,0 0,3 -3,0 z M 189,72 l 3,0 0,3 -3,0 z M 192,72 l 3,0 0,3 -3,0 z M 195,72 l 3,0 0,3 -3,0 z M 198,72 l 3,0 0,3 -3,0 z M 201,72 l 3,0 0,3 -3,0 z M 9,75 l 3,0 0,3 -3,0 z M 12,75 l 3,0 0,3 -3,0 z M 18,75 l 3,0 0,3 -3,0 z M 21,75 l 3,0 0,3 -3,0 z M 27,75 l 3,0 0,3 -3,0 z M 30,75 l 3,0 0,3 -3,0 z M 42,75 l 3,0 0,3 -3,0 z M 45,75 l 3,0 0,3 -3,0 z M 51,75 l 3,0 0,3 -3,0 z M 54,75 l 3,0 0,3 -3,0 z M 57,75 l 3,0 0,3 -3,0 z M 66,75 l 3,0 0,3 -3,0 z M 69,75 l 3,0 0,3 -3,0 z M 75,75 l 3,0 0,3 -3,0 z M 84,75 l 3,0 0,3 -3,0 z M 87,75 l 3,0 0,3 -3,0 z M 90,75 l 3,0 0,3 -3,0 z M 99,75 l 3,0 0,3 -3,0 z M 105,75 l 3,0 0,3 -3,0 z M 108,75 l 3,0 0,3 -3,0 z M 123,75 l 3,0 0,3 -3,0 z M 126,75 l 3,0 0,3 -3,0 z M 129,75 l 3,0 0,3 -3,0 z M 135,75 l 3,0 0,3 -3,0 z M 138,75 l 3,0 0,3 -3,0 z M 141,75 l 3,0 0,3 -3,0 z M 153,75 l 3,0 0,3 -3,0 z M 159,75 l 3,0 0,3 -3,0 z M 168,75 l 3,0 0,3 -3,0 z M 177,75 l 3,0 0,3 -3,0 z M 186,75 l 3,0 0,3 -3,0 z M 192,75 l 3,0 0,3 -3,0 z M 198,75 l 3,0 0,3 -3,0 z M 12,78 l 3,0 0,3 -3,0 z M 21,78 l 3,0 0,3 -3,0 z M 24,78 l 3,0 0,3 -3,0 z M 33,78 l 3,0 0,3 -3,0 z M 39,78 l 3,0 0,3 -3,0 z M 48,78 l 3,0 0,3 -3,0 z M 51,78 l 3,0 0,3 -3,0 z M 57,78 l 3,0 0,3 -3,0 z M 60,78 l 3,0 0,3 -3,0 z M 69,78 l 3,0 0,3 -3,0 z M 78,78 l 3,0 0,3 -3,0 z M 81,78 l 3,0 0,3 -3,0 z M 84,78 l 3,0 0,3 -3,0 z M 90,78 l 3,0 0,3 -3,0 z M 108,78 l 3,0 0,3 -3,0 z M 111,78 l 3,0 0,3 -3,0 z M 114,78 l 3,0 0,3 -3,0 z M 117,78 l 3,0 0,3 -3,0 z M 135,78 l 3,0 0,3 -3,0 z M 138,78 l 3,0 0,3 -3,0 z M 144,78 l 3,0 0,3 -3,0 z M 150,78 l 3,0 0,3 -3,0 z M 156,78 l 3,0 0,3 -3,0 z M 159,78 l 3,0 0,3 -3,0 z M 165,78 l 3,0 0,3 -3,0 z M 171,78 l 3,0 0,3 -3,0 z M 174,78 l 3,0 0,3 -3,0 z M 180,78 l 3,0 0,3 -3,0 z M 183,78 l 3,0 0,3 -3,0 z M 186,78 l 3,0 0,3 -3,0 z M 201,78 l 3,0 0,3 -3,0 z M 9,81 l 3,0 0,3 -3,0 z M 15,81 l 3,0 0,3 -3,0 z M 18,81 l 3,0 0,3 -3,0 z M 27,81 l 3,0 0,3 -3,0 z M 39,81 l 3,0 0,3 -3,0 z M 45,81 l 3,0 0,3 -3,0 z M 54,81 l 3,0 0,3 -3,0 z M 72,81 l 3,0 0,3 -3,0 z M 78,81 l 3,0 0,3 -3,0 z M 81,81 l 3,0 0,3 -3,0 z M 90,81 l 3,0 0,3 -3,0 z M 99,81 l 3,0 0,3 -3,0 z M 102,81 l 3,0 0,3 -3,0 z M 108,81 l 3,0 0,3 -3,0 z M 114,81 l 3,0 0,3 -3,0 z M 120,81 l 3,0 0,3 -3,0 z M 129,81 l 3,0 0,3 -3,0 z M 132,81 l 3,0 0,3 -3,0 z M 135,81 l 3,0 0,3 -3,0 z M 138,81 l 3,0 0,3 -3,0 z M 141,81 l 3,0 0,3 -3,0 z M 144,81 l 3,0 0,3 -3,0 z M 156,81 l 3,0 0,3 -3,0 z M 162,81 l 3,0 0,3 -3,0 z M 165,81 l 3,0 0,3 -3,0 z M 168,81 l 3,0 0,3 -3,0 z M 171,81 l 3,0 0,3 -3,0 z M 189,81 l 3,0 0,3 -3,0 z M 198,81 l 3,0 0,3 -3,0 z M 201,81 l 3,0 0,3 -3,0 z M 9,84 l 3,0 0,3 -3,0 z M 15,84 l 3,0 0,3 -3,0 z M 18,84 l 3,0 0,3 -3,0 z M 21,84 l 3,0 0,3 -3,0 z M 24,84 l 3,0 0,3 -3,0 z M 45,84 l 3,0 0,3 -3,0 z M 63,84 l 3,0 0,3 -3,0 z M 81,84 l 3,0 0,3 -3,0 z M 90,84 l 3,0 0,3 -3,0 z M 99,84 l 3,0 0,3 -3,0 z M 102,84 l 3,0 0,3 -3,0 z M 105,84 l 3,0 0,3 -3,0 z M 108,84 l 3,0 0,3 -3,0 z M 117,84 l 3,0 0,3 -3,0 z M 123,84 l 3,0 0,3 -3,0 z M 147,84 l 3,0 0,3 -3,0 z M 153,84 l 3,0 0,3 -3,0 z M 156,84 l 3,0 0,3 -3,0 z M 159,84 l 3,0 0,3 -3,0 z M 162,84 l 3,0 0,3 -3,0 z M 168,84 l 3,0 0,3 -3,0 z M 174,84 l 3,0 0,3 -3,0 z M 180,84 l 3,0 0,3 -3,0 z M 195,84 l 3,0 0,3 -3,0 z M 198,84 l 3,0 0,3 -3,0 z M 12,87 l 3,0 0,3 -3,0 z M 15,87 l 3,0 0,3 -3,0 z M 18,87 l 3,0 0,3 -3,0 z M 21,87 l 3,0 0,3 -3,0 z M 27,87 l 3,0 0,3 -3,0 z M 30,87 l 3,0 0,3 -3,0 z M 42,87 l 3,0 0,3 -3,0 z M 45,87 l 3,0 0,3 -3,0 z M 48,87 l 3,0 0,3 -3,0 z M 51,87 l 3,0 0,3 -3,0 z M 57,87 l 3,0 0,3 -3,0 z M 60,87 l 3,0 0,3 -3,0 z M 63,87 l 3,0 0,3 -3,0 z M 66,87 l 3,0 0,3 -3,0 z M 78,87 l 3,0 0,3 -3,0 z M 87,87 l 3,0 0,3 -3,0 z M 93,87 l 3,0 0,3 -3,0 z M 111,87 l 3,0 0,3 -3,0 z M 117,87 l 3,0 0,3 -3,0 z M 135,87 l 3,0 0,3 -3,0 z M 138,87 l 3,0 0,3 -3,0 z M 141,87 l 3,0 0,3 -3,0 z M 153,87 l 3,0 0,3 -3,0 z M 156,87 l 3,0 0,3 -3,0 z M 162,87 l 3,0 0,3 -3,0 z M 168,87 l 3,0 0,3 -3,0 z M 171,87 l 3,0 0,3 -3,0 z M 174,87 l 3,0 0,3 -3,0 z M 177,87 l 3,0 0,3 -3,0 z M 183,87 l 3,0 0,3 -3,0 z M 186,87 l 3,0 0,3 -3,0 z M 189,87 l 3,0 0,3 -3,0 z M 192,87 l 3,0 0,3 -3,0 z M 195,87 l 3,0 0,3 -3,0 z M 198,87 l 3,0 0,3 -3,0 z M 9,90 l 3,0 0,3 -3,0 z M 12,90 l 3,0 0,3 -3,0 z M 18,90 l 3,0 0,3 -3,0 z M 45,90 l 3,0 0,3 -3,0 z M 48,90 l 3,0 0,3 -3,0 z M 54,90 l 3,0 0,3 -3,0 z M 60,90 l 3,0 0,3 -3,0 z M 63,90 l 3,0 0,3 -3,0 z M 66,90 l 3,0 0,3 -3,0 z M 69,90 l 3,0 0,3 -3,0 z M 72,90 l 3,0 0,3 -3,0 z M 75,90 l 3,0 0,3 -3,0 z M 84,90 l 3,0 0,3 -3,0 z M 87,90 l 3,0 0,3 -3,0 z M 90,90 l 3,0 0,3 -3,0 z M 93,90 l 3,0 0,3 -3,0 z M 96,90 l 3,0 0,3 -3,0 z M 108,90 l 3,0 0,3 -3,0 z M 111,90 l 3,0 0,3 -3,0 z M 117,90 l 3,0 0,3 -3,0 z M 123,90 l 3,0 0,3 -3,0 z M 126,90 l 3,0 0,3 -3,0 z M 132,90 l 3,0 0,3 -3,0 z M 138,90 l 3,0 0,3 -3,0 z M 141,90 l 3,0 0,3 -3,0 z M 144,90 l 3,0 0,3 -3,0 z M 159,90 l 3,0 0,3 -3,0 z M 162,90 l 3,0 0,3 -3,0 z M 171,90 l 3,0 0,3 -3,0 z M 177,90 l 3,0 0,3 -3,0 z M 180,90 l 3,0 0,3 -3,0 z M 189,90 l 3,0 0,3 -3,0 z M 9,93 l 3,0 0,3 -3,0 z M 12,93 l 3,0 0,3 -3,0 z M 15,93 l 3,0 0,3 -3,0 z M 24,93 l 3,0 0,3 -3,0 z M 27,93 l 3,0 0,3 -3,0 z M 33,93 l 3,0 0,3 -3,0 z M 42,93 l 3,0 0,3 -3,0 z M 45,93 l 3,0 0,3 -3,0 z M 48,93 l 3,0 0,3 -3,0 z M 51,93 l 3,0 0,3 -3,0 z M 72,93 l 3,0 0,3 -3,0 z M 75,93 l 3,0 0,3 -3,0 z M 81,93 l 3,0 0,3 -3,0 z M 84,93 l 3,0 0,3 -3,0 z M 90,93 l 3,0 0,3 -3,0 z M 96,93 l 3,0 0,3 -3,0 z M 102,93 l 3,0 0,3 -3,0 z M 108,93 l 3,0 0,3 -3,0 z M 111,93 l 3,0 0,3 -3,0 z M 117,93 l 3,0 0,3 -3,0 z M 120,93 l 3,0 0,3 -3,0 z M 126,93 l 3,0 0,3 -3,0 z M 132,93 l 3,0 0,3 -3,0 z M 135,93 l 3,0 0,3 -3,0 z M 141,93 l 3,0 0,3 -3,0 z M 153,93 l 3,0 0,3 -3,0 z M 156,93 l 3,0 0,3 -3,0 z M 168,93 l 3,0 0,3 -3,0 z M 171,93 l 3,0 0,3 -3,0 z M 180,93 l 3,0 0,3 -3,0 z M 192,93 l 3,0 0,3 -3,0 z M 201,93 l 3,0 0,3 -3,0 z M 9,96 l 3,0 0,3 -3,0 z M 15,96 l 3,0 0,3 -3,0 z M 21,96 l 3,0 0,3 -3,0 z M 30,96 l 3,0 0,3 -3,0 z M 33,96 l 3,0 0,3 -3,0 z M 36,96 l 3,0 0,3 -3,0 z M 48,96 l 3,0 0,3 -3,0 z M 51,96 l 3,0 0,3 -3,0 z M 54,96 l 3,0 0,3 -3,0 z M 60,96 l 3,0 0,3 -3,0 z M 63,96 l 3,0 0,3 -3,0 z M 69,96 l 3,0 0,3 -3,0 z M 72,96 l 3,0 0,3 -3,0 z M 75,96 l 3,0 0,3 -3,0 z M 84,96 l 3,0 0,3 -3,0 z M 93,96 l 3,0 0,3 -3,0 z M 99,96 l 3,0 0,3 -3,0 z M 102,96 l 3,0 0,3 -3,0 z M 105,96 l 3,0 0,3 -3,0 z M 114,96 l 3,0 0,3 -3,0 z M 117,96 l 3,0 0,3 -3,0 z M 120,96 l 3,0 0,3 -3,0 z M 123,96 l 3,0 0,3 -3,0 z M 138,96 l 3,0 0,3 -3,0 z M 141,96 l 3,0 0,3 -3,0 z M 147,96 l 3,0 0,3 -3,0 z M 150,96 l 3,0 0,3 -3,0 z M 153,96 l 3,0 0,3 -3,0 z M 156,96 l 3,0 0,3 -3,0 z M 159,96 l 3,0 0,3 -3,0 z M 168,96 l 3,0 0,3 -3,0 z M 174,96 l 3,0 0,3 -3,0 z M 177,96 l 3,0 0,3 -3,0 z M 180,96 l 3,0 0,3 -3,0 z M 186,96 l 3,0 0,3 -3,0 z M 189,96 l 3,0 0,3 -3,0 z M 192,96 l 3,0 0,3 -3,0 z M 201,96 l 3,0 0,3 -3,0 z M 9,99 l 3,0 0,3 -3,0 z M 12,99 l 3,0 0,3 -3,0 z M 15,99 l 3,0 0,3 -3,0 z M 18,99 l 3,0 0,3 -3,0 z M 21,99 l 3,0 0,3 -3,0 z M 24,99 l 3,0 0,3 -3,0 z M 27,99 l 3,0 0,3 -3,0 z M 30,99 l 3,0 0,3 -3,0 z M 33,99 l 3,0 0,3 -3,0 z M 36,99 l 3,0 0,3 -3,0 z M 39,99 l 3,0 0,3 -3,0 z M 51,99 l 3,0 0,3 -3,0 z M 60,99 l 3,0 0,3 -3,0 z M 69,99 l 3,0 0,3 -3,0 z M 72,99 l 3,0 0,3 -3,0 z M 81,99 l 3,0 0,3 -3,0 z M 84,99 l 3,0 0,3 -3,0 z M 87,99 l 3,0 0,3 -3,0 z M 90,99 l 3,0 0,3 -3,0 z M 93,99 l 3,0 0,3 -3,0 z M 96,99 l 3,0 0,3 -3,0 z M 99,99 l 3,0 0,3 -3,0 z M 102,99 l 3,0 0,3 -3,0 z M 105,99 l 3,0 0,3 -3,0 z M 108,99 l 3,0 0,3 -3,0 z M 111,99 l 3,0 0,3 -3,0 z M 114,99 l 3,0 0,3 -3,0 z M 120,99 l 3,0 0,3 -3,0 z M 129,99 l 3,0 0,3 -3,0 z M 132,99 l 3,0 0,3 -3,0 z M 135,99 l 3,0 0,3 -3,0 z M 141,99 l 3,0 0,3 -3,0 z M 156,99 l 3,0 0,3 -3,0 z M 162,99 l 3,0 0,3 -3,0 z M 174,99 l 3,0 0,3 -3,0 z M 177,99 l 3,0 0,3 -3,0 z M 180,99 l 3,0 0,3 -3,0 z M 183,99 l 3,0 0,3 -3,0 z M 186,99 l 3,0 0,3 -3,0 z M 189,99 l 3,0 0,3 -3,0 z M 195,99 l 3,0 0,3 -3,0 z M 201,99 l 3,0 0,3 -3,0 z M 9,102 l 3,0 0,3 -3,0 z M 12,102 l 3,0 0,3 -3,0 z M 18,102 l 3,0 0,3 -3,0 z M 21,102 l 3,0 0,3 -3,0 z M 33,102 l 3,0 0,3 -3,0 z M 36,102 l 3,0 0,3 -3,0 z M 39,102 l 3,0 0,3 -3,0 z M 42,102 l 3,0 0,3 -3,0 z M 48,102 l 3,0 0,3 -3,0 z M 54,102 l 3,0 0,3 -3,0 z M 63,102 l 3,0 0,3 -3,0 z M 69,102 l 3,0 0,3 -3,0 z M 75,102 l 3,0 0,3 -3,0 z M 84,102 l 3,0 0,3 -3,0 z M 87,102 l 3,0 0,3 -3,0 z M 90,102 l 3,0 0,3 -3,0 z M 99,102 l 3,0 0,3 -3,0 z M 111,102 l 3,0 0,3 -3,0 z M 117,102 l 3,0 0,3 -3,0 z M 120,102 l 3,0 0,3 -3,0 z M 126,102 l 3,0 0,3 -3,0 z M 132,102 l 3,0 0,3 -3,0 z M 135,102 l 3,0 0,3 -3,0 z M 150,102 l 3,0 0,3 -3,0 z M 168,102 l 3,0 0,3 -3,0 z M 171,102 l 3,0 0,3 -3,0 z M 177,102 l 3,0 0,3 -3,0 z M 189,102 l 3,0 0,3 -3,0 z M 201,102 l 3,0 0,3 -3,0 z M 9,105 l 3,0 0,3 -3,0 z M 21,105 l 3,0 0,3 -3,0 z M 27,105 l 3,0 0,3 -3,0 z M 33,105 l 3,0 0,3 -3,0 z M 36,105 l 3,0 0,3 -3,0 z M 39,105 l 3,0 0,3 -3,0 z M 42,105 l 3,0 0,3 -3,0 z M 45,105 l 3,0 0,3 -3,0 z M 48,105 l 3,0 0,3 -3,0 z M 51,105 l 3,0 0,3 -3,0 z M 54,105 l 3,0 0,3 -3,0 z M 60,105 l 3,0 0,3 -3,0 z M 81,105 l 3,0 0,3 -3,0 z M 84,105 l 3,0 0,3 -3,0 z M 90,105 l 3,0 0,3 -3,0 z M 96,105 l 3,0 0,3 -3,0 z M 99,105 l 3,0 0,3 -3,0 z M 105,105 l 3,0 0,3 -3,0 z M 111,105 l 3,0 0,3 -3,0 z M 114,105 l 3,0 0,3 -3,0 z M 117,105 l 3,0 0,3 -3,0 z M 120,105 l 3,0 0,3 -3,0 z M 123,105 l 3,0 0,3 -3,0 z M 132,105 l 3,0 0,3 -3,0 z M 138,105 l 3,0 0,3 -3,0 z M 144,105 l 3,0 0,3 -3,0 z M 147,105 l 3,0 0,3 -3,0 z M 150,105 l 3,0 0,3 -3,0 z M 159,105 l 3,0 0,3 -3,0 z M 165,105 l 3,0 0,3 -3,0 z M 174,105 l 3,0 0,3 -3,0 z M 177,105 l 3,0 0,3 -3,0 z M 183,105 l 3,0 0,3 -3,0 z M 189,105 l 3,0 0,3 -3,0 z M 21,108 l 3,0 0,3 -3,0 z M 33,108 l 3,0 0,3 -3,0 z M 42,108 l 3,0 0,3 -3,0 z M 51,108 l 3,0 0,3 -3,0 z M 54,108 l 3,0 0,3 -3,0 z M 57,108 l 3,0 0,3 -3,0 z M 66,108 l 3,0 0,3 -3,0 z M 72,108 l 3,0 0,3 -3,0 z M 78,108 l 3,0 0,3 -3,0 z M 81,108 l 3,0 0,3 -3,0 z M 90,108 l 3,0 0,3 -3,0 z M 96,108 l 3,0 0,3 -3,0 z M 99,108 l 3,0 0,3 -3,0 z M 111,108 l 3,0 0,3 -3,0 z M 114,108 l 3,0 0,3 -3,0 z M 120,108 l 3,0 0,3 -3,0 z M 129,108 l 3,0 0,3 -3,0 z M 132,108 l 3,0 0,3 -3,0 z M 135,108 l 3,0 0,3 -3,0 z M 138,108 l 3,0 0,3 -3,0 z M 141,108 l 3,0 0,3 -3,0 z M 144,108 l 3,0 0,3 -3,0 z M 156,108 l 3,0 0,3 -3,0 z M 159,108 l 3,0 0,3 -3,0 z M 162,108 l 3,0 0,3 -3,0 z M 165,108 l 3,0 0,3 -3,0 z M 171,108 l 3,0 0,3 -3,0 z M 177,108 l 3,0 0,3 -3,0 z M 189,108 l 3,0 0,3 -3,0 z M 198,108 l 3,0 0,3 -3,0 z M 21,111 l 3,0 0,3 -3,0 z M 24,111 l 3,0 0,3 -3,0 z M 27,111 l 3,0 0,3 -3,0 z M 30,111 l 3,0 0,3 -3,0 z M 33,111 l 3,0 0,3 -3,0 z M 36,111 l 3,0 0,3 -3,0 z M 39,111 l 3,0 0,3 -3,0 z M 42,111 l 3,0 0,3 -3,0 z M 45,111 l 3,0 0,3 -3,0 z M 48,111 l 3,0 0,3 -3,0 z M 51,111 l 3,0 0,3 -3,0 z M 54,111 l 3,0 0,3 -3,0 z M 57,111 l 3,0 0,3 -3,0 z M 63,111 l 3,0 0,3 -3,0 z M 66,111 l 3,0 0,3 -3,0 z M 69,111 l 3,0 0,3 -3,0 z M 75,111 l 3,0 0,3 -3,0 z M 78,111 l 3,0 0,3 -3,0 z M 84,111 l 3,0 0,3 -3,0 z M 90,111 l 3,0 0,3 -3,0 z M 93,111 l 3,0 0,3 -3,0 z M 99,111 l 3,0 0,3 -3,0 z M 102,111 l 3,0 0,3 -3,0 z M 105,111 l 3,0 0,3 -3,0 z M 108,111 l 3,0 0,3 -3,0 z M 111,111 l 3,0 0,3 -3,0 z M 117,111 l 3,0 0,3 -3,0 z M 135,111 l 3,0 0,3 -3,0 z M 147,111 l 3,0 0,3 -3,0 z M 153,111 l 3,0 0,3 -3,0 z M 159,111 l 3,0 0,3 -3,0 z M 162,111 l 3,0 0,3 -3,0 z M 171,111 l 3,0 0,3 -3,0 z M 177,111 l 3,0 0,3 -3,0 z M 180,111 l 3,0 0,3 -3,0 z M 183,111 l 3,0 0,3 -3,0 z M 186,111 l 3,0 0,3 -3,0 z M 189,111 l 3,0 0,3 -3,0 z M 192,111 l 3,0 0,3 -3,0 z M 195,111 l 3,0 0,3 -3,0 z M 12,114 l 3,0 0,3 -3,0 z M 15,114 l 3,0 0,3 -3,0 z M 24,114 l 3,0 0,3 -3,0 z M 51,114 l 3,0 0,3 -3,0 z M 54,114 l 3,0 0,3 -3,0 z M 63,114 l 3,0 0,3 -3,0 z M 66,114 l 3,0 0,3 -3,0 z M 69,114 l 3,0 0,3 -3,0 z M 72,114 l 3,0 0,3 -3,0 z M 75,114 l 3,0 0,3 -3,0 z M 87,114 l 3,0 0,3 -3,0 z M 102,114 l 3,0 0,3 -3,0 z M 117,114 l 3,0 0,3 -3,0 z M 120,114 l 3,0 0,3 -3,0 z M 123,114 l 3,0 0,3 -3,0 z M 126,114 l 3,0 0,3 -3,0 z M 138,114 l 3,0 0,3 -3,0 z M 141,114 l 3,0 0,3 -3,0 z M 144,114 l 3,0 0,3 -3,0 z M 147,114 l 3,0 0,3 -3,0 z M 150,114 l 3,0 0,3 -3,0 z M 156,114 l 3,0 0,3 -3,0 z M 168,114 l 3,0 0,3 -3,0 z M 171,114 l 3,0 0,3 -3,0 z M 174,114 l 3,0 0,3 -3,0 z M 186,114 l 3,0 0,3 -3,0 z M 189,114 l 3,0 0,3 -3,0 z M 192,114 l 3,0 0,3 -3,0 z M 201,114 l 3,0 0,3 -3,0 z M 9,117 l 3,0 0,3 -3,0 z M 12,117 l 3,0 0,3 -3,0 z M 27,117 l 3,0 0,3 -3,0 z M 33,117 l 3,0 0,3 -3,0 z M 39,117 l 3,0 0,3 -3,0 z M 42,117 l 3,0 0,3 -3,0 z M 57,117 l 3,0 0,3 -3,0 z M 63,117 l 3,0 0,3 -3,0 z M 69,117 l 3,0 0,3 -3,0 z M 72,117 l 3,0 0,3 -3,0 z M 75,117 l 3,0 0,3 -3,0 z M 81,117 l 3,0 0,3 -3,0 z M 96,117 l 3,0 0,3 -3,0 z M 99,117 l 3,0 0,3 -3,0 z M 102,117 l 3,0 0,3 -3,0 z M 105,117 l 3,0 0,3 -3,0 z M 111,117 l 3,0 0,3 -3,0 z M 114,117 l 3,0 0,3 -3,0 z M 117,117 l 3,0 0,3 -3,0 z M 120,117 l 3,0 0,3 -3,0 z M 129,117 l 3,0 0,3 -3,0 z M 132,117 l 3,0 0,3 -3,0 z M 141,117 l 3,0 0,3 -3,0 z M 144,117 l 3,0 0,3 -3,0 z M 153,117 l 3,0 0,3 -3,0 z M 162,117 l 3,0 0,3 -3,0 z M 165,117 l 3,0 0,3 -3,0 z M 171,117 l 3,0 0,3 -3,0 z M 186,117 l 3,0 0,3 -3,0 z M 189,117 l 3,0 0,3 -3,0 z M 192,117 l 3,0 0,3 -3,0 z M 195,117 l 3,0 0,3 -3,0 z M 198,117 l 3,0 0,3 -3,0 z M 201,117 l 3,0 0,3 -3,0 z M 9,120 l 3,0 0,3 -3,0 z M 18,120 l 3,0 0,3 -3,0 z M 21,120 l 3,0 0,3 -3,0 z M 33,120 l 3,0 0,3 -3,0 z M 36,120 l 3,0 0,3 -3,0 z M 39,120 l 3,0 0,3 -3,0 z M 42,120 l 3,0 0,3 -3,0 z M 45,120 l 3,0 0,3 -3,0 z M 48,120 l 3,0 0,3 -3,0 z M 51,120 l 3,0 0,3 -3,0 z M 54,120 l 3,0 0,3 -3,0 z M 63,120 l 3,0 0,3 -3,0 z M 69,120 l 3,0 0,3 -3,0 z M 75,120 l 3,0 0,3 -3,0 z M 81,120 l 3,0 0,3 -3,0 z M 90,120 l 3,0 0,3 -3,0 z M 96,120 l 3,0 0,3 -3,0 z M 108,120 l 3,0 0,3 -3,0 z M 114,120 l 3,0 0,3 -3,0 z M 117,120 l 3,0 0,3 -3,0 z M 144,120 l 3,0 0,3 -3,0 z M 150,120 l 3,0 0,3 -3,0 z M 153,120 l 3,0 0,3 -3,0 z M 156,120 l 3,0 0,3 -3,0 z M 171,120 l 3,0 0,3 -3,0 z M 183,120 l 3,0 0,3 -3,0 z M 186,120 l 3,0 0,3 -3,0 z M 195,120 l 3,0 0,3 -3,0 z M 198,120 l 3,0 0,3 -3,0 z M 201,120 l 3,0 0,3 -3,0 z M 9,123 l 3,0 0,3 -3,0 z M 18,123 l 3,0 0,3 -3,0 z M 21,123 l 3,0 0,3 -3,0 z M 24,123 l 3,0 0,3 -3,0 z M 27,123 l 3,0 0,3 -3,0 z M 30,123 l 3,0 0,3 -3,0 z M 33,123 l 3,0 0,3 -3,0 z M 36,123 l 3,0 0,3 -3,0 z M 39,123 l 3,0 0,3 -3,0 z M 42,123 l 3,0 0,3 -3,0 z M 45,123 l 3,0 0,3 -3,0 z M 54,123 l 3,0 0,3 -3,0 z M 60,123 l 3,0 0,3 -3,0 z M 66,123 l 3,0 0,3 -3,0 z M 72,123 l 3,0 0,3 -3,0 z M 75,123 l 3,0 0,3 -3,0 z M 81,123 l 3,0 0,3 -3,0 z M 87,123 l 3,0 0,3 -3,0 z M 90,123 l 3,0 0,3 -3,0 z M 96,123 l 3,0 0,3 -3,0 z M 99,123 l 3,0 0,3 -3,0 z M 111,123 l 3,0 0,3 -3,0 z M 117,123 l 3,0 0,3 -3,0 z M 132,123 l 3,0 0,3 -3,0 z M 135,123 l 3,0 0,3 -3,0 z M 138,123 l 3,0 0,3 -3,0 z M 141,123 l 3,0 0,3 -3,0 z M 144,123 l 3,0 0,3 -3,0 z M 147,123 l 3,0 0,3 -3,0 z M 159,123 l 3,0 0,3 -3,0 z M 162,123 l 3,0 0,3 -3,0 z M 177,123 l 3,0 0,3 -3,0 z M 180,123 l 3,0 0,3 -3,0 z M 189,123 l 3,0 0,3 -3,0 z M 192,123 l 3,0 0,3 -3,0 z M 195,123 l 3,0 0,3 -3,0 z M 9,126 l 3,0 0,3 -3,0 z M 18,126 l 3,0 0,3 -3,0 z M 21,126 l 3,0 0,3 -3,0 z M 30,126 l 3,0 0,3 -3,0 z M 33,126 l 3,0 0,3 -3,0 z M 39,126 l 3,0 0,3 -3,0 z M 45,126 l 3,0 0,3 -3,0 z M 51,126 l 3,0 0,3 -3,0 z M 54,126 l 3,0 0,3 -3,0 z M 57,126 l 3,0 0,3 -3,0 z M 60,126 l 3,0 0,3 -3,0 z M 63,126 l 3,0 0,3 -3,0 z M 66,126 l 3,0 0,3 -3,0 z M 69,126 l 3,0 0,3 -3,0 z M 72,126 l 3,0 0,3 -3,0 z M 81,126 l 3,0 0,3 -3,0 z M 84,126 l 3,0 0,3 -3,0 z M 87,126 l 3,0 0,3 -3,0 z M 96,126 l 3,0 0,3 -3,0 z M 99,126 l 3,0 0,3 -3,0 z M 102,126 l 3,0 0,3 -3,0 z M 105,126 l 3,0 0,3 -3,0 z M 108,126 l 3,0 0,3 -3,0 z M 111,126 l 3,0 0,3 -3,0 z M 114,126 l 3,0 0,3 -3,0 z M 129,126 l 3,0 0,3 -3,0 z M 135,126 l 3,0 0,3 -3,0 z M 138,126 l 3,0 0,3 -3,0 z M 141,126 l 3,0 0,3 -3,0 z M 144,126 l 3,0 0,3 -3,0 z M 150,126 l 3,0 0,3 -3,0 z M 153,126 l 3,0 0,3 -3,0 z M 171,126 l 3,0 0,3 -3,0 z M 174,126 l 3,0 0,3 -3,0 z M 177,126 l 3,0 0,3 -3,0 z M 180,126 l 3,0 0,3 -3,0 z M 183,126 l 3,0 0,3 -3,0 z M 189,126 l 3,0 0,3 -3,0 z M 195,126 l 3,0 0,3 -3,0 z M 198,126 l 3,0 0,3 -3,0 z M 201,126 l 3,0 0,3 -3,0 z M 9,129 l 3,0 0,3 -3,0 z M 21,129 l 3,0 0,3 -3,0 z M 27,129 l 3,0 0,3 -3,0 z M 39,129 l 3,0 0,3 -3,0 z M 42,129 l 3,0 0,3 -3,0 z M 48,129 l 3,0 0,3 -3,0 z M 51,129 l 3,0 0,3 -3,0 z M 54,129 l 3,0 0,3 -3,0 z M 63,129 l 3,0 0,3 -3,0 z M 66,129 l 3,0 0,3 -3,0 z M 69,129 l 3,0 0,3 -3,0 z M 72,129 l 3,0 0,3 -3,0 z M 81,129 l 3,0 0,3 -3,0 z M 84,129 l 3,0 0,3 -3,0 z M 90,129 l 3,0 0,3 -3,0 z M 96,129 l 3,0 0,3 -3,0 z M 99,129 l 3,0 0,3 -3,0 z M 108,129 l 3,0 0,3 -3,0 z M 120,129 l 3,0 0,3 -3,0 z M 126,129 l 3,0 0,3 -3,0 z M 129,129 l 3,0 0,3 -3,0 z M 132,129 l 3,0 0,3 -3,0 z M 135,129 l 3,0 0,3 -3,0 z M 141,129 l 3,0 0,3 -3,0 z M 150,129 l 3,0 0,3 -3,0 z M 165,129 l 3,0 0,3 -3,0 z M 168,129 l 3,0 0,3 -3,0 z M 171,129 l 3,0 0,3 -3,0 z M 177,129 l 3,0 0,3 -3,0 z M 189,129 l 3,0 0,3 -3,0 z M 192,129 l 3,0 0,3 -3,0 z M 201,129 l 3,0 0,3 -3,0 z M 9,132 l 3,0 0,3 -3,0 z M 21,132 l 3,0 0,3 -3,0 z M 24,132 l 3,0 0,3 -3,0 z M 33,132 l 3,0 0,3 -3,0 z M 42,132 l 3,0 0,3 -3,0 z M 45,132 l 3,0 0,3 -3,0 z M 51,132 l 3,0 0,3 -3,0 z M 54,132 l 3,0 0,3 -3,0 z M 60,132 l 3,0 0,3 -3,0 z M 63,132 l 3,0 0,3 -3,0 z M 69,132 l 3,0 0,3 -3,0 z M 72,132 l 3,0 0,3 -3,0 z M 81,132 l 3,0 0,3 -3,0 z M 84,132 l 3,0 0,3 -3,0 z M 90,132 l 3,0 0,3 -3,0 z M 96,132 l 3,0 0,3 -3,0 z M 99,132 l 3,0 0,3 -3,0 z M 108,132 l 3,0 0,3 -3,0 z M 111,132 l 3,0 0,3 -3,0 z M 117,132 l 3,0 0,3 -3,0 z M 120,132 l 3,0 0,3 -3,0 z M 123,132 l 3,0 0,3 -3,0 z M 126,132 l 3,0 0,3 -3,0 z M 132,132 l 3,0 0,3 -3,0 z M 144,132 l 3,0 0,3 -3,0 z M 147,132 l 3,0 0,3 -3,0 z M 153,132 l 3,0 0,3 -3,0 z M 159,132 l 3,0 0,3 -3,0 z M 162,132 l 3,0 0,3 -3,0 z M 165,132 l 3,0 0,3 -3,0 z M 186,132 l 3,0 0,3 -3,0 z M 189,132 l 3,0 0,3 -3,0 z M 201,132 l 3,0 0,3 -3,0 z M 9,135 l 3,0 0,3 -3,0 z M 15,135 l 3,0 0,3 -3,0 z M 18,135 l 3,0 0,3 -3,0 z M 21,135 l 3,0 0,3 -3,0 z M 27,135 l 3,0 0,3 -3,0 z M 39,135 l 3,0 0,3 -3,0 z M 42,135 l 3,0 0,3 -3,0 z M 45,135 l 3,0 0,3 -3,0 z M 51,135 l 3,0 0,3 -3,0 z M 57,135 l 3,0 0,3 -3,0 z M 60,135 l 3,0 0,3 -3,0 z M 66,135 l 3,0 0,3 -3,0 z M 69,135 l 3,0 0,3 -3,0 z M 72,135 l 3,0 0,3 -3,0 z M 78,135 l 3,0 0,3 -3,0 z M 81,135 l 3,0 0,3 -3,0 z M 99,135 l 3,0 0,3 -3,0 z M 102,135 l 3,0 0,3 -3,0 z M 117,135 l 3,0 0,3 -3,0 z M 120,135 l 3,0 0,3 -3,0 z M 126,135 l 3,0 0,3 -3,0 z M 132,135 l 3,0 0,3 -3,0 z M 135,135 l 3,0 0,3 -3,0 z M 144,135 l 3,0 0,3 -3,0 z M 153,135 l 3,0 0,3 -3,0 z M 156,135 l 3,0 0,3 -3,0 z M 159,135 l 3,0 0,3 -3,0 z M 162,135 l 3,0 0,3 -3,0 z M 171,135 l 3,0 0,3 -3,0 z M 183,135 l 3,0 0,3 -3,0 z M 186,135 l 3,0 0,3 -3,0 z M 198,135 l 3,0 0,3 -3,0 z M 201,135 l 3,0 0,3 -3,0 z M 33,138 l 3,0 0,3 -3,0 z M 39,138 l 3,0 0,3 -3,0 z M 51,138 l 3,0 0,3 -3,0 z M 54,138 l 3,0 0,3 -3,0 z M 57,138 l 3,0 0,3 -3,0 z M 60,138 l 3,0 0,3 -3,0 z M 63,138 l 3,0 0,3 -3,0 z M 72,138 l 3,0 0,3 -3,0 z M 78,138 l 3,0 0,3 -3,0 z M 93,138 l 3,0 0,3 -3,0 z M 102,138 l 3,0 0,3 -3,0 z M 105,138 l 3,0 0,3 -3,0 z M 111,138 l 3,0 0,3 -3,0 z M 120,138 l 3,0 0,3 -3,0 z M 126,138 l 3,0 0,3 -3,0 z M 132,138 l 3,0 0,3 -3,0 z M 135,138 l 3,0 0,3 -3,0 z M 144,138 l 3,0 0,3 -3,0 z M 153,138 l 3,0 0,3 -3,0 z M 156,138 l 3,0 0,3 -3,0 z M 162,138 l 3,0 0,3 -3,0 z M 168,138 l 3,0 0,3 -3,0 z M 171,138 l 3,0 0,3 -3,0 z M 174,138 l 3,0 0,3 -3,0 z M 177,138 l 3,0 0,3 -3,0 z M 186,138 l 3,0 0,3 -3,0 z M 189,138 l 3,0 0,3 -3,0 z M 201,138 l 3,0 0,3 -3,0 z M 9,141 l 3,0 0,3 -3,0 z M 12,141 l 3,0 0,3 -3,0 z M 18,141 l 3,0 0,3 -3,0 z M 21,141 l 3,0 0,3 -3,0 z M 27,141 l 3,0 0,3 -3,0 z M 30,141 l 3,0 0,3 -3,0 z M 33,141 l 3,0 0,3 -3,0 z M 48,141 l 3,0 0,3 -3,0 z M 54,141 l 3,0 0,3 -3,0 z M 66,141 l 3,0 0,3 -3,0 z M 72,141 l 3,0 0,3 -3,0 z M 75,141 l 3,0 0,3 -3,0 z M 87,141 l 3,0 0,3 -3,0 z M 90,141 l 3,0 0,3 -3,0 z M 96,141 l 3,0 0,3 -3,0 z M 111,141 l 3,0 0,3 -3,0 z M 117,141 l 3,0 0,3 -3,0 z M 129,141 l 3,0 0,3 -3,0 z M 132,141 l 3,0 0,3 -3,0 z M 135,141 l 3,0 0,3 -3,0 z M 153,141 l 3,0 0,3 -3,0 z M 162,141 l 3,0 0,3 -3,0 z M 168,141 l 3,0 0,3 -3,0 z M 171,141 l 3,0 0,3 -3,0 z M 174,141 l 3,0 0,3 -3,0 z M 183,141 l 3,0 0,3 -3,0 z M 189,141 l 3,0 0,3 -3,0 z M 198,141 l 3,0 0,3 -3,0 z M 201,141 l 3,0 0,3 -3,0 z M 21,144 l 3,0 0,3 -3,0 z M 24,144 l 3,0 0,3 -3,0 z M 30,144 l 3,0 0,3 -3,0 z M 36,144 l 3,0 0,3 -3,0 z M 45,144 l 3,0 0,3 -3,0 z M 57,144 l 3,0 0,3 -3,0 z M 60,144 l 3,0 0,3 -3,0 z M 63,144 l 3,0 0,3 -3,0 z M 69,144 l 3,0 0,3 -3,0 z M 72,144 l 3,0 0,3 -3,0 z M 75,144 l 3,0 0,3 -3,0 z M 81,144 l 3,0 0,3 -3,0 z M 102,144 l 3,0 0,3 -3,0 z M 105,144 l 3,0 0,3 -3,0 z M 117,144 l 3,0 0,3 -3,0 z M 132,144 l 3,0 0,3 -3,0 z M 138,144 l 3,0 0,3 -3,0 z M 147,144 l 3,0 0,3 -3,0 z M 150,144 l 3,0 0,3 -3,0 z M 153,144 l 3,0 0,3 -3,0 z M 177,144 l 3,0 0,3 -3,0 z M 186,144 l 3,0 0,3 -3,0 z M 189,144 l 3,0 0,3 -3,0 z M 192,144 l 3,0 0,3 -3,0 z M 198,144 l 3,0 0,3 -3,0 z M 201,144 l 3,0 0,3 -3,0 z M 12,147 l 3,0 0,3 -3,0 z M 15,147 l 3,0 0,3 -3,0 z M 18,147 l 3,0 0,3 -3,0 z M 21,147 l 3,0 0,3 -3,0 z M 24,147 l 3,0 0,3 -3,0 z M 27,147 l 3,0 0,3 -3,0 z M 30,147 l 3,0 0,3 -3,0 z M 36,147 l 3,0 0,3 -3,0 z M 54,147 l 3,0 0,3 -3,0 z M 57,147 l 3,0 0,3 -3,0 z M 60,147 l 3,0 0,3 -3,0 z M 69,147 l 3,0 0,3 -3,0 z M 72,147 l 3,0 0,3 -3,0 z M 81,147 l 3,0 0,3 -3,0 z M 93,147 l 3,0 0,3 -3,0 z M 105,147 l 3,0 0,3 -3,0 z M 108,147 l 3,0 0,3 -3,0 z M 123,147 l 3,0 0,3 -3,0 z M 126,147 l 3,0 0,3 -3,0 z M 129,147 l 3,0 0,3 -3,0 z M 132,147 l 3,0 0,3 -3,0 z M 135,147 l 3,0 0,3 -3,0 z M 138,147 l 3,0 0,3 -3,0 z M 141,147 l 3,0 0,3 -3,0 z M 144,147 l 3,0 0,3 -3,0 z M 150,147 l 3,0 0,3 -3,0 z M 159,147 l 3,0 0,3 -3,0 z M 162,147 l 3,0 0,3 -3,0 z M 171,147 l 3,0 0,3 -3,0 z M 174,147 l 3,0 0,3 -3,0 z M 177,147 l 3,0 0,3 -3,0 z M 186,147 l 3,0 0,3 -3,0 z M 192,147 l 3,0 0,3 -3,0 z M 195,147 l 3,0 0,3 -3,0 z M 12,150 l 3,0 0,3 -3,0 z M 21,150 l 3,0 0,3 -3,0 z M 36,150 l 3,0 0,3 -3,0 z M 45,150 l 3,0 0,3 -3,0 z M 57,150 l 3,0 0,3 -3,0 z M 63,150 l 3,0 0,3 -3,0 z M 66,150 l 3,0 0,3 -3,0 z M 69,150 l 3,0 0,3 -3,0 z M 72,150 l 3,0 0,3 -3,0 z M 75,150 l 3,0 0,3 -3,0 z M 78,150 l 3,0 0,3 -3,0 z M 87,150 l 3,0 0,3 -3,0 z M 90,150 l 3,0 0,3 -3,0 z M 93,150 l 3,0 0,3 -3,0 z M 99,150 l 3,0 0,3 -3,0 z M 117,150 l 3,0 0,3 -3,0 z M 132,150 l 3,0 0,3 -3,0 z M 135,150 l 3,0 0,3 -3,0 z M 138,150 l 3,0 0,3 -3,0 z M 141,150 l 3,0 0,3 -3,0 z M 147,150 l 3,0 0,3 -3,0 z M 153,150 l 3,0 0,3 -3,0 z M 162,150 l 3,0 0,3 -3,0 z M 168,150 l 3,0 0,3 -3,0 z M 177,150 l 3,0 0,3 -3,0 z M 180,150 l 3,0 0,3 -3,0 z M 189,150 l 3,0 0,3 -3,0 z M 192,150 l 3,0 0,3 -3,0 z M 21,153 l 3,0 0,3 -3,0 z M 24,153 l 3,0 0,3 -3,0 z M 27,153 l 3,0 0,3 -3,0 z M 30,153 l 3,0 0,3 -3,0 z M 33,153 l 3,0 0,3 -3,0 z M 39,153 l 3,0 0,3 -3,0 z M 42,153 l 3,0 0,3 -3,0 z M 45,153 l 3,0 0,3 -3,0 z M 54,153 l 3,0 0,3 -3,0 z M 60,153 l 3,0 0,3 -3,0 z M 75,153 l 3,0 0,3 -3,0 z M 81,153 l 3,0 0,3 -3,0 z M 84,153 l 3,0 0,3 -3,0 z M 87,153 l 3,0 0,3 -3,0 z M 90,153 l 3,0 0,3 -3,0 z M 96,153 l 3,0 0,3 -3,0 z M 114,153 l 3,0 0,3 -3,0 z M 123,153 l 3,0 0,3 -3,0 z M 129,153 l 3,0 0,3 -3,0 z M 138,153 l 3,0 0,3 -3,0 z M 141,153 l 3,0 0,3 -3,0 z M 144,153 l 3,0 0,3 -3,0 z M 150,153 l 3,0 0,3 -3,0 z M 153,153 l 3,0 0,3 -3,0 z M 156,153 l 3,0 0,3 -3,0 z M 159,153 l 3,0 0,3 -3,0 z M 168,153 l 3,0 0,3 -3,0 z M 174,153 l 3,0 0,3 -3,0 z M 177,153 l 3,0 0,3 -3,0 z M 180,153 l 3,0 0,3 -3,0 z M 186,153 l 3,0 0,3 -3,0 z M 198,153 l 3,0 0,3 -3,0 z M 12,156 l 3,0 0,3 -3,0 z M 36,156 l 3,0 0,3 -3,0 z M 42,156 l 3,0 0,3 -3,0 z M 48,156 l 3,0 0,3 -3,0 z M 51,156 l 3,0 0,3 -3,0 z M 72,156 l 3,0 0,3 -3,0 z M 81,156 l 3,0 0,3 -3,0 z M 84,156 l 3,0 0,3 -3,0 z M 105,156 l 3,0 0,3 -3,0 z M 108,156 l 3,0 0,3 -3,0 z M 120,156 l 3,0 0,3 -3,0 z M 123,156 l 3,0 0,3 -3,0 z M 126,156 l 3,0 0,3 -3,0 z M 129,156 l 3,0 0,3 -3,0 z M 135,156 l 3,0 0,3 -3,0 z M 141,156 l 3,0 0,3 -3,0 z M 144,156 l 3,0 0,3 -3,0 z M 147,156 l 3,0 0,3 -3,0 z M 150,156 l 3,0 0,3 -3,0 z M 156,156 l 3,0 0,3 -3,0 z M 165,156 l 3,0 0,3 -3,0 z M 168,156 l 3,0 0,3 -3,0 z M 171,156 l 3,0 0,3 -3,0 z M 180,156 l 3,0 0,3 -3,0 z M 195,156 l 3,0 0,3 -3,0 z M 201,156 l 3,0 0,3 -3,0 z M 18,159 l 3,0 0,3 -3,0 z M 24,159 l 3,0 0,3 -3,0 z M 27,159 l 3,0 0,3 -3,0 z M 39,159 l 3,0 0,3 -3,0 z M 42,159 l 3,0 0,3 -3,0 z M 45,159 l 3,0 0,3 -3,0 z M 48,159 l 3,0 0,3 -3,0 z M 51,159 l 3,0 0,3 -3,0 z M 57,159 l 3,0 0,3 -3,0 z M 60,159 l 3,0 0,3 -3,0 z M 69,159 l 3,0 0,3 -3,0 z M 93,159 l 3,0 0,3 -3,0 z M 105,159 l 3,0 0,3 -3,0 z M 117,159 l 3,0 0,3 -3,0 z M 123,159 l 3,0 0,3 -3,0 z M 126,159 l 3,0 0,3 -3,0 z M 135,159 l 3,0 0,3 -3,0 z M 144,159 l 3,0 0,3 -3,0 z M 153,159 l 3,0 0,3 -3,0 z M 162,159 l 3,0 0,3 -3,0 z M 165,159 l 3,0 0,3 -3,0 z M 171,159 l 3,0 0,3 -3,0 z M 174,159 l 3,0 0,3 -3,0 z M 180,159 l 3,0 0,3 -3,0 z M 183,159 l 3,0 0,3 -3,0 z M 186,159 l 3,0 0,3 -3,0 z M 189,159 l 3,0 0,3 -3,0 z M 195,159 l 3,0 0,3 -3,0 z M 201,159 l 3,0 0,3 -3,0 z M 15,162 l 3,0 0,3 -3,0 z M 30,162 l 3,0 0,3 -3,0 z M 39,162 l 3,0 0,3 -3,0 z M 42,162 l 3,0 0,3 -3,0 z M 45,162 l 3,0 0,3 -3,0 z M 57,162 l 3,0 0,3 -3,0 z M 66,162 l 3,0 0,3 -3,0 z M 78,162 l 3,0 0,3 -3,0 z M 81,162 l 3,0 0,3 -3,0 z M 84,162 l 3,0 0,3 -3,0 z M 87,162 l 3,0 0,3 -3,0 z M 90,162 l 3,0 0,3 -3,0 z M 93,162 l 3,0 0,3 -3,0 z M 96,162 l 3,0 0,3 -3,0 z M 99,162 l 3,0 0,3 -3,0 z M 108,162 l 3,0 0,3 -3,0 z M 114,162 l 3,0 0,3 -3,0 z M 117,162 l 3,0 0,3 -3,0 z M 123,162 l 3,0 0,3 -3,0 z M 135,162 l 3,0 0,3 -3,0 z M 138,162 l 3,0 0,3 -3,0 z M 141,162 l 3,0 0,3 -3,0 z M 147,162 l 3,0 0,3 -3,0 z M 153,162 l 3,0 0,3 -3,0 z M 156,162 l 3,0 0,3 -3,0 z M 180,162 l 3,0 0,3 -3,0 z M 183,162 l 3,0 0,3 -3,0 z M 186,162 l 3,0 0,3 -3,0 z M 189,162 l 3,0 0,3 -3,0 z M 192,162 l 3,0 0,3 -3,0 z M 195,162 l 3,0 0,3 -3,0 z M 198,162 l 3,0 0,3 -3,0 z M 201,162 l 3,0 0,3 -3,0 z M 9,165 l 3,0 0,3 -3,0 z M 12,165 l 3,0 0,3 -3,0 z M 15,165 l 3,0 0,3 -3,0 z M 18,165 l 3,0 0,3 -3,0 z M 24,165 l 3,0 0,3 -3,0 z M 27,165 l 3,0 0,3 -3,0 z M 30,165 l 3,0 0,3 -3,0 z M 33,165 l 3,0 0,3 -3,0 z M 36,165 l 3,0 0,3 -3,0 z M 39,165 l 3,0 0,3 -3,0 z M 42,165 l 3,0 0,3 -3,0 z M 45,165 l 3,0 0,3 -3,0 z M 54,165 l 3,0 0,3 -3,0 z M 57,165 l 3,0 0,3 -3,0 z M 60,165 l 3,0 0,3 -3,0 z M 66,165 l 3,0 0,3 -3,0 z M 75,165 l 3,0 0,3 -3,0 z M 81,165 l 3,0 0,3 -3,0 z M 84,165 l 3,0 0,3 -3,0 z M 90,165 l 3,0 0,3 -3,0 z M 93,165 l 3,0 0,3 -3,0 z M 111,165 l 3,0 0,3 -3,0 z M 117,165 l 3,0 0,3 -3,0 z M 120,165 l 3,0 0,3 -3,0 z M 123,165 l 3,0 0,3 -3,0 z M 129,165 l 3,0 0,3 -3,0 z M 141,165 l 3,0 0,3 -3,0 z M 150,165 l 3,0 0,3 -3,0 z M 153,165 l 3,0 0,3 -3,0 z M 162,165 l 3,0 0,3 -3,0 z M 165,165 l 3,0 0,3 -3,0 z M 171,165 l 3,0 0,3 -3,0 z M 180,165 l 3,0 0,3 -3,0 z M 183,165 l 3,0 0,3 -3,0 z M 189,165 l 3,0 0,3 -3,0 z M 192,165 l 3,0 0,3 -3,0 z M 195,165 l 3,0 0,3 -3,0 z M 198,165 l 3,0 0,3 -3,0 z M 18,168 l 3,0 0,3 -3,0 z M 21,168 l 3,0 0,3 -3,0 z M 24,168 l 3,0 0,3 -3,0 z M 30,168 l 3,0 0,3 -3,0 z M 51,168 l 3,0 0,3 -3,0 z M 63,168 l 3,0 0,3 -3,0 z M 75,168 l 3,0 0,3 -3,0 z M 81,168 l 3,0 0,3 -3,0 z M 93,168 l 3,0 0,3 -3,0 z M 102,168 l 3,0 0,3 -3,0 z M 111,168 l 3,0 0,3 -3,0 z M 114,168 l 3,0 0,3 -3,0 z M 117,168 l 3,0 0,3 -3,0 z M 120,168 l 3,0 0,3 -3,0 z M 135,168 l 3,0 0,3 -3,0 z M 144,168 l 3,0 0,3 -3,0 z M 150,168 l 3,0 0,3 -3,0 z M 153,168 l 3,0 0,3 -3,0 z M 156,168 l 3,0 0,3 -3,0 z M 159,168 l 3,0 0,3 -3,0 z M 168,168 l 3,0 0,3 -3,0 z M 171,168 l 3,0 0,3 -3,0 z M 177,168 l 3,0 0,3 -3,0 z M 180,168 l 3,0 0,3 -3,0 z M 183,168 l 3,0 0,3 -3,0 z M 189,168 l 3,0 0,3 -3,0 z M 15,171 l 3,0 0,3 -3,0 z M 18,171 l 3,0 0,3 -3,0 z M 24,171 l 3,0 0,3 -3,0 z M 27,171 l 3,0 0,3 -3,0 z M 33,171 l 3,0 0,3 -3,0 z M 39,171 l 3,0 0,3 -3,0 z M 51,171 l 3,0 0,3 -3,0 z M 69,171 l 3,0 0,3 -3,0 z M 75,171 l 3,0 0,3 -3,0 z M 84,171 l 3,0 0,3 -3,0 z M 87,171 l 3,0 0,3 -3,0 z M 93,171 l 3,0 0,3 -3,0 z M 99,171 l 3,0 0,3 -3,0 z M 102,171 l 3,0 0,3 -3,0 z M 114,171 l 3,0 0,3 -3,0 z M 117,171 l 3,0 0,3 -3,0 z M 120,171 l 3,0 0,3 -3,0 z M 126,171 l 3,0 0,3 -3,0 z M 129,171 l 3,0 0,3 -3,0 z M 135,171 l 3,0 0,3 -3,0 z M 141,171 l 3,0 0,3 -3,0 z M 144,171 l 3,0 0,3 -3,0 z M 150,171 l 3,0 0,3 -3,0 z M 153,171 l 3,0 0,3 -3,0 z M 159,171 l 3,0 0,3 -3,0 z M 162,171 l 3,0 0,3 -3,0 z M 165,171 l 3,0 0,3 -3,0 z M 180,171 l 3,0 0,3 -3,0 z M 198,171 l 3,0 0,3 -3,0 z M 201,171 l 3,0 0,3 -3,0 z M 9,174 l 3,0 0,3 -3,0 z M 18,174 l 3,0 0,3 -3,0 z M 30,174 l 3,0 0,3 -3,0 z M 39,174 l 3,0 0,3 -3,0 z M 51,174 l 3,0 0,3 -3,0 z M 54,174 l 3,0 0,3 -3,0 z M 57,174 l 3,0 0,3 -3,0 z M 63,174 l 3,0 0,3 -3,0 z M 66,174 l 3,0 0,3 -3,0 z M 84,174 l 3,0 0,3 -3,0 z M 96,174 l 3,0 0,3 -3,0 z M 99,174 l 3,0 0,3 -3,0 z M 102,174 l 3,0 0,3 -3,0 z M 108,174 l 3,0 0,3 -3,0 z M 114,174 l 3,0 0,3 -3,0 z M 117,174 l 3,0 0,3 -3,0 z M 135,174 l 3,0 0,3 -3,0 z M 138,174 l 3,0 0,3 -3,0 z M 147,174 l 3,0 0,3 -3,0 z M 153,174 l 3,0 0,3 -3,0 z M 159,174 l 3,0 0,3 -3,0 z M 165,174 l 3,0 0,3 -3,0 z M 171,174 l 3,0 0,3 -3,0 z M 180,174 l 3,0 0,3 -3,0 z M 183,174 l 3,0 0,3 -3,0 z M 189,174 l 3,0 0,3 -3,0 z M 195,174 l 3,0 0,3 -3,0 z M 198,174 l 3,0 0,3 -3,0 z M 12,177 l 3,0 0,3 -3,0 z M 15,177 l 3,0 0,3 -3,0 z M 21,177 l 3,0 0,3 -3,0 z M 27,177 l 3,0 0,3 -3,0 z M 30,177 l 3,0 0,3 -3,0 z M 33,177 l 3,0 0,3 -3,0 z M 51,177 l 3,0 0,3 -3,0 z M 54,177 l 3,0 0,3 -3,0 z M 63,177 l 3,0 0,3 -3,0 z M 66,177 l 3,0 0,3 -3,0 z M 69,177 l 3,0 0,3 -3,0 z M 72,177 l 3,0 0,3 -3,0 z M 90,177 l 3,0 0,3 -3,0 z M 96,177 l 3,0 0,3 -3,0 z M 99,177 l 3,0 0,3 -3,0 z M 102,177 l 3,0 0,3 -3,0 z M 105,177 l 3,0 0,3 -3,0 z M 108,177 l 3,0 0,3 -3,0 z M 111,177 l 3,0 0,3 -3,0 z M 114,177 l 3,0 0,3 -3,0 z M 129,177 l 3,0 0,3 -3,0 z M 132,177 l 3,0 0,3 -3,0 z M 135,177 l 3,0 0,3 -3,0 z M 138,177 l 3,0 0,3 -3,0 z M 141,177 l 3,0 0,3 -3,0 z M 147,177 l 3,0 0,3 -3,0 z M 162,177 l 3,0 0,3 -3,0 z M 165,177 l 3,0 0,3 -3,0 z M 168,177 l 3,0 0,3 -3,0 z M 177,177 l 3,0 0,3 -3,0 z M 180,177 l 3,0 0,3 -3,0 z M 183,177 l 3,0 0,3 -3,0 z M 186,177 l 3,0 0,3 -3,0 z M 189,177 l 3,0 0,3 -3,0 z M 195,177 l 3,0 0,3 -3,0 z M 33,180 l 3,0 0,3 -3,0 z M 39,180 l 3,0 0,3 -3,0 z M 42,180 l 3,0 0,3 -3,0 z M 45,180 l 3,0 0,3 -3,0 z M 51,180 l 3,0 0,3 -3,0 z M 54,180 l 3,0 0,3 -3,0 z M 72,180 l 3,0 0,3 -3,0 z M 81,180 l 3,0 0,3 -3,0 z M 84,180 l 3,0 0,3 -3,0 z M 93,180 l 3,0 0,3 -3,0 z M 96,180 l 3,0 0,3 -3,0 z M 99,180 l 3,0 0,3 -3,0 z M 111,180 l 3,0 0,3 -3,0 z M 123,180 l 3,0 0,3 -3,0 z M 126,180 l 3,0 0,3 -3,0 z M 129,180 l 3,0 0,3 -3,0 z M 144,180 l 3,0 0,3 -3,0 z M 150,180 l 3,0 0,3 -3,0 z M 153,180 l 3,0 0,3 -3,0 z M 156,180 l 3,0 0,3 -3,0 z M 159,180 l 3,0 0,3 -3,0 z M 162,180 l 3,0 0,3 -3,0 z M 168,180 l 3,0 0,3 -3,0 z M 177,180 l 3,0 0,3 -3,0 z M 189,180 l 3,0 0,3 -3,0 z M 198,180 l 3,0 0,3 -3,0 z M 9,183 l 3,0 0,3 -3,0 z M 12,183 l 3,0 0,3 -3,0 z M 15,183 l 3,0 0,3 -3,0 z M 18,183 l 3,0 0,3 -3,0 z M 21,183 l 3,0 0,3 -3,0 z M 24,183 l 3,0 0,3 -3,0 z M 27,183 l 3,0 0,3 -3,0 z M 33,183 l 3,0 0,3 -3,0 z M 36,183 l 3,0 0,3 -3,0 z M 42,183 l 3,0 0,3 -3,0 z M 48,183 l 3,0 0,3 -3,0 z M 63,183 l 3,0 0,3 -3,0 z M 66,183 l 3,0 0,3 -3,0 z M 69,183 l 3,0 0,3 -3,0 z M 81,183 l 3,0 0,3 -3,0 z M 84,183 l 3,0 0,3 -3,0 z M 87,183 l 3,0 0,3 -3,0 z M 99,183 l 3,0 0,3 -3,0 z M 105,183 l 3,0 0,3 -3,0 z M 111,183 l 3,0 0,3 -3,0 z M 120,183 l 3,0 0,3 -3,0 z M 123,183 l 3,0 0,3 -3,0 z M 126,183 l 3,0 0,3 -3,0 z M 135,183 l 3,0 0,3 -3,0 z M 144,183 l 3,0 0,3 -3,0 z M 147,183 l 3,0 0,3 -3,0 z M 153,183 l 3,0 0,3 -3,0 z M 156,183 l 3,0 0,3 -3,0 z M 162,183 l 3,0 0,3 -3,0 z M 168,183 l 3,0 0,3 -3,0 z M 171,183 l 3,0 0,3 -3,0 z M 174,183 l 3,0 0,3 -3,0 z M 177,183 l 3,0 0,3 -3,0 z M 183,183 l 3,0 0,3 -3,0 z M 189,183 l 3,0 0,3 -3,0 z M 195,183 l 3,0 0,3 -3,0 z M 198,183 l 3,0 0,3 -3,0 z M 9,186 l 3,0 0,3 -3,0 z M 27,186 l 3,0 0,3 -3,0 z M 39,186 l 3,0 0,3 -3,0 z M 51,186 l 3,0 0,3 -3,0 z M 57,186 l 3,0 0,3 -3,0 z M 63,186 l 3,0 0,3 -3,0 z M 69,186 l 3,0 0,3 -3,0 z M 72,186 l 3,0 0,3 -3,0 z M 90,186 l 3,0 0,3 -3,0 z M 93,186 l 3,0 0,3 -3,0 z M 99,186 l 3,0 0,3 -3,0 z M 111,186 l 3,0 0,3 -3,0 z M 114,186 l 3,0 0,3 -3,0 z M 117,186 l 3,0 0,3 -3,0 z M 123,186 l 3,0 0,3 -3,0 z M 126,186 l 3,0 0,3 -3,0 z M 135,186 l 3,0 0,3 -3,0 z M 144,186 l 3,0 0,3 -3,0 z M 159,186 l 3,0 0,3 -3,0 z M 162,186 l 3,0 0,3 -3,0 z M 165,186 l 3,0 0,3 -3,0 z M 168,186 l 3,0 0,3 -3,0 z M 171,186 l 3,0 0,3 -3,0 z M 177,186 l 3,0 0,3 -3,0 z M 189,186 l 3,0 0,3 -3,0 z M 195,186 l 3,0 0,3 -3,0 z M 9,189 l 3,0 0,3 -3,0 z M 15,189 l 3,0 0,3 -3,0 z M 18,189 l 3,0 0,3 -3,0 z M 21,189 l 3,0 0,3 -3,0 z M 27,189 l 3,0 0,3 -3,0 z M 33,189 l 3,0 0,3 -3,0 z M 39,189 l 3,0 0,3 -3,0 z M 42,189 l 3,0 0,3 -3,0 z M 48,189 l 3,0 0,3 -3,0 z M 51,189 l 3,0 0,3 -3,0 z M 63,189 l 3,0 0,3 -3,0 z M 69,189 l 3,0 0,3 -3,0 z M 72,189 l 3,0 0,3 -3,0 z M 75,189 l 3,0 0,3 -3,0 z M 81,189 l 3,0 0,3 -3,0 z M 90,189 l 3,0 0,3 -3,0 z M 99,189 l 3,0 0,3 -3,0 z M 102,189 l 3,0 0,3 -3,0 z M 105,189 l 3,0 0,3 -3,0 z M 108,189 l 3,0 0,3 -3,0 z M 111,189 l 3,0 0,3 -3,0 z M 117,189 l 3,0 0,3 -3,0 z M 120,189 l 3,0 0,3 -3,0 z M 126,189 l 3,0 0,3 -3,0 z M 132,189 l 3,0 0,3 -3,0 z M 135,189 l 3,0 0,3 -3,0 z M 144,189 l 3,0 0,3 -3,0 z M 156,189 l 3,0 0,3 -3,0 z M 162,189 l 3,0 0,3 -3,0 z M 168,189 l 3,0 0,3 -3,0 z M 171,189 l 3,0 0,3 -3,0 z M 177,189 l 3,0 0,3 -3,0 z M 180,189 l 3,0 0,3 -3,0 z M 183,189 l 3,0 0,3 -3,0 z M 186,189 l 3,0 0,3 -3,0 z M 189,189 l 3,0 0,3 -3,0 z M 201,189 l 3,0 0,3 -3,0 z M 9,192 l 3,0 0,3 -3,0 z M 15,192 l 3,0 0,3 -3,0 z M 18,192 l 3,0 0,3 -3,0 z M 21,192 l 3,0 0,3 -3,0 z M 27,192 l 3,0 0,3 -3,0 z M 33,192 l 3,0 0,3 -3,0 z M 51,192 l 3,0 0,3 -3,0 z M 54,192 l 3,0 0,3 -3,0 z M 63,192 l 3,0 0,3 -3,0 z M 66,192 l 3,0 0,3 -3,0 z M 69,192 l 3,0 0,3 -3,0 z M 72,192 l 3,0 0,3 -3,0 z M 75,192 l 3,0 0,3 -3,0 z M 78,192 l 3,0 0,3 -3,0 z M 87,192 l 3,0 0,3 -3,0 z M 90,192 l 3,0 0,3 -3,0 z M 96,192 l 3,0 0,3 -3,0 z M 108,192 l 3,0 0,3 -3,0 z M 114,192 l 3,0 0,3 -3,0 z M 117,192 l 3,0 0,3 -3,0 z M 138,192 l 3,0 0,3 -3,0 z M 141,192 l 3,0 0,3 -3,0 z M 147,192 l 3,0 0,3 -3,0 z M 150,192 l 3,0 0,3 -3,0 z M 156,192 l 3,0 0,3 -3,0 z M 162,192 l 3,0 0,3 -3,0 z M 165,192 l 3,0 0,3 -3,0 z M 174,192 l 3,0 0,3 -3,0 z M 180,192 l 3,0 0,3 -3,0 z M 186,192 l 3,0 0,3 -3,0 z M 198,192 l 3,0 0,3 -3,0 z M 9,195 l 3,0 0,3 -3,0 z M 15,195 l 3,0 0,3 -3,0 z M 18,195 l 3,0 0,3 -3,0 z M 21,195 l 3,0 0,3 -3,0 z M 27,195 l 3,0 0,3 -3,0 z M 33,195 l 3,0 0,3 -3,0 z M 39,195 l 3,0 0,3 -3,0 z M 48,195 l 3,0 0,3 -3,0 z M 60,195 l 3,0 0,3 -3,0 z M 84,195 l 3,0 0,3 -3,0 z M 90,195 l 3,0 0,3 -3,0 z M 93,195 l 3,0 0,3 -3,0 z M 99,195 l 3,0 0,3 -3,0 z M 111,195 l 3,0 0,3 -3,0 z M 114,195 l 3,0 0,3 -3,0 z M 129,195 l 3,0 0,3 -3,0 z M 135,195 l 3,0 0,3 -3,0 z M 141,195 l 3,0 0,3 -3,0 z M 144,195 l 3,0 0,3 -3,0 z M 147,195 l 3,0 0,3 -3,0 z M 153,195 l 3,0 0,3 -3,0 z M 156,195 l 3,0 0,3 -3,0 z M 165,195 l 3,0 0,3 -3,0 z M 168,195 l 3,0 0,3 -3,0 z M 186,195 l 3,0 0,3 -3,0 z M 189,195 l 3,0 0,3 -3,0 z M 195,195 l 3,0 0,3 -3,0 z M 198,195 l 3,0 0,3 -3,0 z M 9,198 l 3,0 0,3 -3,0 z M 27,198 l 3,0 0,3 -3,0 z M 33,198 l 3,0 0,3 -3,0 z M 36,198 l 3,0 0,3 -3,0 z M 42,198 l 3,0 0,3 -3,0 z M 51,198 l 3,0 0,3 -3,0 z M 54,198 l 3,0 0,3 -3,0 z M 63,198 l 3,0 0,3 -3,0 z M 66,198 l 3,0 0,3 -3,0 z M 69,198 l 3,0 0,3 -3,0 z M 75,198 l 3,0 0,3 -3,0 z M 81,198 l 3,0 0,3 -3,0 z M 84,198 l 3,0 0,3 -3,0 z M 87,198 l 3,0 0,3 -3,0 z M 117,198 l 3,0 0,3 -3,0 z M 123,198 l 3,0 0,3 -3,0 z M 126,198 l 3,0 0,3 -3,0 z M 144,198 l 3,0 0,3 -3,0 z M 153,198 l 3,0 0,3 -3,0 z M 156,198 l 3,0 0,3 -3,0 z M 162,198 l 3,0 0,3 -3,0 z M 171,198 l 3,0 0,3 -3,0 z M 174,198 l 3,0 0,3 -3,0 z M 180,198 l 3,0 0,3 -3,0 z M 183,198 l 3,0 0,3 -3,0 z M 192,198 l 3,0 0,3 -3,0 z M 195,198 l 3,0 0,3 -3,0 z M 198,198 l 3,0 0,3 -3,0 z M 201,198 l 3,0 0,3 -3,0 z M 9,201 l 3,0 0,3 -3,0 z M 12,201 l 3,0 0,3 -3,0 z M 15,201 l 3,0 0,3 -3,0 z M 18,201 l 3,0 0,3 -3,0 z M 21,201 l 3,0 0,3 -3,0 z M 24,201 l 3,0 0,3 -3,0 z M 27,201 l 3,0 0,3 -3,0 z M 33,201 l 3,0 0,3 -3,0 z M 36,201 l 3,0 0,3 -3,0 z M 42,201 l 3,0 0,3 -3,0 z M 48,201 l 3,0 0,3 -3,0 z M 54,201 l 3,0 0,3 -3,0 z M 57,201 l 3,0 0,3 -3,0 z M 60,201 l 3,0 0,3 -3,0 z M 81,201 l 3,0 0,3 -3,0 z M 84,201 l 3,0 0,3 -3,0 z M 90,201 l 3,0 0,3 -3,0 z M 93,201 l 3,0 0,3 -3,0 z M 96,201 l 3,0 0,3 -3,0 z M 105,201 l 3,0 0,3 -3,0 z M 108,201 l 3,0 0,3 -3,0 z M 114,201 l 3,0 0,3 -3,0 z M 117,201 l 3,0 0,3 -3,0 z M 120,201 l 3,0 0,3 -3,0 z M 123,201 l 3,0 0,3 -3,0 z M 132,201 l 3,0 0,3 -3,0 z M 138,201 l 3,0 0,3 -3,0 z M 147,201 l 3,0 0,3 -3,0 z M 153,201 l 3,0 0,3 -3,0 z M 159,201 l 3,0 0,3 -3,0 z M 165,201 l 3,0 0,3 -3,0 z M 177,201 l 3,0 0,3 -3,0 z M 180,201 l 3,0 0,3 -3,0 z M 186,201 l 3,0 0,3 -3,0 z M 195,201 l 3,0 0,3 -3,0 z M 198,201 l 3,0 0,3 -3,0 z " />
	</g>
</svg>
